%FSLAX45Y45*%
G04 Gerber Fmt 4.5, Leading zero omitted, Abs format (unit mm)*
G04 Created by KiCad (PCBNEW (5.1.12)-1) date 2021-12-06 17:16:49*
%MOMM*%
%LPD*%
G01*
G04 APERTURE LIST*
%TA.AperFunction,Profile*%
%ADD10C,0.500000*%
%TD*%
%ADD11C,0.200000*%
%ADD12C,0.300000*%
G04 APERTURE END LIST*
D10*
X15199380Y-6563360D02*
X15199380Y-16563360D01*
X5199380Y-6563360D02*
X5199380Y-16563360D01*
X5199380Y-16563360D02*
X15199380Y-16563360D01*
X5199380Y-6563360D02*
X15199380Y-6563360D01*
D11*
X12890400Y-16088200D02*
X13190400Y-16388200D01*
X13190400Y-16088200D02*
X12890400Y-16388200D01*
X9797000Y-10341000D02*
G75*
G03*
X9797000Y-10341000I-175000J0D01*
G01*
X10897000Y-10341000D02*
G75*
G03*
X10897000Y-10341000I-175000J0D01*
G01*
D12*
X4862429Y-17733714D02*
X4862429Y-17433714D01*
X4933857Y-17433714D01*
X4976714Y-17448000D01*
X5005286Y-17476571D01*
X5019571Y-17505143D01*
X5033857Y-17562286D01*
X5033857Y-17605143D01*
X5019571Y-17662286D01*
X5005286Y-17690857D01*
X4976714Y-17719429D01*
X4933857Y-17733714D01*
X4862429Y-17733714D01*
X5162429Y-17733714D02*
X5162429Y-17533714D01*
X5162429Y-17590857D02*
X5176714Y-17562286D01*
X5191000Y-17548000D01*
X5219571Y-17533714D01*
X5248143Y-17533714D01*
X5348143Y-17733714D02*
X5348143Y-17533714D01*
X5348143Y-17433714D02*
X5333857Y-17448000D01*
X5348143Y-17462286D01*
X5362429Y-17448000D01*
X5348143Y-17433714D01*
X5348143Y-17462286D01*
X5533857Y-17733714D02*
X5505286Y-17719429D01*
X5491000Y-17690857D01*
X5491000Y-17433714D01*
X5691000Y-17733714D02*
X5662428Y-17719429D01*
X5648143Y-17690857D01*
X5648143Y-17433714D01*
X6033857Y-17733714D02*
X6033857Y-17433714D01*
X6133857Y-17648000D01*
X6233857Y-17433714D01*
X6233857Y-17733714D01*
X6505286Y-17733714D02*
X6505286Y-17576571D01*
X6491000Y-17548000D01*
X6462428Y-17533714D01*
X6405286Y-17533714D01*
X6376714Y-17548000D01*
X6505286Y-17719429D02*
X6476714Y-17733714D01*
X6405286Y-17733714D01*
X6376714Y-17719429D01*
X6362428Y-17690857D01*
X6362428Y-17662286D01*
X6376714Y-17633714D01*
X6405286Y-17619429D01*
X6476714Y-17619429D01*
X6505286Y-17605143D01*
X6648143Y-17533714D02*
X6648143Y-17833714D01*
X6648143Y-17548000D02*
X6676714Y-17533714D01*
X6733857Y-17533714D01*
X6762428Y-17548000D01*
X6776714Y-17562286D01*
X6791000Y-17590857D01*
X6791000Y-17676571D01*
X6776714Y-17705143D01*
X6762428Y-17719429D01*
X6733857Y-17733714D01*
X6676714Y-17733714D01*
X6648143Y-17719429D01*
X6919571Y-17705143D02*
X6933857Y-17719429D01*
X6919571Y-17733714D01*
X6905286Y-17719429D01*
X6919571Y-17705143D01*
X6919571Y-17733714D01*
X6919571Y-17548000D02*
X6933857Y-17562286D01*
X6919571Y-17576571D01*
X6905286Y-17562286D01*
X6919571Y-17548000D01*
X6919571Y-17576571D01*
X4276000Y-18078000D02*
X4576000Y-18378000D01*
X4576000Y-18078000D02*
X4276000Y-18378000D01*
X4833857Y-18063714D02*
X5019571Y-18063714D01*
X4919571Y-18178000D01*
X4962429Y-18178000D01*
X4991000Y-18192286D01*
X5005286Y-18206571D01*
X5019571Y-18235143D01*
X5019571Y-18306571D01*
X5005286Y-18335143D01*
X4991000Y-18349429D01*
X4962429Y-18363714D01*
X4876714Y-18363714D01*
X4848143Y-18349429D01*
X4833857Y-18335143D01*
X5148143Y-18335143D02*
X5162429Y-18349429D01*
X5148143Y-18363714D01*
X5133857Y-18349429D01*
X5148143Y-18335143D01*
X5148143Y-18363714D01*
X5348143Y-18063714D02*
X5376714Y-18063714D01*
X5405286Y-18078000D01*
X5419571Y-18092286D01*
X5433857Y-18120857D01*
X5448143Y-18178000D01*
X5448143Y-18249429D01*
X5433857Y-18306571D01*
X5419571Y-18335143D01*
X5405286Y-18349429D01*
X5376714Y-18363714D01*
X5348143Y-18363714D01*
X5319571Y-18349429D01*
X5305286Y-18335143D01*
X5291000Y-18306571D01*
X5276714Y-18249429D01*
X5276714Y-18178000D01*
X5291000Y-18120857D01*
X5305286Y-18092286D01*
X5319571Y-18078000D01*
X5348143Y-18063714D01*
X5633857Y-18063714D02*
X5662428Y-18063714D01*
X5691000Y-18078000D01*
X5705286Y-18092286D01*
X5719571Y-18120857D01*
X5733857Y-18178000D01*
X5733857Y-18249429D01*
X5719571Y-18306571D01*
X5705286Y-18335143D01*
X5691000Y-18349429D01*
X5662428Y-18363714D01*
X5633857Y-18363714D01*
X5605286Y-18349429D01*
X5591000Y-18335143D01*
X5576714Y-18306571D01*
X5562429Y-18249429D01*
X5562429Y-18178000D01*
X5576714Y-18120857D01*
X5591000Y-18092286D01*
X5605286Y-18078000D01*
X5633857Y-18063714D01*
X5919571Y-18063714D02*
X5948143Y-18063714D01*
X5976714Y-18078000D01*
X5991000Y-18092286D01*
X6005286Y-18120857D01*
X6019571Y-18178000D01*
X6019571Y-18249429D01*
X6005286Y-18306571D01*
X5991000Y-18335143D01*
X5976714Y-18349429D01*
X5948143Y-18363714D01*
X5919571Y-18363714D01*
X5891000Y-18349429D01*
X5876714Y-18335143D01*
X5862428Y-18306571D01*
X5848143Y-18249429D01*
X5848143Y-18178000D01*
X5862428Y-18120857D01*
X5876714Y-18092286D01*
X5891000Y-18078000D01*
X5919571Y-18063714D01*
X6148143Y-18363714D02*
X6148143Y-18163714D01*
X6148143Y-18192286D02*
X6162428Y-18178000D01*
X6191000Y-18163714D01*
X6233857Y-18163714D01*
X6262428Y-18178000D01*
X6276714Y-18206571D01*
X6276714Y-18363714D01*
X6276714Y-18206571D02*
X6291000Y-18178000D01*
X6319571Y-18163714D01*
X6362428Y-18163714D01*
X6391000Y-18178000D01*
X6405286Y-18206571D01*
X6405286Y-18363714D01*
X6548143Y-18363714D02*
X6548143Y-18163714D01*
X6548143Y-18192286D02*
X6562428Y-18178000D01*
X6591000Y-18163714D01*
X6633857Y-18163714D01*
X6662428Y-18178000D01*
X6676714Y-18206571D01*
X6676714Y-18363714D01*
X6676714Y-18206571D02*
X6691000Y-18178000D01*
X6719571Y-18163714D01*
X6762428Y-18163714D01*
X6791000Y-18178000D01*
X6805286Y-18206571D01*
X6805286Y-18363714D01*
X7391000Y-18049429D02*
X7133857Y-18435143D01*
X7776714Y-18063714D02*
X7805286Y-18063714D01*
X7833857Y-18078000D01*
X7848143Y-18092286D01*
X7862428Y-18120857D01*
X7876714Y-18178000D01*
X7876714Y-18249429D01*
X7862428Y-18306571D01*
X7848143Y-18335143D01*
X7833857Y-18349429D01*
X7805286Y-18363714D01*
X7776714Y-18363714D01*
X7748143Y-18349429D01*
X7733857Y-18335143D01*
X7719571Y-18306571D01*
X7705286Y-18249429D01*
X7705286Y-18178000D01*
X7719571Y-18120857D01*
X7733857Y-18092286D01*
X7748143Y-18078000D01*
X7776714Y-18063714D01*
X8005286Y-18335143D02*
X8019571Y-18349429D01*
X8005286Y-18363714D01*
X7991000Y-18349429D01*
X8005286Y-18335143D01*
X8005286Y-18363714D01*
X8305286Y-18363714D02*
X8133857Y-18363714D01*
X8219571Y-18363714D02*
X8219571Y-18063714D01*
X8191000Y-18106571D01*
X8162428Y-18135143D01*
X8133857Y-18149429D01*
X8591000Y-18363714D02*
X8419571Y-18363714D01*
X8505286Y-18363714D02*
X8505286Y-18063714D01*
X8476714Y-18106571D01*
X8448143Y-18135143D01*
X8419571Y-18149429D01*
X8762429Y-18192286D02*
X8733857Y-18178000D01*
X8719571Y-18163714D01*
X8705286Y-18135143D01*
X8705286Y-18120857D01*
X8719571Y-18092286D01*
X8733857Y-18078000D01*
X8762429Y-18063714D01*
X8819571Y-18063714D01*
X8848143Y-18078000D01*
X8862429Y-18092286D01*
X8876714Y-18120857D01*
X8876714Y-18135143D01*
X8862429Y-18163714D01*
X8848143Y-18178000D01*
X8819571Y-18192286D01*
X8762429Y-18192286D01*
X8733857Y-18206571D01*
X8719571Y-18220857D01*
X8705286Y-18249429D01*
X8705286Y-18306571D01*
X8719571Y-18335143D01*
X8733857Y-18349429D01*
X8762429Y-18363714D01*
X8819571Y-18363714D01*
X8848143Y-18349429D01*
X8862429Y-18335143D01*
X8876714Y-18306571D01*
X8876714Y-18249429D01*
X8862429Y-18220857D01*
X8848143Y-18206571D01*
X8819571Y-18192286D01*
X9162429Y-18363714D02*
X8991000Y-18363714D01*
X9076714Y-18363714D02*
X9076714Y-18063714D01*
X9048143Y-18106571D01*
X9019571Y-18135143D01*
X8991000Y-18149429D01*
X9276714Y-18063714D02*
X9276714Y-18120857D01*
X9391000Y-18063714D02*
X9391000Y-18120857D01*
X9833857Y-18478000D02*
X9819571Y-18463714D01*
X9791000Y-18420857D01*
X9776714Y-18392286D01*
X9762429Y-18349429D01*
X9748143Y-18278000D01*
X9748143Y-18220857D01*
X9762429Y-18149429D01*
X9776714Y-18106571D01*
X9791000Y-18078000D01*
X9819571Y-18035143D01*
X9833857Y-18020857D01*
X10105286Y-18363714D02*
X9933857Y-18363714D01*
X10019571Y-18363714D02*
X10019571Y-18063714D01*
X9991000Y-18106571D01*
X9962429Y-18135143D01*
X9933857Y-18149429D01*
X10462429Y-18363714D02*
X10462429Y-18063714D01*
X10591000Y-18363714D02*
X10591000Y-18206571D01*
X10576714Y-18178000D01*
X10548143Y-18163714D01*
X10505286Y-18163714D01*
X10476714Y-18178000D01*
X10462429Y-18192286D01*
X10776714Y-18363714D02*
X10748143Y-18349429D01*
X10733857Y-18335143D01*
X10719571Y-18306571D01*
X10719571Y-18220857D01*
X10733857Y-18192286D01*
X10748143Y-18178000D01*
X10776714Y-18163714D01*
X10819571Y-18163714D01*
X10848143Y-18178000D01*
X10862429Y-18192286D01*
X10876714Y-18220857D01*
X10876714Y-18306571D01*
X10862429Y-18335143D01*
X10848143Y-18349429D01*
X10819571Y-18363714D01*
X10776714Y-18363714D01*
X11048143Y-18363714D02*
X11019571Y-18349429D01*
X11005286Y-18320857D01*
X11005286Y-18063714D01*
X11276714Y-18349429D02*
X11248143Y-18363714D01*
X11191000Y-18363714D01*
X11162429Y-18349429D01*
X11148143Y-18320857D01*
X11148143Y-18206571D01*
X11162429Y-18178000D01*
X11191000Y-18163714D01*
X11248143Y-18163714D01*
X11276714Y-18178000D01*
X11291000Y-18206571D01*
X11291000Y-18235143D01*
X11148143Y-18263714D01*
X11391000Y-18478000D02*
X11405286Y-18463714D01*
X11433857Y-18420857D01*
X11448143Y-18392286D01*
X11462428Y-18349429D01*
X11476714Y-18278000D01*
X11476714Y-18220857D01*
X11462428Y-18149429D01*
X11448143Y-18106571D01*
X11433857Y-18078000D01*
X11405286Y-18035143D01*
X11391000Y-18020857D01*
X11933857Y-18478000D02*
X11919571Y-18463714D01*
X11891000Y-18420857D01*
X11876714Y-18392286D01*
X11862428Y-18349429D01*
X11848143Y-18278000D01*
X11848143Y-18220857D01*
X11862428Y-18149429D01*
X11876714Y-18106571D01*
X11891000Y-18078000D01*
X11919571Y-18035143D01*
X11933857Y-18020857D01*
X12048143Y-18163714D02*
X12048143Y-18363714D01*
X12048143Y-18192286D02*
X12062428Y-18178000D01*
X12091000Y-18163714D01*
X12133857Y-18163714D01*
X12162428Y-18178000D01*
X12176714Y-18206571D01*
X12176714Y-18363714D01*
X12362428Y-18363714D02*
X12333857Y-18349429D01*
X12319571Y-18335143D01*
X12305286Y-18306571D01*
X12305286Y-18220857D01*
X12319571Y-18192286D01*
X12333857Y-18178000D01*
X12362428Y-18163714D01*
X12405286Y-18163714D01*
X12433857Y-18178000D01*
X12448143Y-18192286D01*
X12462428Y-18220857D01*
X12462428Y-18306571D01*
X12448143Y-18335143D01*
X12433857Y-18349429D01*
X12405286Y-18363714D01*
X12362428Y-18363714D01*
X12548143Y-18163714D02*
X12662428Y-18163714D01*
X12591000Y-18063714D02*
X12591000Y-18320857D01*
X12605286Y-18349429D01*
X12633857Y-18363714D01*
X12662428Y-18363714D01*
X12991000Y-18163714D02*
X12991000Y-18463714D01*
X12991000Y-18178000D02*
X13019571Y-18163714D01*
X13076714Y-18163714D01*
X13105286Y-18178000D01*
X13119571Y-18192286D01*
X13133857Y-18220857D01*
X13133857Y-18306571D01*
X13119571Y-18335143D01*
X13105286Y-18349429D01*
X13076714Y-18363714D01*
X13019571Y-18363714D01*
X12991000Y-18349429D01*
X13305286Y-18363714D02*
X13276714Y-18349429D01*
X13262428Y-18320857D01*
X13262428Y-18063714D01*
X13548143Y-18363714D02*
X13548143Y-18206571D01*
X13533857Y-18178000D01*
X13505286Y-18163714D01*
X13448143Y-18163714D01*
X13419571Y-18178000D01*
X13548143Y-18349429D02*
X13519571Y-18363714D01*
X13448143Y-18363714D01*
X13419571Y-18349429D01*
X13405286Y-18320857D01*
X13405286Y-18292286D01*
X13419571Y-18263714D01*
X13448143Y-18249429D01*
X13519571Y-18249429D01*
X13548143Y-18235143D01*
X13648143Y-18163714D02*
X13762428Y-18163714D01*
X13691000Y-18063714D02*
X13691000Y-18320857D01*
X13705286Y-18349429D01*
X13733857Y-18363714D01*
X13762428Y-18363714D01*
X13976714Y-18349429D02*
X13948143Y-18363714D01*
X13891000Y-18363714D01*
X13862428Y-18349429D01*
X13848143Y-18320857D01*
X13848143Y-18206571D01*
X13862428Y-18178000D01*
X13891000Y-18163714D01*
X13948143Y-18163714D01*
X13976714Y-18178000D01*
X13991000Y-18206571D01*
X13991000Y-18235143D01*
X13848143Y-18263714D01*
X14248143Y-18363714D02*
X14248143Y-18063714D01*
X14248143Y-18349429D02*
X14219571Y-18363714D01*
X14162428Y-18363714D01*
X14133857Y-18349429D01*
X14119571Y-18335143D01*
X14105286Y-18306571D01*
X14105286Y-18220857D01*
X14119571Y-18192286D01*
X14133857Y-18178000D01*
X14162428Y-18163714D01*
X14219571Y-18163714D01*
X14248143Y-18178000D01*
X14362428Y-18478000D02*
X14376714Y-18463714D01*
X14405286Y-18420857D01*
X14419571Y-18392286D01*
X14433857Y-18349429D01*
X14448143Y-18278000D01*
X14448143Y-18220857D01*
X14433857Y-18149429D01*
X14419571Y-18106571D01*
X14405286Y-18078000D01*
X14376714Y-18035143D01*
X14362428Y-18020857D01*
X4576000Y-18658000D02*
G75*
G03*
X4576000Y-18658000I-175000J0D01*
G01*
X4833857Y-18493714D02*
X5019571Y-18493714D01*
X4919571Y-18608000D01*
X4962429Y-18608000D01*
X4991000Y-18622286D01*
X5005286Y-18636571D01*
X5019571Y-18665143D01*
X5019571Y-18736571D01*
X5005286Y-18765143D01*
X4991000Y-18779429D01*
X4962429Y-18793714D01*
X4876714Y-18793714D01*
X4848143Y-18779429D01*
X4833857Y-18765143D01*
X5148143Y-18765143D02*
X5162429Y-18779429D01*
X5148143Y-18793714D01*
X5133857Y-18779429D01*
X5148143Y-18765143D01*
X5148143Y-18793714D01*
X5433857Y-18493714D02*
X5291000Y-18493714D01*
X5276714Y-18636571D01*
X5291000Y-18622286D01*
X5319571Y-18608000D01*
X5391000Y-18608000D01*
X5419571Y-18622286D01*
X5433857Y-18636571D01*
X5448143Y-18665143D01*
X5448143Y-18736571D01*
X5433857Y-18765143D01*
X5419571Y-18779429D01*
X5391000Y-18793714D01*
X5319571Y-18793714D01*
X5291000Y-18779429D01*
X5276714Y-18765143D01*
X5633857Y-18493714D02*
X5662428Y-18493714D01*
X5691000Y-18508000D01*
X5705286Y-18522286D01*
X5719571Y-18550857D01*
X5733857Y-18608000D01*
X5733857Y-18679429D01*
X5719571Y-18736571D01*
X5705286Y-18765143D01*
X5691000Y-18779429D01*
X5662428Y-18793714D01*
X5633857Y-18793714D01*
X5605286Y-18779429D01*
X5591000Y-18765143D01*
X5576714Y-18736571D01*
X5562429Y-18679429D01*
X5562429Y-18608000D01*
X5576714Y-18550857D01*
X5591000Y-18522286D01*
X5605286Y-18508000D01*
X5633857Y-18493714D01*
X5919571Y-18493714D02*
X5948143Y-18493714D01*
X5976714Y-18508000D01*
X5991000Y-18522286D01*
X6005286Y-18550857D01*
X6019571Y-18608000D01*
X6019571Y-18679429D01*
X6005286Y-18736571D01*
X5991000Y-18765143D01*
X5976714Y-18779429D01*
X5948143Y-18793714D01*
X5919571Y-18793714D01*
X5891000Y-18779429D01*
X5876714Y-18765143D01*
X5862428Y-18736571D01*
X5848143Y-18679429D01*
X5848143Y-18608000D01*
X5862428Y-18550857D01*
X5876714Y-18522286D01*
X5891000Y-18508000D01*
X5919571Y-18493714D01*
X6148143Y-18793714D02*
X6148143Y-18593714D01*
X6148143Y-18622286D02*
X6162428Y-18608000D01*
X6191000Y-18593714D01*
X6233857Y-18593714D01*
X6262428Y-18608000D01*
X6276714Y-18636571D01*
X6276714Y-18793714D01*
X6276714Y-18636571D02*
X6291000Y-18608000D01*
X6319571Y-18593714D01*
X6362428Y-18593714D01*
X6391000Y-18608000D01*
X6405286Y-18636571D01*
X6405286Y-18793714D01*
X6548143Y-18793714D02*
X6548143Y-18593714D01*
X6548143Y-18622286D02*
X6562428Y-18608000D01*
X6591000Y-18593714D01*
X6633857Y-18593714D01*
X6662428Y-18608000D01*
X6676714Y-18636571D01*
X6676714Y-18793714D01*
X6676714Y-18636571D02*
X6691000Y-18608000D01*
X6719571Y-18593714D01*
X6762428Y-18593714D01*
X6791000Y-18608000D01*
X6805286Y-18636571D01*
X6805286Y-18793714D01*
X7391000Y-18479429D02*
X7133857Y-18865143D01*
X7776714Y-18493714D02*
X7805286Y-18493714D01*
X7833857Y-18508000D01*
X7848143Y-18522286D01*
X7862428Y-18550857D01*
X7876714Y-18608000D01*
X7876714Y-18679429D01*
X7862428Y-18736571D01*
X7848143Y-18765143D01*
X7833857Y-18779429D01*
X7805286Y-18793714D01*
X7776714Y-18793714D01*
X7748143Y-18779429D01*
X7733857Y-18765143D01*
X7719571Y-18736571D01*
X7705286Y-18679429D01*
X7705286Y-18608000D01*
X7719571Y-18550857D01*
X7733857Y-18522286D01*
X7748143Y-18508000D01*
X7776714Y-18493714D01*
X8005286Y-18765143D02*
X8019571Y-18779429D01*
X8005286Y-18793714D01*
X7991000Y-18779429D01*
X8005286Y-18765143D01*
X8005286Y-18793714D01*
X8305286Y-18793714D02*
X8133857Y-18793714D01*
X8219571Y-18793714D02*
X8219571Y-18493714D01*
X8191000Y-18536571D01*
X8162428Y-18565143D01*
X8133857Y-18579429D01*
X8405286Y-18493714D02*
X8591000Y-18493714D01*
X8491000Y-18608000D01*
X8533857Y-18608000D01*
X8562429Y-18622286D01*
X8576714Y-18636571D01*
X8591000Y-18665143D01*
X8591000Y-18736571D01*
X8576714Y-18765143D01*
X8562429Y-18779429D01*
X8533857Y-18793714D01*
X8448143Y-18793714D01*
X8419571Y-18779429D01*
X8405286Y-18765143D01*
X8691000Y-18493714D02*
X8891000Y-18493714D01*
X8762429Y-18793714D01*
X9048143Y-18622286D02*
X9019571Y-18608000D01*
X9005286Y-18593714D01*
X8991000Y-18565143D01*
X8991000Y-18550857D01*
X9005286Y-18522286D01*
X9019571Y-18508000D01*
X9048143Y-18493714D01*
X9105286Y-18493714D01*
X9133857Y-18508000D01*
X9148143Y-18522286D01*
X9162429Y-18550857D01*
X9162429Y-18565143D01*
X9148143Y-18593714D01*
X9133857Y-18608000D01*
X9105286Y-18622286D01*
X9048143Y-18622286D01*
X9019571Y-18636571D01*
X9005286Y-18650857D01*
X8991000Y-18679429D01*
X8991000Y-18736571D01*
X9005286Y-18765143D01*
X9019571Y-18779429D01*
X9048143Y-18793714D01*
X9105286Y-18793714D01*
X9133857Y-18779429D01*
X9148143Y-18765143D01*
X9162429Y-18736571D01*
X9162429Y-18679429D01*
X9148143Y-18650857D01*
X9133857Y-18636571D01*
X9105286Y-18622286D01*
X9276714Y-18493714D02*
X9276714Y-18550857D01*
X9391000Y-18493714D02*
X9391000Y-18550857D01*
X9833857Y-18908000D02*
X9819571Y-18893714D01*
X9791000Y-18850857D01*
X9776714Y-18822286D01*
X9762429Y-18779429D01*
X9748143Y-18708000D01*
X9748143Y-18650857D01*
X9762429Y-18579429D01*
X9776714Y-18536571D01*
X9791000Y-18508000D01*
X9819571Y-18465143D01*
X9833857Y-18450857D01*
X9933857Y-18522286D02*
X9948143Y-18508000D01*
X9976714Y-18493714D01*
X10048143Y-18493714D01*
X10076714Y-18508000D01*
X10091000Y-18522286D01*
X10105286Y-18550857D01*
X10105286Y-18579429D01*
X10091000Y-18622286D01*
X9919571Y-18793714D01*
X10105286Y-18793714D01*
X10462429Y-18793714D02*
X10462429Y-18493714D01*
X10591000Y-18793714D02*
X10591000Y-18636571D01*
X10576714Y-18608000D01*
X10548143Y-18593714D01*
X10505286Y-18593714D01*
X10476714Y-18608000D01*
X10462429Y-18622286D01*
X10776714Y-18793714D02*
X10748143Y-18779429D01*
X10733857Y-18765143D01*
X10719571Y-18736571D01*
X10719571Y-18650857D01*
X10733857Y-18622286D01*
X10748143Y-18608000D01*
X10776714Y-18593714D01*
X10819571Y-18593714D01*
X10848143Y-18608000D01*
X10862429Y-18622286D01*
X10876714Y-18650857D01*
X10876714Y-18736571D01*
X10862429Y-18765143D01*
X10848143Y-18779429D01*
X10819571Y-18793714D01*
X10776714Y-18793714D01*
X11048143Y-18793714D02*
X11019571Y-18779429D01*
X11005286Y-18750857D01*
X11005286Y-18493714D01*
X11276714Y-18779429D02*
X11248143Y-18793714D01*
X11191000Y-18793714D01*
X11162429Y-18779429D01*
X11148143Y-18750857D01*
X11148143Y-18636571D01*
X11162429Y-18608000D01*
X11191000Y-18593714D01*
X11248143Y-18593714D01*
X11276714Y-18608000D01*
X11291000Y-18636571D01*
X11291000Y-18665143D01*
X11148143Y-18693714D01*
X11405286Y-18779429D02*
X11433857Y-18793714D01*
X11491000Y-18793714D01*
X11519571Y-18779429D01*
X11533857Y-18750857D01*
X11533857Y-18736571D01*
X11519571Y-18708000D01*
X11491000Y-18693714D01*
X11448143Y-18693714D01*
X11419571Y-18679429D01*
X11405286Y-18650857D01*
X11405286Y-18636571D01*
X11419571Y-18608000D01*
X11448143Y-18593714D01*
X11491000Y-18593714D01*
X11519571Y-18608000D01*
X11633857Y-18908000D02*
X11648143Y-18893714D01*
X11676714Y-18850857D01*
X11691000Y-18822286D01*
X11705286Y-18779429D01*
X11719571Y-18708000D01*
X11719571Y-18650857D01*
X11705286Y-18579429D01*
X11691000Y-18536571D01*
X11676714Y-18508000D01*
X11648143Y-18465143D01*
X11633857Y-18450857D01*
X12176714Y-18908000D02*
X12162428Y-18893714D01*
X12133857Y-18850857D01*
X12119571Y-18822286D01*
X12105286Y-18779429D01*
X12091000Y-18708000D01*
X12091000Y-18650857D01*
X12105286Y-18579429D01*
X12119571Y-18536571D01*
X12133857Y-18508000D01*
X12162428Y-18465143D01*
X12176714Y-18450857D01*
X12291000Y-18593714D02*
X12291000Y-18793714D01*
X12291000Y-18622286D02*
X12305286Y-18608000D01*
X12333857Y-18593714D01*
X12376714Y-18593714D01*
X12405286Y-18608000D01*
X12419571Y-18636571D01*
X12419571Y-18793714D01*
X12605286Y-18793714D02*
X12576714Y-18779429D01*
X12562428Y-18765143D01*
X12548143Y-18736571D01*
X12548143Y-18650857D01*
X12562428Y-18622286D01*
X12576714Y-18608000D01*
X12605286Y-18593714D01*
X12648143Y-18593714D01*
X12676714Y-18608000D01*
X12691000Y-18622286D01*
X12705286Y-18650857D01*
X12705286Y-18736571D01*
X12691000Y-18765143D01*
X12676714Y-18779429D01*
X12648143Y-18793714D01*
X12605286Y-18793714D01*
X12791000Y-18593714D02*
X12905286Y-18593714D01*
X12833857Y-18493714D02*
X12833857Y-18750857D01*
X12848143Y-18779429D01*
X12876714Y-18793714D01*
X12905286Y-18793714D01*
X13233857Y-18593714D02*
X13233857Y-18893714D01*
X13233857Y-18608000D02*
X13262428Y-18593714D01*
X13319571Y-18593714D01*
X13348143Y-18608000D01*
X13362428Y-18622286D01*
X13376714Y-18650857D01*
X13376714Y-18736571D01*
X13362428Y-18765143D01*
X13348143Y-18779429D01*
X13319571Y-18793714D01*
X13262428Y-18793714D01*
X13233857Y-18779429D01*
X13548143Y-18793714D02*
X13519571Y-18779429D01*
X13505286Y-18750857D01*
X13505286Y-18493714D01*
X13791000Y-18793714D02*
X13791000Y-18636571D01*
X13776714Y-18608000D01*
X13748143Y-18593714D01*
X13691000Y-18593714D01*
X13662428Y-18608000D01*
X13791000Y-18779429D02*
X13762428Y-18793714D01*
X13691000Y-18793714D01*
X13662428Y-18779429D01*
X13648143Y-18750857D01*
X13648143Y-18722286D01*
X13662428Y-18693714D01*
X13691000Y-18679429D01*
X13762428Y-18679429D01*
X13791000Y-18665143D01*
X13891000Y-18593714D02*
X14005286Y-18593714D01*
X13933857Y-18493714D02*
X13933857Y-18750857D01*
X13948143Y-18779429D01*
X13976714Y-18793714D01*
X14005286Y-18793714D01*
X14219571Y-18779429D02*
X14191000Y-18793714D01*
X14133857Y-18793714D01*
X14105286Y-18779429D01*
X14091000Y-18750857D01*
X14091000Y-18636571D01*
X14105286Y-18608000D01*
X14133857Y-18593714D01*
X14191000Y-18593714D01*
X14219571Y-18608000D01*
X14233857Y-18636571D01*
X14233857Y-18665143D01*
X14091000Y-18693714D01*
X14491000Y-18793714D02*
X14491000Y-18493714D01*
X14491000Y-18779429D02*
X14462428Y-18793714D01*
X14405286Y-18793714D01*
X14376714Y-18779429D01*
X14362428Y-18765143D01*
X14348143Y-18736571D01*
X14348143Y-18650857D01*
X14362428Y-18622286D01*
X14376714Y-18608000D01*
X14405286Y-18593714D01*
X14462428Y-18593714D01*
X14491000Y-18608000D01*
X14605286Y-18908000D02*
X14619571Y-18893714D01*
X14648143Y-18850857D01*
X14662428Y-18822286D01*
X14676714Y-18779429D01*
X14691000Y-18708000D01*
X14691000Y-18650857D01*
X14676714Y-18579429D01*
X14662428Y-18536571D01*
X14648143Y-18508000D01*
X14619571Y-18465143D01*
X14605286Y-18450857D01*
M02*
