G04 #@! TF.GenerationSoftware,KiCad,Pcbnew,(5.1.12)-1*
G04 #@! TF.CreationDate,2021-12-04T17:22:21+10:00*
G04 #@! TF.ProjectId,stmsplat2,73746d73-706c-4617-9432-2e6b69636164,rev?*
G04 #@! TF.SameCoordinates,Original*
G04 #@! TF.FileFunction,Paste,Top*
G04 #@! TF.FilePolarity,Positive*
%FSLAX46Y46*%
G04 Gerber Fmt 4.6, Leading zero omitted, Abs format (unit mm)*
G04 Created by KiCad (PCBNEW (5.1.12)-1) date 2021-12-04 17:22:21*
%MOMM*%
%LPD*%
G01*
G04 APERTURE LIST*
%ADD10C,0.200000*%
%ADD11R,1.396800X0.796800*%
%ADD12R,1.296800X0.896800*%
%ADD13R,0.596800X0.696800*%
%ADD14R,1.196800X0.096800*%
%ADD15R,1.296800X2.396800*%
%ADD16R,2.396800X1.296800*%
%ADD17R,3.296800X1.596800*%
%ADD18R,0.355600X1.295400*%
%ADD19R,1.996800X0.996800*%
%ADD20R,3.050000X2.750000*%
%ADD21R,0.796800X1.396800*%
%ADD22R,0.709300X0.796800*%
%ADD23C,1.316800*%
G04 APERTURE END LIST*
D10*
X125100000Y-33800000D02*
X125090000Y-33790000D01*
D11*
X137505800Y-122629600D03*
X137505800Y-123899600D03*
X137505800Y-125169600D03*
X137505800Y-126439600D03*
X137505800Y-127709600D03*
X137505800Y-128979600D03*
X137505800Y-130249600D03*
X137505800Y-131519600D03*
X137505800Y-115789600D03*
X137505800Y-114519600D03*
X137505800Y-117059600D03*
X123505800Y-115789600D03*
X123505800Y-114519600D03*
X123505800Y-117059600D03*
X123505800Y-126439600D03*
X123505800Y-123899600D03*
X123505800Y-130249600D03*
X123505800Y-131519600D03*
X123505800Y-127709600D03*
X123505800Y-122629600D03*
X123505800Y-125169600D03*
X123505800Y-128979600D03*
G36*
G01*
X124222962Y-76130900D02*
X123427038Y-76130900D01*
G75*
G02*
X123226600Y-75930462I0J200438D01*
G01*
X123226600Y-75509538D01*
G75*
G02*
X123427038Y-75309100I200438J0D01*
G01*
X124222962Y-75309100D01*
G75*
G02*
X124423400Y-75509538I0J-200438D01*
G01*
X124423400Y-75930462D01*
G75*
G02*
X124222962Y-76130900I-200438J0D01*
G01*
G37*
G36*
G01*
X124222962Y-77955900D02*
X123427038Y-77955900D01*
G75*
G02*
X123226600Y-77755462I0J200438D01*
G01*
X123226600Y-77334538D01*
G75*
G02*
X123427038Y-77134100I200438J0D01*
G01*
X124222962Y-77134100D01*
G75*
G02*
X124423400Y-77334538I0J-200438D01*
G01*
X124423400Y-77755462D01*
G75*
G02*
X124222962Y-77955900I-200438J0D01*
G01*
G37*
G36*
G01*
X124222962Y-83520900D02*
X123427038Y-83520900D01*
G75*
G02*
X123226600Y-83320462I0J200438D01*
G01*
X123226600Y-82899538D01*
G75*
G02*
X123427038Y-82699100I200438J0D01*
G01*
X124222962Y-82699100D01*
G75*
G02*
X124423400Y-82899538I0J-200438D01*
G01*
X124423400Y-83320462D01*
G75*
G02*
X124222962Y-83520900I-200438J0D01*
G01*
G37*
G36*
G01*
X124222962Y-85345900D02*
X123427038Y-85345900D01*
G75*
G02*
X123226600Y-85145462I0J200438D01*
G01*
X123226600Y-84724538D01*
G75*
G02*
X123427038Y-84524100I200438J0D01*
G01*
X124222962Y-84524100D01*
G75*
G02*
X124423400Y-84724538I0J-200438D01*
G01*
X124423400Y-85145462D01*
G75*
G02*
X124222962Y-85345900I-200438J0D01*
G01*
G37*
G36*
G01*
X101373850Y-84113600D02*
X102334150Y-84113600D01*
G75*
G02*
X102552400Y-84331850I0J-218250D01*
G01*
X102552400Y-86692150D01*
G75*
G02*
X102334150Y-86910400I-218250J0D01*
G01*
X101373850Y-86910400D01*
G75*
G02*
X101155600Y-86692150I0J218250D01*
G01*
X101155600Y-84331850D01*
G75*
G02*
X101373850Y-84113600I218250J0D01*
G01*
G37*
G36*
G01*
X101373850Y-79713600D02*
X102334150Y-79713600D01*
G75*
G02*
X102552400Y-79931850I0J-218250D01*
G01*
X102552400Y-82292150D01*
G75*
G02*
X102334150Y-82510400I-218250J0D01*
G01*
X101373850Y-82510400D01*
G75*
G02*
X101155600Y-82292150I0J218250D01*
G01*
X101155600Y-79931850D01*
G75*
G02*
X101373850Y-79713600I218250J0D01*
G01*
G37*
D12*
X68829000Y-95427800D03*
X77729000Y-92887800D03*
X68829000Y-92887800D03*
X77729000Y-95427800D03*
G36*
G01*
X70068400Y-132869850D02*
X70068400Y-133830150D01*
G75*
G02*
X69850150Y-134048400I-218250J0D01*
G01*
X66989850Y-134048400D01*
G75*
G02*
X66771600Y-133830150I0J218250D01*
G01*
X66771600Y-132869850D01*
G75*
G02*
X66989850Y-132651600I218250J0D01*
G01*
X69850150Y-132651600D01*
G75*
G02*
X70068400Y-132869850I0J-218250D01*
G01*
G37*
G36*
G01*
X75468400Y-132869850D02*
X75468400Y-133830150D01*
G75*
G02*
X75250150Y-134048400I-218250J0D01*
G01*
X72389850Y-134048400D01*
G75*
G02*
X72171600Y-133830150I0J218250D01*
G01*
X72171600Y-132869850D01*
G75*
G02*
X72389850Y-132651600I218250J0D01*
G01*
X75250150Y-132651600D01*
G75*
G02*
X75468400Y-132869850I0J-218250D01*
G01*
G37*
G36*
G01*
X72030150Y-101818400D02*
X71069850Y-101818400D01*
G75*
G02*
X70851600Y-101600150I0J218250D01*
G01*
X70851600Y-98739850D01*
G75*
G02*
X71069850Y-98521600I218250J0D01*
G01*
X72030150Y-98521600D01*
G75*
G02*
X72248400Y-98739850I0J-218250D01*
G01*
X72248400Y-101600150D01*
G75*
G02*
X72030150Y-101818400I-218250J0D01*
G01*
G37*
G36*
G01*
X72030150Y-107218400D02*
X71069850Y-107218400D01*
G75*
G02*
X70851600Y-107000150I0J218250D01*
G01*
X70851600Y-104139850D01*
G75*
G02*
X71069850Y-103921600I218250J0D01*
G01*
X72030150Y-103921600D01*
G75*
G02*
X72248400Y-104139850I0J-218250D01*
G01*
X72248400Y-107000150D01*
G75*
G02*
X72030150Y-107218400I-218250J0D01*
G01*
G37*
G36*
G01*
X80198400Y-160519850D02*
X80198400Y-161480150D01*
G75*
G02*
X79980150Y-161698400I-218250J0D01*
G01*
X77619850Y-161698400D01*
G75*
G02*
X77401600Y-161480150I0J218250D01*
G01*
X77401600Y-160519850D01*
G75*
G02*
X77619850Y-160301600I218250J0D01*
G01*
X79980150Y-160301600D01*
G75*
G02*
X80198400Y-160519850I0J-218250D01*
G01*
G37*
G36*
G01*
X84598400Y-160519850D02*
X84598400Y-161480150D01*
G75*
G02*
X84380150Y-161698400I-218250J0D01*
G01*
X82019850Y-161698400D01*
G75*
G02*
X81801600Y-161480150I0J218250D01*
G01*
X81801600Y-160519850D01*
G75*
G02*
X82019850Y-160301600I218250J0D01*
G01*
X84380150Y-160301600D01*
G75*
G02*
X84598400Y-160519850I0J-218250D01*
G01*
G37*
G36*
G01*
X93998400Y-108075800D02*
X93998400Y-108924200D01*
G75*
G02*
X93799200Y-109123400I-199200J0D01*
G01*
X93400800Y-109123400D01*
G75*
G02*
X93201600Y-108924200I0J199200D01*
G01*
X93201600Y-108075800D01*
G75*
G02*
X93400800Y-107876600I199200J0D01*
G01*
X93799200Y-107876600D01*
G75*
G02*
X93998400Y-108075800I0J-199200D01*
G01*
G37*
G36*
G01*
X95898400Y-108075800D02*
X95898400Y-108924200D01*
G75*
G02*
X95699200Y-109123400I-199200J0D01*
G01*
X95300800Y-109123400D01*
G75*
G02*
X95101600Y-108924200I0J199200D01*
G01*
X95101600Y-108075800D01*
G75*
G02*
X95300800Y-107876600I199200J0D01*
G01*
X95699200Y-107876600D01*
G75*
G02*
X95898400Y-108075800I0J-199200D01*
G01*
G37*
G36*
G01*
X103198400Y-108192425D02*
X103198400Y-108977575D01*
G75*
G02*
X102992575Y-109183400I-205825J0D01*
G01*
X102457425Y-109183400D01*
G75*
G02*
X102251600Y-108977575I0J205825D01*
G01*
X102251600Y-108192425D01*
G75*
G02*
X102457425Y-107986600I205825J0D01*
G01*
X102992575Y-107986600D01*
G75*
G02*
X103198400Y-108192425I0J-205825D01*
G01*
G37*
G36*
G01*
X105248400Y-108192425D02*
X105248400Y-108977575D01*
G75*
G02*
X105042575Y-109183400I-205825J0D01*
G01*
X104507425Y-109183400D01*
G75*
G02*
X104301600Y-108977575I0J205825D01*
G01*
X104301600Y-108192425D01*
G75*
G02*
X104507425Y-107986600I205825J0D01*
G01*
X105042575Y-107986600D01*
G75*
G02*
X105248400Y-108192425I0J-205825D01*
G01*
G37*
G36*
G01*
X79993037Y-114801600D02*
X80788963Y-114801600D01*
G75*
G02*
X80989400Y-115002037I0J-200437D01*
G01*
X80989400Y-115422963D01*
G75*
G02*
X80788963Y-115623400I-200437J0D01*
G01*
X79993037Y-115623400D01*
G75*
G02*
X79792600Y-115422963I0J200437D01*
G01*
X79792600Y-115002037D01*
G75*
G02*
X79993037Y-114801600I200437J0D01*
G01*
G37*
G36*
G01*
X79993037Y-112976600D02*
X80788963Y-112976600D01*
G75*
G02*
X80989400Y-113177037I0J-200437D01*
G01*
X80989400Y-113597963D01*
G75*
G02*
X80788963Y-113798400I-200437J0D01*
G01*
X79993037Y-113798400D01*
G75*
G02*
X79792600Y-113597963I0J200437D01*
G01*
X79792600Y-113177037D01*
G75*
G02*
X79993037Y-112976600I200437J0D01*
G01*
G37*
G36*
G01*
X62005900Y-118982037D02*
X62005900Y-119777963D01*
G75*
G02*
X61805463Y-119978400I-200437J0D01*
G01*
X61384537Y-119978400D01*
G75*
G02*
X61184100Y-119777963I0J200437D01*
G01*
X61184100Y-118982037D01*
G75*
G02*
X61384537Y-118781600I200437J0D01*
G01*
X61805463Y-118781600D01*
G75*
G02*
X62005900Y-118982037I0J-200437D01*
G01*
G37*
G36*
G01*
X63830900Y-118982037D02*
X63830900Y-119777963D01*
G75*
G02*
X63630463Y-119978400I-200437J0D01*
G01*
X63209537Y-119978400D01*
G75*
G02*
X63009100Y-119777963I0J200437D01*
G01*
X63009100Y-118982037D01*
G75*
G02*
X63209537Y-118781600I200437J0D01*
G01*
X63630463Y-118781600D01*
G75*
G02*
X63830900Y-118982037I0J-200437D01*
G01*
G37*
G36*
G01*
X62005900Y-121522037D02*
X62005900Y-122317963D01*
G75*
G02*
X61805463Y-122518400I-200437J0D01*
G01*
X61384537Y-122518400D01*
G75*
G02*
X61184100Y-122317963I0J200437D01*
G01*
X61184100Y-121522037D01*
G75*
G02*
X61384537Y-121321600I200437J0D01*
G01*
X61805463Y-121321600D01*
G75*
G02*
X62005900Y-121522037I0J-200437D01*
G01*
G37*
G36*
G01*
X63830900Y-121522037D02*
X63830900Y-122317963D01*
G75*
G02*
X63630463Y-122518400I-200437J0D01*
G01*
X63209537Y-122518400D01*
G75*
G02*
X63009100Y-122317963I0J200437D01*
G01*
X63009100Y-121522037D01*
G75*
G02*
X63209537Y-121321600I200437J0D01*
G01*
X63630463Y-121321600D01*
G75*
G02*
X63830900Y-121522037I0J-200437D01*
G01*
G37*
G36*
G01*
X62005900Y-116442037D02*
X62005900Y-117237963D01*
G75*
G02*
X61805463Y-117438400I-200437J0D01*
G01*
X61384537Y-117438400D01*
G75*
G02*
X61184100Y-117237963I0J200437D01*
G01*
X61184100Y-116442037D01*
G75*
G02*
X61384537Y-116241600I200437J0D01*
G01*
X61805463Y-116241600D01*
G75*
G02*
X62005900Y-116442037I0J-200437D01*
G01*
G37*
G36*
G01*
X63830900Y-116442037D02*
X63830900Y-117237963D01*
G75*
G02*
X63630463Y-117438400I-200437J0D01*
G01*
X63209537Y-117438400D01*
G75*
G02*
X63009100Y-117237963I0J200437D01*
G01*
X63009100Y-116442037D01*
G75*
G02*
X63209537Y-116241600I200437J0D01*
G01*
X63630463Y-116241600D01*
G75*
G02*
X63830900Y-116442037I0J-200437D01*
G01*
G37*
G36*
G01*
X79998425Y-111041600D02*
X80783575Y-111041600D01*
G75*
G02*
X80989400Y-111247425I0J-205825D01*
G01*
X80989400Y-111782575D01*
G75*
G02*
X80783575Y-111988400I-205825J0D01*
G01*
X79998425Y-111988400D01*
G75*
G02*
X79792600Y-111782575I0J205825D01*
G01*
X79792600Y-111247425D01*
G75*
G02*
X79998425Y-111041600I205825J0D01*
G01*
G37*
G36*
G01*
X79998425Y-108991600D02*
X80783575Y-108991600D01*
G75*
G02*
X80989400Y-109197425I0J-205825D01*
G01*
X80989400Y-109732575D01*
G75*
G02*
X80783575Y-109938400I-205825J0D01*
G01*
X79998425Y-109938400D01*
G75*
G02*
X79792600Y-109732575I0J205825D01*
G01*
X79792600Y-109197425D01*
G75*
G02*
X79998425Y-108991600I205825J0D01*
G01*
G37*
G36*
G01*
X140945400Y-73920950D02*
X140945400Y-75939050D01*
G75*
G02*
X140731050Y-76153400I-214350J0D01*
G01*
X139937950Y-76153400D01*
G75*
G02*
X139723600Y-75939050I0J214350D01*
G01*
X139723600Y-73920950D01*
G75*
G02*
X139937950Y-73706600I214350J0D01*
G01*
X140731050Y-73706600D01*
G75*
G02*
X140945400Y-73920950I0J-214350D01*
G01*
G37*
G36*
G01*
X143920400Y-73920950D02*
X143920400Y-75939050D01*
G75*
G02*
X143706050Y-76153400I-214350J0D01*
G01*
X142912950Y-76153400D01*
G75*
G02*
X142698600Y-75939050I0J214350D01*
G01*
X142698600Y-73920950D01*
G75*
G02*
X142912950Y-73706600I214350J0D01*
G01*
X143706050Y-73706600D01*
G75*
G02*
X143920400Y-73920950I0J-214350D01*
G01*
G37*
G36*
G01*
X147800150Y-75398400D02*
X146839850Y-75398400D01*
G75*
G02*
X146621600Y-75180150I0J218250D01*
G01*
X146621600Y-72819850D01*
G75*
G02*
X146839850Y-72601600I218250J0D01*
G01*
X147800150Y-72601600D01*
G75*
G02*
X148018400Y-72819850I0J-218250D01*
G01*
X148018400Y-75180150D01*
G75*
G02*
X147800150Y-75398400I-218250J0D01*
G01*
G37*
G36*
G01*
X147800150Y-79798400D02*
X146839850Y-79798400D01*
G75*
G02*
X146621600Y-79580150I0J218250D01*
G01*
X146621600Y-77219850D01*
G75*
G02*
X146839850Y-77001600I218250J0D01*
G01*
X147800150Y-77001600D01*
G75*
G02*
X148018400Y-77219850I0J-218250D01*
G01*
X148018400Y-79580150D01*
G75*
G02*
X147800150Y-79798400I-218250J0D01*
G01*
G37*
G36*
G01*
X126109600Y-138656150D02*
X126109600Y-137695850D01*
G75*
G02*
X126327850Y-137477600I218250J0D01*
G01*
X128688150Y-137477600D01*
G75*
G02*
X128906400Y-137695850I0J-218250D01*
G01*
X128906400Y-138656150D01*
G75*
G02*
X128688150Y-138874400I-218250J0D01*
G01*
X126327850Y-138874400D01*
G75*
G02*
X126109600Y-138656150I0J218250D01*
G01*
G37*
G36*
G01*
X121709600Y-138656150D02*
X121709600Y-137695850D01*
G75*
G02*
X121927850Y-137477600I218250J0D01*
G01*
X124288150Y-137477600D01*
G75*
G02*
X124506400Y-137695850I0J-218250D01*
G01*
X124506400Y-138656150D01*
G75*
G02*
X124288150Y-138874400I-218250J0D01*
G01*
X121927850Y-138874400D01*
G75*
G02*
X121709600Y-138656150I0J218250D01*
G01*
G37*
G36*
G01*
X108051600Y-156480150D02*
X108051600Y-155519850D01*
G75*
G02*
X108269850Y-155301600I218250J0D01*
G01*
X111130150Y-155301600D01*
G75*
G02*
X111348400Y-155519850I0J-218250D01*
G01*
X111348400Y-156480150D01*
G75*
G02*
X111130150Y-156698400I-218250J0D01*
G01*
X108269850Y-156698400D01*
G75*
G02*
X108051600Y-156480150I0J218250D01*
G01*
G37*
G36*
G01*
X102651600Y-156480150D02*
X102651600Y-155519850D01*
G75*
G02*
X102869850Y-155301600I218250J0D01*
G01*
X105730150Y-155301600D01*
G75*
G02*
X105948400Y-155519850I0J-218250D01*
G01*
X105948400Y-156480150D01*
G75*
G02*
X105730150Y-156698400I-218250J0D01*
G01*
X102869850Y-156698400D01*
G75*
G02*
X102651600Y-156480150I0J218250D01*
G01*
G37*
D13*
X142560000Y-147860000D03*
X143510000Y-149860000D03*
X141610000Y-149860000D03*
D14*
X122895000Y-89470000D03*
X122895000Y-89970000D03*
X122895000Y-90470000D03*
X122895000Y-90970000D03*
X122895000Y-91470000D03*
X127295000Y-91470000D03*
X127295000Y-90970000D03*
X127295000Y-90470000D03*
X127295000Y-89970000D03*
X127295000Y-89470000D03*
G36*
G01*
X147101600Y-135100150D02*
X147101600Y-134139850D01*
G75*
G02*
X147319850Y-133921600I218250J0D01*
G01*
X150180150Y-133921600D01*
G75*
G02*
X150398400Y-134139850I0J-218250D01*
G01*
X150398400Y-135100150D01*
G75*
G02*
X150180150Y-135318400I-218250J0D01*
G01*
X147319850Y-135318400D01*
G75*
G02*
X147101600Y-135100150I0J218250D01*
G01*
G37*
G36*
G01*
X141701600Y-135100150D02*
X141701600Y-134139850D01*
G75*
G02*
X141919850Y-133921600I218250J0D01*
G01*
X144780150Y-133921600D01*
G75*
G02*
X144998400Y-134139850I0J-218250D01*
G01*
X144998400Y-135100150D01*
G75*
G02*
X144780150Y-135318400I-218250J0D01*
G01*
X141919850Y-135318400D01*
G75*
G02*
X141701600Y-135100150I0J218250D01*
G01*
G37*
G36*
G01*
X132869850Y-92491600D02*
X133830150Y-92491600D01*
G75*
G02*
X134048400Y-92709850I0J-218250D01*
G01*
X134048400Y-95570150D01*
G75*
G02*
X133830150Y-95788400I-218250J0D01*
G01*
X132869850Y-95788400D01*
G75*
G02*
X132651600Y-95570150I0J218250D01*
G01*
X132651600Y-92709850D01*
G75*
G02*
X132869850Y-92491600I218250J0D01*
G01*
G37*
G36*
G01*
X132869850Y-87091600D02*
X133830150Y-87091600D01*
G75*
G02*
X134048400Y-87309850I0J-218250D01*
G01*
X134048400Y-90170150D01*
G75*
G02*
X133830150Y-90388400I-218250J0D01*
G01*
X132869850Y-90388400D01*
G75*
G02*
X132651600Y-90170150I0J218250D01*
G01*
X132651600Y-87309850D01*
G75*
G02*
X132869850Y-87091600I218250J0D01*
G01*
G37*
G36*
G01*
X90451850Y-84871600D02*
X91412150Y-84871600D01*
G75*
G02*
X91630400Y-85089850I0J-218250D01*
G01*
X91630400Y-87950150D01*
G75*
G02*
X91412150Y-88168400I-218250J0D01*
G01*
X90451850Y-88168400D01*
G75*
G02*
X90233600Y-87950150I0J218250D01*
G01*
X90233600Y-85089850D01*
G75*
G02*
X90451850Y-84871600I218250J0D01*
G01*
G37*
G36*
G01*
X90451850Y-79471600D02*
X91412150Y-79471600D01*
G75*
G02*
X91630400Y-79689850I0J-218250D01*
G01*
X91630400Y-82550150D01*
G75*
G02*
X91412150Y-82768400I-218250J0D01*
G01*
X90451850Y-82768400D01*
G75*
G02*
X90233600Y-82550150I0J218250D01*
G01*
X90233600Y-79689850D01*
G75*
G02*
X90451850Y-79471600I218250J0D01*
G01*
G37*
G36*
G01*
X117899600Y-70763450D02*
X117899600Y-69952550D01*
G75*
G02*
X118092550Y-69759600I192950J0D01*
G01*
X118478450Y-69759600D01*
G75*
G02*
X118671400Y-69952550I0J-192950D01*
G01*
X118671400Y-70763450D01*
G75*
G02*
X118478450Y-70956400I-192950J0D01*
G01*
X118092550Y-70956400D01*
G75*
G02*
X117899600Y-70763450I0J192950D01*
G01*
G37*
G36*
G01*
X116024600Y-70763450D02*
X116024600Y-69952550D01*
G75*
G02*
X116217550Y-69759600I192950J0D01*
G01*
X116603450Y-69759600D01*
G75*
G02*
X116796400Y-69952550I0J-192950D01*
G01*
X116796400Y-70763450D01*
G75*
G02*
X116603450Y-70956400I-192950J0D01*
G01*
X116217550Y-70956400D01*
G75*
G02*
X116024600Y-70763450I0J192950D01*
G01*
G37*
G36*
G01*
X96110400Y-79287050D02*
X96110400Y-80097950D01*
G75*
G02*
X95917450Y-80290900I-192950J0D01*
G01*
X95531550Y-80290900D01*
G75*
G02*
X95338600Y-80097950I0J192950D01*
G01*
X95338600Y-79287050D01*
G75*
G02*
X95531550Y-79094100I192950J0D01*
G01*
X95917450Y-79094100D01*
G75*
G02*
X96110400Y-79287050I0J-192950D01*
G01*
G37*
G36*
G01*
X97985400Y-79287050D02*
X97985400Y-80097950D01*
G75*
G02*
X97792450Y-80290900I-192950J0D01*
G01*
X97406550Y-80290900D01*
G75*
G02*
X97213600Y-80097950I0J192950D01*
G01*
X97213600Y-79287050D01*
G75*
G02*
X97406550Y-79094100I192950J0D01*
G01*
X97792450Y-79094100D01*
G75*
G02*
X97985400Y-79287050I0J-192950D01*
G01*
G37*
G36*
G01*
X134226600Y-83559050D02*
X134226600Y-81540950D01*
G75*
G02*
X134440950Y-81326600I214350J0D01*
G01*
X135234050Y-81326600D01*
G75*
G02*
X135448400Y-81540950I0J-214350D01*
G01*
X135448400Y-83559050D01*
G75*
G02*
X135234050Y-83773400I-214350J0D01*
G01*
X134440950Y-83773400D01*
G75*
G02*
X134226600Y-83559050I0J214350D01*
G01*
G37*
G36*
G01*
X131251600Y-83559050D02*
X131251600Y-81540950D01*
G75*
G02*
X131465950Y-81326600I214350J0D01*
G01*
X132259050Y-81326600D01*
G75*
G02*
X132473400Y-81540950I0J-214350D01*
G01*
X132473400Y-83559050D01*
G75*
G02*
X132259050Y-83773400I-214350J0D01*
G01*
X131465950Y-83773400D01*
G75*
G02*
X131251600Y-83559050I0J214350D01*
G01*
G37*
D15*
X149860000Y-116840000D03*
X146860000Y-116840000D03*
D16*
X78740000Y-71350000D03*
X78740000Y-68350000D03*
X83820000Y-71350000D03*
X83820000Y-68350000D03*
X110617000Y-124055000D03*
X110617000Y-121055000D03*
X88900000Y-71350000D03*
X88900000Y-68350000D03*
X73406000Y-163830000D03*
X73406000Y-160830000D03*
X73660000Y-71350000D03*
X73660000Y-68350000D03*
D17*
X132120000Y-77470000D03*
X137120000Y-77470000D03*
D15*
X149860000Y-127000000D03*
X146860000Y-127000000D03*
D16*
X68580000Y-71350000D03*
X68580000Y-68350000D03*
G36*
G01*
X142500950Y-71579100D02*
X144519050Y-71579100D01*
G75*
G02*
X144733400Y-71793450I0J-214350D01*
G01*
X144733400Y-72586550D01*
G75*
G02*
X144519050Y-72800900I-214350J0D01*
G01*
X142500950Y-72800900D01*
G75*
G02*
X142286600Y-72586550I0J214350D01*
G01*
X142286600Y-71793450D01*
G75*
G02*
X142500950Y-71579100I214350J0D01*
G01*
G37*
G36*
G01*
X142500950Y-68604100D02*
X144519050Y-68604100D01*
G75*
G02*
X144733400Y-68818450I0J-214350D01*
G01*
X144733400Y-69611550D01*
G75*
G02*
X144519050Y-69825900I-214350J0D01*
G01*
X142500950Y-69825900D01*
G75*
G02*
X142286600Y-69611550I0J214350D01*
G01*
X142286600Y-68818450D01*
G75*
G02*
X142500950Y-68604100I214350J0D01*
G01*
G37*
G36*
G01*
X139439050Y-69825900D02*
X137420950Y-69825900D01*
G75*
G02*
X137206600Y-69611550I0J214350D01*
G01*
X137206600Y-68818450D01*
G75*
G02*
X137420950Y-68604100I214350J0D01*
G01*
X139439050Y-68604100D01*
G75*
G02*
X139653400Y-68818450I0J-214350D01*
G01*
X139653400Y-69611550D01*
G75*
G02*
X139439050Y-69825900I-214350J0D01*
G01*
G37*
G36*
G01*
X139439050Y-72800900D02*
X137420950Y-72800900D01*
G75*
G02*
X137206600Y-72586550I0J214350D01*
G01*
X137206600Y-71793450D01*
G75*
G02*
X137420950Y-71579100I214350J0D01*
G01*
X139439050Y-71579100D01*
G75*
G02*
X139653400Y-71793450I0J-214350D01*
G01*
X139653400Y-72586550D01*
G75*
G02*
X139439050Y-72800900I-214350J0D01*
G01*
G37*
G36*
G01*
X128821600Y-82485375D02*
X128821600Y-81700225D01*
G75*
G02*
X129027425Y-81494400I205825J0D01*
G01*
X129562575Y-81494400D01*
G75*
G02*
X129768400Y-81700225I0J-205825D01*
G01*
X129768400Y-82485375D01*
G75*
G02*
X129562575Y-82691200I-205825J0D01*
G01*
X129027425Y-82691200D01*
G75*
G02*
X128821600Y-82485375I0J205825D01*
G01*
G37*
G36*
G01*
X126771600Y-82485375D02*
X126771600Y-81700225D01*
G75*
G02*
X126977425Y-81494400I205825J0D01*
G01*
X127512575Y-81494400D01*
G75*
G02*
X127718400Y-81700225I0J-205825D01*
G01*
X127718400Y-82485375D01*
G75*
G02*
X127512575Y-82691200I-205825J0D01*
G01*
X126977425Y-82691200D01*
G75*
G02*
X126771600Y-82485375I0J205825D01*
G01*
G37*
G36*
G01*
X141688400Y-78347425D02*
X141688400Y-79132575D01*
G75*
G02*
X141482575Y-79338400I-205825J0D01*
G01*
X140947425Y-79338400D01*
G75*
G02*
X140741600Y-79132575I0J205825D01*
G01*
X140741600Y-78347425D01*
G75*
G02*
X140947425Y-78141600I205825J0D01*
G01*
X141482575Y-78141600D01*
G75*
G02*
X141688400Y-78347425I0J-205825D01*
G01*
G37*
G36*
G01*
X143738400Y-78347425D02*
X143738400Y-79132575D01*
G75*
G02*
X143532575Y-79338400I-205825J0D01*
G01*
X142997425Y-79338400D01*
G75*
G02*
X142791600Y-79132575I0J205825D01*
G01*
X142791600Y-78347425D01*
G75*
G02*
X142997425Y-78141600I205825J0D01*
G01*
X143532575Y-78141600D01*
G75*
G02*
X143738400Y-78347425I0J-205825D01*
G01*
G37*
G36*
G01*
X145062600Y-98258950D02*
X145062600Y-97448050D01*
G75*
G02*
X145255550Y-97255100I192950J0D01*
G01*
X145641450Y-97255100D01*
G75*
G02*
X145834400Y-97448050I0J-192950D01*
G01*
X145834400Y-98258950D01*
G75*
G02*
X145641450Y-98451900I-192950J0D01*
G01*
X145255550Y-98451900D01*
G75*
G02*
X145062600Y-98258950I0J192950D01*
G01*
G37*
G36*
G01*
X143187600Y-98258950D02*
X143187600Y-97448050D01*
G75*
G02*
X143380550Y-97255100I192950J0D01*
G01*
X143766450Y-97255100D01*
G75*
G02*
X143959400Y-97448050I0J-192950D01*
G01*
X143959400Y-98258950D01*
G75*
G02*
X143766450Y-98451900I-192950J0D01*
G01*
X143380550Y-98451900D01*
G75*
G02*
X143187600Y-98258950I0J192950D01*
G01*
G37*
D18*
X73406000Y-128117600D03*
X74676000Y-128117600D03*
X75946000Y-128117600D03*
X77216000Y-128117600D03*
X77216000Y-120802400D03*
X75946000Y-120802400D03*
X74676000Y-120802400D03*
X73406000Y-120802400D03*
G36*
G01*
X144105000Y-143245000D02*
X144105000Y-142575000D01*
G75*
G02*
X144255000Y-142425000I150000J0D01*
G01*
X144555000Y-142425000D01*
G75*
G02*
X144705000Y-142575000I0J-150000D01*
G01*
X144705000Y-143245000D01*
G75*
G02*
X144555000Y-143395000I-150000J0D01*
G01*
X144255000Y-143395000D01*
G75*
G02*
X144105000Y-143245000I0J150000D01*
G01*
G37*
G36*
G01*
X144105000Y-144445000D02*
X144105000Y-143775000D01*
G75*
G02*
X144255000Y-143625000I150000J0D01*
G01*
X144555000Y-143625000D01*
G75*
G02*
X144705000Y-143775000I0J-150000D01*
G01*
X144705000Y-144445000D01*
G75*
G02*
X144555000Y-144595000I-150000J0D01*
G01*
X144255000Y-144595000D01*
G75*
G02*
X144105000Y-144445000I0J150000D01*
G01*
G37*
G36*
G01*
X144855000Y-143245000D02*
X144855000Y-142575000D01*
G75*
G02*
X145005000Y-142425000I150000J0D01*
G01*
X145305000Y-142425000D01*
G75*
G02*
X145455000Y-142575000I0J-150000D01*
G01*
X145455000Y-143245000D01*
G75*
G02*
X145305000Y-143395000I-150000J0D01*
G01*
X145005000Y-143395000D01*
G75*
G02*
X144855000Y-143245000I0J150000D01*
G01*
G37*
G36*
G01*
X144855000Y-144445000D02*
X144855000Y-143775000D01*
G75*
G02*
X145005000Y-143625000I150000J0D01*
G01*
X145305000Y-143625000D01*
G75*
G02*
X145455000Y-143775000I0J-150000D01*
G01*
X145455000Y-144445000D01*
G75*
G02*
X145305000Y-144595000I-150000J0D01*
G01*
X145005000Y-144595000D01*
G75*
G02*
X144855000Y-144445000I0J150000D01*
G01*
G37*
G36*
G01*
X143031600Y-142559200D02*
X143031600Y-142460800D01*
G75*
G02*
X143080800Y-142411600I49200J0D01*
G01*
X143579200Y-142411600D01*
G75*
G02*
X143628400Y-142460800I0J-49200D01*
G01*
X143628400Y-142559200D01*
G75*
G02*
X143579200Y-142608400I-49200J0D01*
G01*
X143080800Y-142608400D01*
G75*
G02*
X143031600Y-142559200I0J49200D01*
G01*
G37*
G36*
G01*
X143031600Y-143559200D02*
X143031600Y-143460800D01*
G75*
G02*
X143080800Y-143411600I49200J0D01*
G01*
X143579200Y-143411600D01*
G75*
G02*
X143628400Y-143460800I0J-49200D01*
G01*
X143628400Y-143559200D01*
G75*
G02*
X143579200Y-143608400I-49200J0D01*
G01*
X143080800Y-143608400D01*
G75*
G02*
X143031600Y-143559200I0J49200D01*
G01*
G37*
G36*
G01*
X143031600Y-144559200D02*
X143031600Y-144460800D01*
G75*
G02*
X143080800Y-144411600I49200J0D01*
G01*
X143579200Y-144411600D01*
G75*
G02*
X143628400Y-144460800I0J-49200D01*
G01*
X143628400Y-144559200D01*
G75*
G02*
X143579200Y-144608400I-49200J0D01*
G01*
X143080800Y-144608400D01*
G75*
G02*
X143031600Y-144559200I0J49200D01*
G01*
G37*
G36*
G01*
X145931600Y-144559200D02*
X145931600Y-144460800D01*
G75*
G02*
X145980800Y-144411600I49200J0D01*
G01*
X146479200Y-144411600D01*
G75*
G02*
X146528400Y-144460800I0J-49200D01*
G01*
X146528400Y-144559200D01*
G75*
G02*
X146479200Y-144608400I-49200J0D01*
G01*
X145980800Y-144608400D01*
G75*
G02*
X145931600Y-144559200I0J49200D01*
G01*
G37*
G36*
G01*
X145931600Y-143559200D02*
X145931600Y-143460800D01*
G75*
G02*
X145980800Y-143411600I49200J0D01*
G01*
X146479200Y-143411600D01*
G75*
G02*
X146528400Y-143460800I0J-49200D01*
G01*
X146528400Y-143559200D01*
G75*
G02*
X146479200Y-143608400I-49200J0D01*
G01*
X145980800Y-143608400D01*
G75*
G02*
X145931600Y-143559200I0J49200D01*
G01*
G37*
G36*
G01*
X145931600Y-142559200D02*
X145931600Y-142460800D01*
G75*
G02*
X145980800Y-142411600I49200J0D01*
G01*
X146479200Y-142411600D01*
G75*
G02*
X146528400Y-142460800I0J-49200D01*
G01*
X146528400Y-142559200D01*
G75*
G02*
X146479200Y-142608400I-49200J0D01*
G01*
X145980800Y-142608400D01*
G75*
G02*
X145931600Y-142559200I0J49200D01*
G01*
G37*
G36*
G01*
X118671400Y-67158550D02*
X118671400Y-67969450D01*
G75*
G02*
X118478450Y-68162400I-192950J0D01*
G01*
X118092550Y-68162400D01*
G75*
G02*
X117899600Y-67969450I0J192950D01*
G01*
X117899600Y-67158550D01*
G75*
G02*
X118092550Y-66965600I192950J0D01*
G01*
X118478450Y-66965600D01*
G75*
G02*
X118671400Y-67158550I0J-192950D01*
G01*
G37*
G36*
G01*
X116796400Y-67158550D02*
X116796400Y-67969450D01*
G75*
G02*
X116603450Y-68162400I-192950J0D01*
G01*
X116217550Y-68162400D01*
G75*
G02*
X116024600Y-67969450I0J192950D01*
G01*
X116024600Y-67158550D01*
G75*
G02*
X116217550Y-66965600I192950J0D01*
G01*
X116603450Y-66965600D01*
G75*
G02*
X116796400Y-67158550I0J-192950D01*
G01*
G37*
G36*
G01*
X113087575Y-74584400D02*
X112302425Y-74584400D01*
G75*
G02*
X112096600Y-74378575I0J205825D01*
G01*
X112096600Y-73843425D01*
G75*
G02*
X112302425Y-73637600I205825J0D01*
G01*
X113087575Y-73637600D01*
G75*
G02*
X113293400Y-73843425I0J-205825D01*
G01*
X113293400Y-74378575D01*
G75*
G02*
X113087575Y-74584400I-205825J0D01*
G01*
G37*
G36*
G01*
X113087575Y-72534400D02*
X112302425Y-72534400D01*
G75*
G02*
X112096600Y-72328575I0J205825D01*
G01*
X112096600Y-71793425D01*
G75*
G02*
X112302425Y-71587600I205825J0D01*
G01*
X113087575Y-71587600D01*
G75*
G02*
X113293400Y-71793425I0J-205825D01*
G01*
X113293400Y-72328575D01*
G75*
G02*
X113087575Y-72534400I-205825J0D01*
G01*
G37*
G36*
G01*
X85713425Y-85641600D02*
X86498575Y-85641600D01*
G75*
G02*
X86704400Y-85847425I0J-205825D01*
G01*
X86704400Y-86382575D01*
G75*
G02*
X86498575Y-86588400I-205825J0D01*
G01*
X85713425Y-86588400D01*
G75*
G02*
X85507600Y-86382575I0J205825D01*
G01*
X85507600Y-85847425D01*
G75*
G02*
X85713425Y-85641600I205825J0D01*
G01*
G37*
G36*
G01*
X85713425Y-83591600D02*
X86498575Y-83591600D01*
G75*
G02*
X86704400Y-83797425I0J-205825D01*
G01*
X86704400Y-84332575D01*
G75*
G02*
X86498575Y-84538400I-205825J0D01*
G01*
X85713425Y-84538400D01*
G75*
G02*
X85507600Y-84332575I0J205825D01*
G01*
X85507600Y-83797425D01*
G75*
G02*
X85713425Y-83591600I205825J0D01*
G01*
G37*
G36*
G01*
X147091600Y-82942575D02*
X147091600Y-82157425D01*
G75*
G02*
X147297425Y-81951600I205825J0D01*
G01*
X147832575Y-81951600D01*
G75*
G02*
X148038400Y-82157425I0J-205825D01*
G01*
X148038400Y-82942575D01*
G75*
G02*
X147832575Y-83148400I-205825J0D01*
G01*
X147297425Y-83148400D01*
G75*
G02*
X147091600Y-82942575I0J205825D01*
G01*
G37*
G36*
G01*
X149141600Y-82942575D02*
X149141600Y-82157425D01*
G75*
G02*
X149347425Y-81951600I205825J0D01*
G01*
X149882575Y-81951600D01*
G75*
G02*
X150088400Y-82157425I0J-205825D01*
G01*
X150088400Y-82942575D01*
G75*
G02*
X149882575Y-83148400I-205825J0D01*
G01*
X149347425Y-83148400D01*
G75*
G02*
X149141600Y-82942575I0J205825D01*
G01*
G37*
X73406000Y-116052600D03*
X74676000Y-116052600D03*
X75946000Y-116052600D03*
X77216000Y-116052600D03*
X77216000Y-108737400D03*
X75946000Y-108737400D03*
X74676000Y-108737400D03*
X73406000Y-108737400D03*
D19*
X83575000Y-86379400D03*
X83575000Y-84099400D03*
X83575000Y-81819400D03*
D20*
X75600000Y-82574400D03*
X78950000Y-85624400D03*
X75600000Y-85624400D03*
X78950000Y-82574400D03*
G36*
G01*
X108511400Y-80874550D02*
X108511400Y-81685450D01*
G75*
G02*
X108318450Y-81878400I-192950J0D01*
G01*
X107932550Y-81878400D01*
G75*
G02*
X107739600Y-81685450I0J192950D01*
G01*
X107739600Y-80874550D01*
G75*
G02*
X107932550Y-80681600I192950J0D01*
G01*
X108318450Y-80681600D01*
G75*
G02*
X108511400Y-80874550I0J-192950D01*
G01*
G37*
G36*
G01*
X106636400Y-80874550D02*
X106636400Y-81685450D01*
G75*
G02*
X106443450Y-81878400I-192950J0D01*
G01*
X106057550Y-81878400D01*
G75*
G02*
X105864600Y-81685450I0J192950D01*
G01*
X105864600Y-80874550D01*
G75*
G02*
X106057550Y-80681600I192950J0D01*
G01*
X106443450Y-80681600D01*
G75*
G02*
X106636400Y-80874550I0J-192950D01*
G01*
G37*
G36*
G01*
X143124600Y-81685450D02*
X143124600Y-80874550D01*
G75*
G02*
X143317550Y-80681600I192950J0D01*
G01*
X143703450Y-80681600D01*
G75*
G02*
X143896400Y-80874550I0J-192950D01*
G01*
X143896400Y-81685450D01*
G75*
G02*
X143703450Y-81878400I-192950J0D01*
G01*
X143317550Y-81878400D01*
G75*
G02*
X143124600Y-81685450I0J192950D01*
G01*
G37*
G36*
G01*
X144999600Y-81685450D02*
X144999600Y-80874550D01*
G75*
G02*
X145192550Y-80681600I192950J0D01*
G01*
X145578450Y-80681600D01*
G75*
G02*
X145771400Y-80874550I0J-192950D01*
G01*
X145771400Y-81685450D01*
G75*
G02*
X145578450Y-81878400I-192950J0D01*
G01*
X145192550Y-81878400D01*
G75*
G02*
X144999600Y-81685450I0J192950D01*
G01*
G37*
G36*
G01*
X149141600Y-86765450D02*
X149141600Y-85954550D01*
G75*
G02*
X149334550Y-85761600I192950J0D01*
G01*
X149720450Y-85761600D01*
G75*
G02*
X149913400Y-85954550I0J-192950D01*
G01*
X149913400Y-86765450D01*
G75*
G02*
X149720450Y-86958400I-192950J0D01*
G01*
X149334550Y-86958400D01*
G75*
G02*
X149141600Y-86765450I0J192950D01*
G01*
G37*
G36*
G01*
X147266600Y-86765450D02*
X147266600Y-85954550D01*
G75*
G02*
X147459550Y-85761600I192950J0D01*
G01*
X147845450Y-85761600D01*
G75*
G02*
X148038400Y-85954550I0J-192950D01*
G01*
X148038400Y-86765450D01*
G75*
G02*
X147845450Y-86958400I-192950J0D01*
G01*
X147459550Y-86958400D01*
G75*
G02*
X147266600Y-86765450I0J192950D01*
G01*
G37*
G36*
G01*
X147266600Y-96925450D02*
X147266600Y-96114550D01*
G75*
G02*
X147459550Y-95921600I192950J0D01*
G01*
X147845450Y-95921600D01*
G75*
G02*
X148038400Y-96114550I0J-192950D01*
G01*
X148038400Y-96925450D01*
G75*
G02*
X147845450Y-97118400I-192950J0D01*
G01*
X147459550Y-97118400D01*
G75*
G02*
X147266600Y-96925450I0J192950D01*
G01*
G37*
G36*
G01*
X149141600Y-96925450D02*
X149141600Y-96114550D01*
G75*
G02*
X149334550Y-95921600I192950J0D01*
G01*
X149720450Y-95921600D01*
G75*
G02*
X149913400Y-96114550I0J-192950D01*
G01*
X149913400Y-96925450D01*
G75*
G02*
X149720450Y-97118400I-192950J0D01*
G01*
X149334550Y-97118400D01*
G75*
G02*
X149141600Y-96925450I0J192950D01*
G01*
G37*
G36*
G01*
X99551600Y-108905450D02*
X99551600Y-108094550D01*
G75*
G02*
X99744550Y-107901600I192950J0D01*
G01*
X100130450Y-107901600D01*
G75*
G02*
X100323400Y-108094550I0J-192950D01*
G01*
X100323400Y-108905450D01*
G75*
G02*
X100130450Y-109098400I-192950J0D01*
G01*
X99744550Y-109098400D01*
G75*
G02*
X99551600Y-108905450I0J192950D01*
G01*
G37*
G36*
G01*
X97676600Y-108905450D02*
X97676600Y-108094550D01*
G75*
G02*
X97869550Y-107901600I192950J0D01*
G01*
X98255450Y-107901600D01*
G75*
G02*
X98448400Y-108094550I0J-192950D01*
G01*
X98448400Y-108905450D01*
G75*
G02*
X98255450Y-109098400I-192950J0D01*
G01*
X97869550Y-109098400D01*
G75*
G02*
X97676600Y-108905450I0J192950D01*
G01*
G37*
G36*
G01*
X140662600Y-120801450D02*
X140662600Y-119990550D01*
G75*
G02*
X140855550Y-119797600I192950J0D01*
G01*
X141241450Y-119797600D01*
G75*
G02*
X141434400Y-119990550I0J-192950D01*
G01*
X141434400Y-120801450D01*
G75*
G02*
X141241450Y-120994400I-192950J0D01*
G01*
X140855550Y-120994400D01*
G75*
G02*
X140662600Y-120801450I0J192950D01*
G01*
G37*
G36*
G01*
X142537600Y-120801450D02*
X142537600Y-119990550D01*
G75*
G02*
X142730550Y-119797600I192950J0D01*
G01*
X143116450Y-119797600D01*
G75*
G02*
X143309400Y-119990550I0J-192950D01*
G01*
X143309400Y-120801450D01*
G75*
G02*
X143116450Y-120994400I-192950J0D01*
G01*
X142730550Y-120994400D01*
G75*
G02*
X142537600Y-120801450I0J192950D01*
G01*
G37*
G36*
G01*
X137711600Y-140105450D02*
X137711600Y-139294550D01*
G75*
G02*
X137904550Y-139101600I192950J0D01*
G01*
X138290450Y-139101600D01*
G75*
G02*
X138483400Y-139294550I0J-192950D01*
G01*
X138483400Y-140105450D01*
G75*
G02*
X138290450Y-140298400I-192950J0D01*
G01*
X137904550Y-140298400D01*
G75*
G02*
X137711600Y-140105450I0J192950D01*
G01*
G37*
G36*
G01*
X135836600Y-140105450D02*
X135836600Y-139294550D01*
G75*
G02*
X136029550Y-139101600I192950J0D01*
G01*
X136415450Y-139101600D01*
G75*
G02*
X136608400Y-139294550I0J-192950D01*
G01*
X136608400Y-140105450D01*
G75*
G02*
X136415450Y-140298400I-192950J0D01*
G01*
X136029550Y-140298400D01*
G75*
G02*
X135836600Y-140105450I0J192950D01*
G01*
G37*
G36*
G01*
X146934600Y-148995450D02*
X146934600Y-148184550D01*
G75*
G02*
X147127550Y-147991600I192950J0D01*
G01*
X147513450Y-147991600D01*
G75*
G02*
X147706400Y-148184550I0J-192950D01*
G01*
X147706400Y-148995450D01*
G75*
G02*
X147513450Y-149188400I-192950J0D01*
G01*
X147127550Y-149188400D01*
G75*
G02*
X146934600Y-148995450I0J192950D01*
G01*
G37*
G36*
G01*
X148809600Y-148995450D02*
X148809600Y-148184550D01*
G75*
G02*
X149002550Y-147991600I192950J0D01*
G01*
X149388450Y-147991600D01*
G75*
G02*
X149581400Y-148184550I0J-192950D01*
G01*
X149581400Y-148995450D01*
G75*
G02*
X149388450Y-149188400I-192950J0D01*
G01*
X149002550Y-149188400D01*
G75*
G02*
X148809600Y-148995450I0J192950D01*
G01*
G37*
G36*
G01*
X87605550Y-161841600D02*
X88416450Y-161841600D01*
G75*
G02*
X88609400Y-162034550I0J-192950D01*
G01*
X88609400Y-162420450D01*
G75*
G02*
X88416450Y-162613400I-192950J0D01*
G01*
X87605550Y-162613400D01*
G75*
G02*
X87412600Y-162420450I0J192950D01*
G01*
X87412600Y-162034550D01*
G75*
G02*
X87605550Y-161841600I192950J0D01*
G01*
G37*
G36*
G01*
X87605550Y-159966600D02*
X88416450Y-159966600D01*
G75*
G02*
X88609400Y-160159550I0J-192950D01*
G01*
X88609400Y-160545450D01*
G75*
G02*
X88416450Y-160738400I-192950J0D01*
G01*
X87605550Y-160738400D01*
G75*
G02*
X87412600Y-160545450I0J192950D01*
G01*
X87412600Y-160159550D01*
G75*
G02*
X87605550Y-159966600I192950J0D01*
G01*
G37*
G36*
G01*
X147266600Y-90575450D02*
X147266600Y-89764550D01*
G75*
G02*
X147459550Y-89571600I192950J0D01*
G01*
X147845450Y-89571600D01*
G75*
G02*
X148038400Y-89764550I0J-192950D01*
G01*
X148038400Y-90575450D01*
G75*
G02*
X147845450Y-90768400I-192950J0D01*
G01*
X147459550Y-90768400D01*
G75*
G02*
X147266600Y-90575450I0J192950D01*
G01*
G37*
G36*
G01*
X149141600Y-90575450D02*
X149141600Y-89764550D01*
G75*
G02*
X149334550Y-89571600I192950J0D01*
G01*
X149720450Y-89571600D01*
G75*
G02*
X149913400Y-89764550I0J-192950D01*
G01*
X149913400Y-90575450D01*
G75*
G02*
X149720450Y-90768400I-192950J0D01*
G01*
X149334550Y-90768400D01*
G75*
G02*
X149141600Y-90575450I0J192950D01*
G01*
G37*
G36*
G01*
X137614600Y-136295450D02*
X137614600Y-135484550D01*
G75*
G02*
X137807550Y-135291600I192950J0D01*
G01*
X138193450Y-135291600D01*
G75*
G02*
X138386400Y-135484550I0J-192950D01*
G01*
X138386400Y-136295450D01*
G75*
G02*
X138193450Y-136488400I-192950J0D01*
G01*
X137807550Y-136488400D01*
G75*
G02*
X137614600Y-136295450I0J192950D01*
G01*
G37*
G36*
G01*
X139489600Y-136295450D02*
X139489600Y-135484550D01*
G75*
G02*
X139682550Y-135291600I192950J0D01*
G01*
X140068450Y-135291600D01*
G75*
G02*
X140261400Y-135484550I0J-192950D01*
G01*
X140261400Y-136295450D01*
G75*
G02*
X140068450Y-136488400I-192950J0D01*
G01*
X139682550Y-136488400D01*
G75*
G02*
X139489600Y-136295450I0J192950D01*
G01*
G37*
G36*
G01*
X70509450Y-110573400D02*
X69698550Y-110573400D01*
G75*
G02*
X69505600Y-110380450I0J192950D01*
G01*
X69505600Y-109994550D01*
G75*
G02*
X69698550Y-109801600I192950J0D01*
G01*
X70509450Y-109801600D01*
G75*
G02*
X70702400Y-109994550I0J-192950D01*
G01*
X70702400Y-110380450D01*
G75*
G02*
X70509450Y-110573400I-192950J0D01*
G01*
G37*
G36*
G01*
X70509450Y-112448400D02*
X69698550Y-112448400D01*
G75*
G02*
X69505600Y-112255450I0J192950D01*
G01*
X69505600Y-111869550D01*
G75*
G02*
X69698550Y-111676600I192950J0D01*
G01*
X70509450Y-111676600D01*
G75*
G02*
X70702400Y-111869550I0J-192950D01*
G01*
X70702400Y-112255450D01*
G75*
G02*
X70509450Y-112448400I-192950J0D01*
G01*
G37*
G36*
G01*
X70509450Y-125353400D02*
X69698550Y-125353400D01*
G75*
G02*
X69505600Y-125160450I0J192950D01*
G01*
X69505600Y-124774550D01*
G75*
G02*
X69698550Y-124581600I192950J0D01*
G01*
X70509450Y-124581600D01*
G75*
G02*
X70702400Y-124774550I0J-192950D01*
G01*
X70702400Y-125160450D01*
G75*
G02*
X70509450Y-125353400I-192950J0D01*
G01*
G37*
G36*
G01*
X70509450Y-123478400D02*
X69698550Y-123478400D01*
G75*
G02*
X69505600Y-123285450I0J192950D01*
G01*
X69505600Y-122899550D01*
G75*
G02*
X69698550Y-122706600I192950J0D01*
G01*
X70509450Y-122706600D01*
G75*
G02*
X70702400Y-122899550I0J-192950D01*
G01*
X70702400Y-123285450D01*
G75*
G02*
X70509450Y-123478400I-192950J0D01*
G01*
G37*
G36*
G01*
X90086600Y-93750450D02*
X90086600Y-92939550D01*
G75*
G02*
X90279550Y-92746600I192950J0D01*
G01*
X90665450Y-92746600D01*
G75*
G02*
X90858400Y-92939550I0J-192950D01*
G01*
X90858400Y-93750450D01*
G75*
G02*
X90665450Y-93943400I-192950J0D01*
G01*
X90279550Y-93943400D01*
G75*
G02*
X90086600Y-93750450I0J192950D01*
G01*
G37*
G36*
G01*
X88211600Y-93750450D02*
X88211600Y-92939550D01*
G75*
G02*
X88404550Y-92746600I192950J0D01*
G01*
X88790450Y-92746600D01*
G75*
G02*
X88983400Y-92939550I0J-192950D01*
G01*
X88983400Y-93750450D01*
G75*
G02*
X88790450Y-93943400I-192950J0D01*
G01*
X88404550Y-93943400D01*
G75*
G02*
X88211600Y-93750450I0J192950D01*
G01*
G37*
G36*
G01*
X89891550Y-160474600D02*
X90702450Y-160474600D01*
G75*
G02*
X90895400Y-160667550I0J-192950D01*
G01*
X90895400Y-161053450D01*
G75*
G02*
X90702450Y-161246400I-192950J0D01*
G01*
X89891550Y-161246400D01*
G75*
G02*
X89698600Y-161053450I0J192950D01*
G01*
X89698600Y-160667550D01*
G75*
G02*
X89891550Y-160474600I192950J0D01*
G01*
G37*
G36*
G01*
X89891550Y-162349600D02*
X90702450Y-162349600D01*
G75*
G02*
X90895400Y-162542550I0J-192950D01*
G01*
X90895400Y-162928450D01*
G75*
G02*
X90702450Y-163121400I-192950J0D01*
G01*
X89891550Y-163121400D01*
G75*
G02*
X89698600Y-162928450I0J192950D01*
G01*
X89698600Y-162542550D01*
G75*
G02*
X89891550Y-162349600I192950J0D01*
G01*
G37*
G36*
G01*
X70890450Y-79155900D02*
X70079550Y-79155900D01*
G75*
G02*
X69886600Y-78962950I0J192950D01*
G01*
X69886600Y-78577050D01*
G75*
G02*
X70079550Y-78384100I192950J0D01*
G01*
X70890450Y-78384100D01*
G75*
G02*
X71083400Y-78577050I0J-192950D01*
G01*
X71083400Y-78962950D01*
G75*
G02*
X70890450Y-79155900I-192950J0D01*
G01*
G37*
G36*
G01*
X70890450Y-81030900D02*
X70079550Y-81030900D01*
G75*
G02*
X69886600Y-80837950I0J192950D01*
G01*
X69886600Y-80452050D01*
G75*
G02*
X70079550Y-80259100I192950J0D01*
G01*
X70890450Y-80259100D01*
G75*
G02*
X71083400Y-80452050I0J-192950D01*
G01*
X71083400Y-80837950D01*
G75*
G02*
X70890450Y-81030900I-192950J0D01*
G01*
G37*
G36*
G01*
X110612100Y-86511450D02*
X110612100Y-85700550D01*
G75*
G02*
X110805050Y-85507600I192950J0D01*
G01*
X111190950Y-85507600D01*
G75*
G02*
X111383900Y-85700550I0J-192950D01*
G01*
X111383900Y-86511450D01*
G75*
G02*
X111190950Y-86704400I-192950J0D01*
G01*
X110805050Y-86704400D01*
G75*
G02*
X110612100Y-86511450I0J192950D01*
G01*
G37*
G36*
G01*
X112487100Y-86511450D02*
X112487100Y-85700550D01*
G75*
G02*
X112680050Y-85507600I192950J0D01*
G01*
X113065950Y-85507600D01*
G75*
G02*
X113258900Y-85700550I0J-192950D01*
G01*
X113258900Y-86511450D01*
G75*
G02*
X113065950Y-86704400I-192950J0D01*
G01*
X112680050Y-86704400D01*
G75*
G02*
X112487100Y-86511450I0J192950D01*
G01*
G37*
G36*
G01*
X70509450Y-115018400D02*
X69698550Y-115018400D01*
G75*
G02*
X69505600Y-114825450I0J192950D01*
G01*
X69505600Y-114439550D01*
G75*
G02*
X69698550Y-114246600I192950J0D01*
G01*
X70509450Y-114246600D01*
G75*
G02*
X70702400Y-114439550I0J-192950D01*
G01*
X70702400Y-114825450D01*
G75*
G02*
X70509450Y-115018400I-192950J0D01*
G01*
G37*
G36*
G01*
X70509450Y-116893400D02*
X69698550Y-116893400D01*
G75*
G02*
X69505600Y-116700450I0J192950D01*
G01*
X69505600Y-116314550D01*
G75*
G02*
X69698550Y-116121600I192950J0D01*
G01*
X70509450Y-116121600D01*
G75*
G02*
X70702400Y-116314550I0J-192950D01*
G01*
X70702400Y-116700450D01*
G75*
G02*
X70509450Y-116893400I-192950J0D01*
G01*
G37*
G36*
G01*
X66875600Y-119150450D02*
X66875600Y-118339550D01*
G75*
G02*
X67068550Y-118146600I192950J0D01*
G01*
X67454450Y-118146600D01*
G75*
G02*
X67647400Y-118339550I0J-192950D01*
G01*
X67647400Y-119150450D01*
G75*
G02*
X67454450Y-119343400I-192950J0D01*
G01*
X67068550Y-119343400D01*
G75*
G02*
X66875600Y-119150450I0J192950D01*
G01*
G37*
G36*
G01*
X68750600Y-119150450D02*
X68750600Y-118339550D01*
G75*
G02*
X68943550Y-118146600I192950J0D01*
G01*
X69329450Y-118146600D01*
G75*
G02*
X69522400Y-118339550I0J-192950D01*
G01*
X69522400Y-119150450D01*
G75*
G02*
X69329450Y-119343400I-192950J0D01*
G01*
X68943550Y-119343400D01*
G75*
G02*
X68750600Y-119150450I0J192950D01*
G01*
G37*
G36*
G01*
X80239550Y-73606600D02*
X81050450Y-73606600D01*
G75*
G02*
X81243400Y-73799550I0J-192950D01*
G01*
X81243400Y-74185450D01*
G75*
G02*
X81050450Y-74378400I-192950J0D01*
G01*
X80239550Y-74378400D01*
G75*
G02*
X80046600Y-74185450I0J192950D01*
G01*
X80046600Y-73799550D01*
G75*
G02*
X80239550Y-73606600I192950J0D01*
G01*
G37*
G36*
G01*
X80239550Y-75481600D02*
X81050450Y-75481600D01*
G75*
G02*
X81243400Y-75674550I0J-192950D01*
G01*
X81243400Y-76060450D01*
G75*
G02*
X81050450Y-76253400I-192950J0D01*
G01*
X80239550Y-76253400D01*
G75*
G02*
X80046600Y-76060450I0J192950D01*
G01*
X80046600Y-75674550D01*
G75*
G02*
X80239550Y-75481600I192950J0D01*
G01*
G37*
G36*
G01*
X75997750Y-75481600D02*
X76808650Y-75481600D01*
G75*
G02*
X77001600Y-75674550I0J-192950D01*
G01*
X77001600Y-76060450D01*
G75*
G02*
X76808650Y-76253400I-192950J0D01*
G01*
X75997750Y-76253400D01*
G75*
G02*
X75804800Y-76060450I0J192950D01*
G01*
X75804800Y-75674550D01*
G75*
G02*
X75997750Y-75481600I192950J0D01*
G01*
G37*
G36*
G01*
X75997750Y-73606600D02*
X76808650Y-73606600D01*
G75*
G02*
X77001600Y-73799550I0J-192950D01*
G01*
X77001600Y-74185450D01*
G75*
G02*
X76808650Y-74378400I-192950J0D01*
G01*
X75997750Y-74378400D01*
G75*
G02*
X75804800Y-74185450I0J192950D01*
G01*
X75804800Y-73799550D01*
G75*
G02*
X75997750Y-73606600I192950J0D01*
G01*
G37*
G36*
G01*
X71984550Y-73606600D02*
X72795450Y-73606600D01*
G75*
G02*
X72988400Y-73799550I0J-192950D01*
G01*
X72988400Y-74185450D01*
G75*
G02*
X72795450Y-74378400I-192950J0D01*
G01*
X71984550Y-74378400D01*
G75*
G02*
X71791600Y-74185450I0J192950D01*
G01*
X71791600Y-73799550D01*
G75*
G02*
X71984550Y-73606600I192950J0D01*
G01*
G37*
G36*
G01*
X71984550Y-75481600D02*
X72795450Y-75481600D01*
G75*
G02*
X72988400Y-75674550I0J-192950D01*
G01*
X72988400Y-76060450D01*
G75*
G02*
X72795450Y-76253400I-192950J0D01*
G01*
X71984550Y-76253400D01*
G75*
G02*
X71791600Y-76060450I0J192950D01*
G01*
X71791600Y-75674550D01*
G75*
G02*
X71984550Y-75481600I192950J0D01*
G01*
G37*
G36*
G01*
X142791600Y-127405450D02*
X142791600Y-126594550D01*
G75*
G02*
X142984550Y-126401600I192950J0D01*
G01*
X143370450Y-126401600D01*
G75*
G02*
X143563400Y-126594550I0J-192950D01*
G01*
X143563400Y-127405450D01*
G75*
G02*
X143370450Y-127598400I-192950J0D01*
G01*
X142984550Y-127598400D01*
G75*
G02*
X142791600Y-127405450I0J192950D01*
G01*
G37*
G36*
G01*
X140916600Y-127405450D02*
X140916600Y-126594550D01*
G75*
G02*
X141109550Y-126401600I192950J0D01*
G01*
X141495450Y-126401600D01*
G75*
G02*
X141688400Y-126594550I0J-192950D01*
G01*
X141688400Y-127405450D01*
G75*
G02*
X141495450Y-127598400I-192950J0D01*
G01*
X141109550Y-127598400D01*
G75*
G02*
X140916600Y-127405450I0J192950D01*
G01*
G37*
G36*
G01*
X84328950Y-73606600D02*
X85139850Y-73606600D01*
G75*
G02*
X85332800Y-73799550I0J-192950D01*
G01*
X85332800Y-74185450D01*
G75*
G02*
X85139850Y-74378400I-192950J0D01*
G01*
X84328950Y-74378400D01*
G75*
G02*
X84136000Y-74185450I0J192950D01*
G01*
X84136000Y-73799550D01*
G75*
G02*
X84328950Y-73606600I192950J0D01*
G01*
G37*
G36*
G01*
X84328950Y-75481600D02*
X85139850Y-75481600D01*
G75*
G02*
X85332800Y-75674550I0J-192950D01*
G01*
X85332800Y-76060450D01*
G75*
G02*
X85139850Y-76253400I-192950J0D01*
G01*
X84328950Y-76253400D01*
G75*
G02*
X84136000Y-76060450I0J192950D01*
G01*
X84136000Y-75674550D01*
G75*
G02*
X84328950Y-75481600I192950J0D01*
G01*
G37*
G36*
G01*
X68174550Y-75481600D02*
X68985450Y-75481600D01*
G75*
G02*
X69178400Y-75674550I0J-192950D01*
G01*
X69178400Y-76060450D01*
G75*
G02*
X68985450Y-76253400I-192950J0D01*
G01*
X68174550Y-76253400D01*
G75*
G02*
X67981600Y-76060450I0J192950D01*
G01*
X67981600Y-75674550D01*
G75*
G02*
X68174550Y-75481600I192950J0D01*
G01*
G37*
G36*
G01*
X68174550Y-73606600D02*
X68985450Y-73606600D01*
G75*
G02*
X69178400Y-73799550I0J-192950D01*
G01*
X69178400Y-74185450D01*
G75*
G02*
X68985450Y-74378400I-192950J0D01*
G01*
X68174550Y-74378400D01*
G75*
G02*
X67981600Y-74185450I0J192950D01*
G01*
X67981600Y-73799550D01*
G75*
G02*
X68174550Y-73606600I192950J0D01*
G01*
G37*
D21*
X77790000Y-139450000D03*
X79060000Y-139450000D03*
X82860000Y-139450000D03*
X84130000Y-139450000D03*
X85400000Y-139450000D03*
X86670000Y-139450000D03*
X87940000Y-139450000D03*
X89210000Y-139450000D03*
X90480000Y-139450000D03*
X91750000Y-139450000D03*
X93020000Y-139450000D03*
X94290000Y-139450000D03*
X95560000Y-139450000D03*
X96830000Y-139450000D03*
X98100000Y-139450000D03*
D11*
X99650000Y-141010000D03*
X99650000Y-142280000D03*
X99650000Y-143550000D03*
X99650000Y-144820000D03*
X99650000Y-146090000D03*
X99650000Y-147360000D03*
X99650000Y-148630000D03*
X99650000Y-149900000D03*
X99650000Y-151170000D03*
X99650000Y-152440000D03*
X99650000Y-153710000D03*
X99650000Y-154980000D03*
D21*
X98100000Y-156550000D03*
X96830000Y-156550000D03*
X95560000Y-156550000D03*
X94290000Y-156550000D03*
X93020000Y-156550000D03*
X91750000Y-156550000D03*
X90480000Y-156550000D03*
X89210000Y-156550000D03*
X87940000Y-156550000D03*
X86670000Y-156550000D03*
X85400000Y-156550000D03*
X84130000Y-156550000D03*
X82860000Y-156550000D03*
X79060000Y-156550000D03*
X77790000Y-156550000D03*
G36*
G01*
X81450200Y-125178400D02*
X80601800Y-125178400D01*
G75*
G02*
X80402600Y-124979200I0J199200D01*
G01*
X80402600Y-124580800D01*
G75*
G02*
X80601800Y-124381600I199200J0D01*
G01*
X81450200Y-124381600D01*
G75*
G02*
X81649400Y-124580800I0J-199200D01*
G01*
X81649400Y-124979200D01*
G75*
G02*
X81450200Y-125178400I-199200J0D01*
G01*
G37*
G36*
G01*
X81450200Y-127078400D02*
X80601800Y-127078400D01*
G75*
G02*
X80402600Y-126879200I0J199200D01*
G01*
X80402600Y-126480800D01*
G75*
G02*
X80601800Y-126281600I199200J0D01*
G01*
X81450200Y-126281600D01*
G75*
G02*
X81649400Y-126480800I0J-199200D01*
G01*
X81649400Y-126879200D01*
G75*
G02*
X81450200Y-127078400I-199200J0D01*
G01*
G37*
G36*
G01*
X120674200Y-68323400D02*
X119825800Y-68323400D01*
G75*
G02*
X119626600Y-68124200I0J199200D01*
G01*
X119626600Y-67725800D01*
G75*
G02*
X119825800Y-67526600I199200J0D01*
G01*
X120674200Y-67526600D01*
G75*
G02*
X120873400Y-67725800I0J-199200D01*
G01*
X120873400Y-68124200D01*
G75*
G02*
X120674200Y-68323400I-199200J0D01*
G01*
G37*
G36*
G01*
X120674200Y-70223400D02*
X119825800Y-70223400D01*
G75*
G02*
X119626600Y-70024200I0J199200D01*
G01*
X119626600Y-69625800D01*
G75*
G02*
X119825800Y-69426600I199200J0D01*
G01*
X120674200Y-69426600D01*
G75*
G02*
X120873400Y-69625800I0J-199200D01*
G01*
X120873400Y-70024200D01*
G75*
G02*
X120674200Y-70223400I-199200J0D01*
G01*
G37*
G36*
G01*
X123741600Y-95674200D02*
X123741600Y-94825800D01*
G75*
G02*
X123940800Y-94626600I199200J0D01*
G01*
X124339200Y-94626600D01*
G75*
G02*
X124538400Y-94825800I0J-199200D01*
G01*
X124538400Y-95674200D01*
G75*
G02*
X124339200Y-95873400I-199200J0D01*
G01*
X123940800Y-95873400D01*
G75*
G02*
X123741600Y-95674200I0J199200D01*
G01*
G37*
G36*
G01*
X121841600Y-95674200D02*
X121841600Y-94825800D01*
G75*
G02*
X122040800Y-94626600I199200J0D01*
G01*
X122439200Y-94626600D01*
G75*
G02*
X122638400Y-94825800I0J-199200D01*
G01*
X122638400Y-95674200D01*
G75*
G02*
X122439200Y-95873400I-199200J0D01*
G01*
X122040800Y-95873400D01*
G75*
G02*
X121841600Y-95674200I0J199200D01*
G01*
G37*
D22*
X99980000Y-128817500D03*
X98480000Y-128817500D03*
X96980000Y-128817500D03*
X95480000Y-128817500D03*
X93980000Y-128817500D03*
X92480000Y-128817500D03*
X90980000Y-128817500D03*
X89480000Y-128817500D03*
X87980000Y-128817500D03*
X87980000Y-111201200D03*
X89480000Y-111201200D03*
X90980000Y-111201200D03*
X92480000Y-111201200D03*
X93980000Y-111201200D03*
X95480000Y-111201200D03*
X96980000Y-111201200D03*
X98480000Y-111201200D03*
X99999800Y-111201200D03*
D23*
X100600000Y-88910000D03*
X108220000Y-88910000D03*
G36*
G01*
X108451600Y-108982963D02*
X108451600Y-108187037D01*
G75*
G02*
X108652037Y-107986600I200437J0D01*
G01*
X109072963Y-107986600D01*
G75*
G02*
X109273400Y-108187037I0J-200437D01*
G01*
X109273400Y-108982963D01*
G75*
G02*
X109072963Y-109183400I-200437J0D01*
G01*
X108652037Y-109183400D01*
G75*
G02*
X108451600Y-108982963I0J200437D01*
G01*
G37*
G36*
G01*
X106626600Y-108982963D02*
X106626600Y-108187037D01*
G75*
G02*
X106827037Y-107986600I200437J0D01*
G01*
X107247963Y-107986600D01*
G75*
G02*
X107448400Y-108187037I0J-200437D01*
G01*
X107448400Y-108982963D01*
G75*
G02*
X107247963Y-109183400I-200437J0D01*
G01*
X106827037Y-109183400D01*
G75*
G02*
X106626600Y-108982963I0J200437D01*
G01*
G37*
G36*
G01*
X102477425Y-151436600D02*
X103262575Y-151436600D01*
G75*
G02*
X103468400Y-151642425I0J-205825D01*
G01*
X103468400Y-152177575D01*
G75*
G02*
X103262575Y-152383400I-205825J0D01*
G01*
X102477425Y-152383400D01*
G75*
G02*
X102271600Y-152177575I0J205825D01*
G01*
X102271600Y-151642425D01*
G75*
G02*
X102477425Y-151436600I205825J0D01*
G01*
G37*
G36*
G01*
X102477425Y-149386600D02*
X103262575Y-149386600D01*
G75*
G02*
X103468400Y-149592425I0J-205825D01*
G01*
X103468400Y-150127575D01*
G75*
G02*
X103262575Y-150333400I-205825J0D01*
G01*
X102477425Y-150333400D01*
G75*
G02*
X102271600Y-150127575I0J205825D01*
G01*
X102271600Y-149592425D01*
G75*
G02*
X102477425Y-149386600I205825J0D01*
G01*
G37*
G36*
G01*
X142337600Y-116729963D02*
X142337600Y-115934037D01*
G75*
G02*
X142538037Y-115733600I200437J0D01*
G01*
X142958963Y-115733600D01*
G75*
G02*
X143159400Y-115934037I0J-200437D01*
G01*
X143159400Y-116729963D01*
G75*
G02*
X142958963Y-116930400I-200437J0D01*
G01*
X142538037Y-116930400D01*
G75*
G02*
X142337600Y-116729963I0J200437D01*
G01*
G37*
G36*
G01*
X140512600Y-116729963D02*
X140512600Y-115934037D01*
G75*
G02*
X140713037Y-115733600I200437J0D01*
G01*
X141133963Y-115733600D01*
G75*
G02*
X141334400Y-115934037I0J-200437D01*
G01*
X141334400Y-116729963D01*
G75*
G02*
X141133963Y-116930400I-200437J0D01*
G01*
X140713037Y-116930400D01*
G75*
G02*
X140512600Y-116729963I0J200437D01*
G01*
G37*
G36*
G01*
X143841600Y-83512800D02*
X143841600Y-83314400D01*
G75*
G02*
X143940800Y-83215200I99200J0D01*
G01*
X145489200Y-83215200D01*
G75*
G02*
X145588400Y-83314400I0J-99200D01*
G01*
X145588400Y-83512800D01*
G75*
G02*
X145489200Y-83612000I-99200J0D01*
G01*
X143940800Y-83612000D01*
G75*
G02*
X143841600Y-83512800I0J99200D01*
G01*
G37*
G36*
G01*
X143841600Y-84782800D02*
X143841600Y-84584400D01*
G75*
G02*
X143940800Y-84485200I99200J0D01*
G01*
X145489200Y-84485200D01*
G75*
G02*
X145588400Y-84584400I0J-99200D01*
G01*
X145588400Y-84782800D01*
G75*
G02*
X145489200Y-84882000I-99200J0D01*
G01*
X143940800Y-84882000D01*
G75*
G02*
X143841600Y-84782800I0J99200D01*
G01*
G37*
G36*
G01*
X143841600Y-86052800D02*
X143841600Y-85854400D01*
G75*
G02*
X143940800Y-85755200I99200J0D01*
G01*
X145489200Y-85755200D01*
G75*
G02*
X145588400Y-85854400I0J-99200D01*
G01*
X145588400Y-86052800D01*
G75*
G02*
X145489200Y-86152000I-99200J0D01*
G01*
X143940800Y-86152000D01*
G75*
G02*
X143841600Y-86052800I0J99200D01*
G01*
G37*
G36*
G01*
X143841600Y-87322800D02*
X143841600Y-87124400D01*
G75*
G02*
X143940800Y-87025200I99200J0D01*
G01*
X145489200Y-87025200D01*
G75*
G02*
X145588400Y-87124400I0J-99200D01*
G01*
X145588400Y-87322800D01*
G75*
G02*
X145489200Y-87422000I-99200J0D01*
G01*
X143940800Y-87422000D01*
G75*
G02*
X143841600Y-87322800I0J99200D01*
G01*
G37*
G36*
G01*
X143841600Y-88592800D02*
X143841600Y-88394400D01*
G75*
G02*
X143940800Y-88295200I99200J0D01*
G01*
X145489200Y-88295200D01*
G75*
G02*
X145588400Y-88394400I0J-99200D01*
G01*
X145588400Y-88592800D01*
G75*
G02*
X145489200Y-88692000I-99200J0D01*
G01*
X143940800Y-88692000D01*
G75*
G02*
X143841600Y-88592800I0J99200D01*
G01*
G37*
G36*
G01*
X143841600Y-89862800D02*
X143841600Y-89664400D01*
G75*
G02*
X143940800Y-89565200I99200J0D01*
G01*
X145489200Y-89565200D01*
G75*
G02*
X145588400Y-89664400I0J-99200D01*
G01*
X145588400Y-89862800D01*
G75*
G02*
X145489200Y-89962000I-99200J0D01*
G01*
X143940800Y-89962000D01*
G75*
G02*
X143841600Y-89862800I0J99200D01*
G01*
G37*
G36*
G01*
X143841600Y-91132800D02*
X143841600Y-90934400D01*
G75*
G02*
X143940800Y-90835200I99200J0D01*
G01*
X145489200Y-90835200D01*
G75*
G02*
X145588400Y-90934400I0J-99200D01*
G01*
X145588400Y-91132800D01*
G75*
G02*
X145489200Y-91232000I-99200J0D01*
G01*
X143940800Y-91232000D01*
G75*
G02*
X143841600Y-91132800I0J99200D01*
G01*
G37*
G36*
G01*
X138891600Y-91132800D02*
X138891600Y-90934400D01*
G75*
G02*
X138990800Y-90835200I99200J0D01*
G01*
X140539200Y-90835200D01*
G75*
G02*
X140638400Y-90934400I0J-99200D01*
G01*
X140638400Y-91132800D01*
G75*
G02*
X140539200Y-91232000I-99200J0D01*
G01*
X138990800Y-91232000D01*
G75*
G02*
X138891600Y-91132800I0J99200D01*
G01*
G37*
G36*
G01*
X138891600Y-89862800D02*
X138891600Y-89664400D01*
G75*
G02*
X138990800Y-89565200I99200J0D01*
G01*
X140539200Y-89565200D01*
G75*
G02*
X140638400Y-89664400I0J-99200D01*
G01*
X140638400Y-89862800D01*
G75*
G02*
X140539200Y-89962000I-99200J0D01*
G01*
X138990800Y-89962000D01*
G75*
G02*
X138891600Y-89862800I0J99200D01*
G01*
G37*
G36*
G01*
X138891600Y-88592800D02*
X138891600Y-88394400D01*
G75*
G02*
X138990800Y-88295200I99200J0D01*
G01*
X140539200Y-88295200D01*
G75*
G02*
X140638400Y-88394400I0J-99200D01*
G01*
X140638400Y-88592800D01*
G75*
G02*
X140539200Y-88692000I-99200J0D01*
G01*
X138990800Y-88692000D01*
G75*
G02*
X138891600Y-88592800I0J99200D01*
G01*
G37*
G36*
G01*
X138891600Y-87322800D02*
X138891600Y-87124400D01*
G75*
G02*
X138990800Y-87025200I99200J0D01*
G01*
X140539200Y-87025200D01*
G75*
G02*
X140638400Y-87124400I0J-99200D01*
G01*
X140638400Y-87322800D01*
G75*
G02*
X140539200Y-87422000I-99200J0D01*
G01*
X138990800Y-87422000D01*
G75*
G02*
X138891600Y-87322800I0J99200D01*
G01*
G37*
G36*
G01*
X138891600Y-86052800D02*
X138891600Y-85854400D01*
G75*
G02*
X138990800Y-85755200I99200J0D01*
G01*
X140539200Y-85755200D01*
G75*
G02*
X140638400Y-85854400I0J-99200D01*
G01*
X140638400Y-86052800D01*
G75*
G02*
X140539200Y-86152000I-99200J0D01*
G01*
X138990800Y-86152000D01*
G75*
G02*
X138891600Y-86052800I0J99200D01*
G01*
G37*
G36*
G01*
X138891600Y-84782800D02*
X138891600Y-84584400D01*
G75*
G02*
X138990800Y-84485200I99200J0D01*
G01*
X140539200Y-84485200D01*
G75*
G02*
X140638400Y-84584400I0J-99200D01*
G01*
X140638400Y-84782800D01*
G75*
G02*
X140539200Y-84882000I-99200J0D01*
G01*
X138990800Y-84882000D01*
G75*
G02*
X138891600Y-84782800I0J99200D01*
G01*
G37*
G36*
G01*
X138891600Y-83512800D02*
X138891600Y-83314400D01*
G75*
G02*
X138990800Y-83215200I99200J0D01*
G01*
X140539200Y-83215200D01*
G75*
G02*
X140638400Y-83314400I0J-99200D01*
G01*
X140638400Y-83512800D01*
G75*
G02*
X140539200Y-83612000I-99200J0D01*
G01*
X138990800Y-83612000D01*
G75*
G02*
X138891600Y-83512800I0J99200D01*
G01*
G37*
M02*
