M48
; DRILL file {KiCad (5.1.12)-1} date 12/06/21 17:39:44
; FORMAT={-:-/ absolute / inch / decimal}
; #@! TF.CreationDate,2021-12-06T17:39:44+10:00
; #@! TF.GenerationSoftware,Kicad,Pcbnew,(5.1.12)-1
; #@! TF.FileFunction,Plated,1,2,PTH
FMAT,2
INCH
T1C0.0157
T2C0.0197
T3C0.0200
T4C0.0280
T5C0.0358
T6C0.0394
T7C0.0520
T8C0.0591
T9C0.0669
%
G90
G05
T1
X2.1251Y-6.4447
X2.16Y-5.947
X2.2053Y-4.4397
X2.2425Y-3.0589
X2.3342Y-2.9682
X2.3404Y-5.35
X2.4444Y-5.897
X2.4579Y-5.5527
X2.4865Y-5.8661
X2.5011Y-5.597
X2.542Y-5.9228
X2.55Y-4.8
X2.556Y-4.7
X2.557Y-4.6
X2.5614Y-4.4397
X2.5635Y-5.6174
X2.564Y-6.0059
X2.5952Y-4.0737
X2.646Y-4.0326
X2.6915Y-5.0533
X2.715Y-3.5126
X2.7552Y-4.6332
X2.8028Y-4.0626
X2.8693Y-2.6152
X2.8693Y-3.3137
X2.8833Y-4.4825
X2.9081Y-4.3354
X2.94Y-4.643
X2.94Y-4.859
X2.9852Y-3.5758
X2.99Y-4.34
X2.99Y-4.678
X2.99Y-4.82
X3.04Y-4.341
X3.04Y-4.817
X3.0417Y-5.2167
X3.0454Y-4.6996
X3.0864Y-6.4018
X3.1156Y-4.6212
X3.1577Y-6.4626
X3.2543Y-5.827
X3.2547Y-5.621
X3.2551Y-5.5557
X3.2694Y-6.4012
X3.2843Y-5.8687
X3.2981Y-5.3867
X3.3151Y-5.5631
X3.3241Y-5.7975
X3.3281Y-5.3609
X3.334Y-4.1478
X3.3344Y-3.9463
X3.3345Y-4.4996
X3.3346Y-4.443
X3.3351Y-4.3246
X3.3405Y-4.8384
X3.3566Y-5.2594
X3.3634Y-3.5668
X3.3645Y-5.7417
X3.3753Y-5.1636
X3.4258Y-5.1442
X3.4374Y-5.219
X3.4847Y-5.2776
X3.4873Y-4.9098
X3.5038Y-5.2386
X3.5092Y-4.9646
X3.5387Y-5.3319
X3.5687Y-4.3233
X3.5693Y-4.4755
X3.573Y-5.5913
X3.5821Y-5.1977
X3.5864Y-5.028
X3.589Y-5.3098
X3.5997Y-3.0863
X3.6332Y-3.7828
X3.6588Y-5.1237
X3.6629Y-3.8405
X3.6633Y-4.9508
X3.6679Y-6.1069
X3.6919Y-3.8127
X3.6919Y-3.9463
X3.7028Y-4.8384
X3.7159Y-4.3344
X3.7197Y-6.1073
X3.7437Y-5.3763
X3.7525Y-4.4226
X3.7558Y-3.0088
X3.7835Y-5.1467
X3.785Y-3.0385
X3.7989Y-5.2755
X3.8236Y-3.4134
X3.8388Y-4.4617
X3.8419Y-4.2181
X3.8596Y-6.0273
X3.8633Y-6.0668
X3.8678Y-4.4219
X3.8706Y-3.6509
X3.8994Y-3.933
X3.9066Y-4.3288
X3.9066Y-5.1155
X3.9247Y-3.8935
X3.9289Y-4.2166
X3.9606Y-3.697
X3.9641Y-3.8867
X3.979Y-5.8189
X3.9794Y-5.5981
X3.98Y-5.6461
X4.0724Y-6.0366
X4.22Y-5.298
X4.2663Y-5.1988
X4.3381Y-3.4461
X4.3381Y-3.9481
X4.3672Y-4.7002
X4.3858Y-5.5036
X4.3957Y-4.2854
X4.4113Y-5.4378
X4.4475Y-4.9659
X4.4644Y-3.2338
X4.4984Y-4.9035
X4.5236Y-4.1834
X4.53Y-5.45
X4.6885Y-3.147
X4.719Y-3.6265
X4.7351Y-4.2541
X4.7457Y-5.0392
X4.753Y-3.5815
X4.8061Y-4.8815
X4.8831Y-5.3426
X4.8974Y-3.8646
X4.923Y-5.3421
X4.9539Y-3.5618
X4.9748Y-4.0277
X5.0018Y-5.0835
X5.0498Y-5.3516
X5.0749Y-3.5815
X5.0807Y-5.1625
X5.0837Y-3.8346
X5.1254Y-4.9599
X5.1511Y-3.5421
X5.1511Y-3.8337
X5.2007Y-3.5832
X5.2007Y-3.8646
X5.2871Y-5.0203
X5.3483Y-3.8614
X5.3578Y-3.3201
X5.3756Y-3.8314
X5.4086Y-3.384
X5.4126Y-3.559
X5.418Y-4.2983
X5.4397Y-3.484
X5.488Y-4.3504
X5.4921Y-5.5217
X5.5972Y-4.663
X5.6004Y-4.5284
X5.6074Y-4.8122
X5.6074Y-5.0471
X5.6118Y-3.3291
X5.6578Y-5.8556
X5.66Y-5.49
X5.7318Y-3.6533
X5.7533Y-5.7715
X5.7635Y-3.55
X5.7682Y-3.8176
X5.8472Y-4.3504
X5.8491Y-3.7586
X5.9302Y-3.811
X5.941Y-5.421
T2
X2.8937Y-4.9409
T3
X2.5705Y-3.3403
X2.7021Y-4.8462
X3.3904Y-3.2425
X4.7982Y-3.4173
X4.7982Y-3.69
X5.3052Y-3.75
X5.5069Y-3.2194
X5.5118Y-4.9213
X5.546Y-5.468
X5.5531Y-4.6791
X5.5693Y-5.8213
X5.5701Y-3.434
T4
X2.178Y-2.897
X2.178Y-2.997
X2.178Y-3.097
X2.178Y-3.197
X2.178Y-3.297
X2.178Y-3.397
X2.178Y-3.497
X2.178Y-3.597
X2.178Y-3.697
X2.178Y-3.797
X2.178Y-3.897
X2.178Y-3.997
X2.178Y-4.097
X2.178Y-4.197
X2.178Y-4.297
X2.178Y-4.397
X2.178Y-4.497
X2.178Y-4.597
X2.178Y-4.697
X2.178Y-4.797
X2.178Y-4.897
X2.178Y-4.997
X2.178Y-5.097
X2.178Y-5.197
X2.178Y-5.297
X2.178Y-5.397
X2.178Y-5.497
X2.178Y-5.597
X2.178Y-5.697
X2.178Y-5.797
X2.178Y-5.897
X2.178Y-5.997
X2.178Y-6.097
X2.178Y-6.197
X2.178Y-6.297
X2.178Y-6.397
X2.278Y-2.897
X2.278Y-2.997
X2.278Y-3.097
X2.278Y-3.197
X2.278Y-3.297
X2.278Y-3.397
X2.278Y-3.497
X2.278Y-3.597
X2.278Y-3.697
X2.278Y-3.797
X2.278Y-3.897
X2.278Y-3.997
X2.278Y-4.097
X2.278Y-4.197
X2.278Y-4.297
X2.278Y-4.397
X2.278Y-4.497
X2.278Y-4.597
X2.278Y-4.697
X2.278Y-4.797
X2.278Y-4.897
X2.278Y-4.997
X2.278Y-5.097
X2.278Y-5.197
X2.278Y-5.297
X2.278Y-5.397
X2.278Y-5.497
X2.278Y-5.597
X2.278Y-5.697
X2.278Y-5.797
X2.278Y-5.897
X2.278Y-5.997
X2.278Y-6.097
X2.278Y-6.197
X2.278Y-6.297
X2.278Y-6.397
X4.578Y-2.897
X4.578Y-2.997
X4.578Y-3.097
X4.578Y-3.197
X4.578Y-3.297
X4.578Y-3.397
X4.578Y-3.497
X4.578Y-3.597
X4.578Y-3.697
X4.578Y-3.797
X4.578Y-3.897
X4.578Y-3.997
X4.578Y-4.097
X4.578Y-4.197
X4.578Y-4.297
X4.578Y-4.397
X4.578Y-4.497
X4.578Y-4.597
X4.578Y-4.697
X4.578Y-4.797
X4.578Y-4.897
X4.578Y-4.997
X4.578Y-5.097
X4.578Y-5.197
X4.578Y-5.297
X4.578Y-5.397
X4.578Y-5.497
X4.578Y-5.597
X4.578Y-5.697
X4.578Y-5.797
X4.578Y-5.897
X4.578Y-5.997
X4.578Y-6.097
X4.578Y-6.197
X4.578Y-6.297
X4.578Y-6.397
X4.678Y-2.897
X4.678Y-2.997
X4.678Y-3.097
X4.678Y-3.197
X4.678Y-3.297
X4.678Y-3.397
X4.678Y-3.497
X4.678Y-3.597
X4.678Y-3.697
X4.678Y-3.797
X4.678Y-3.897
X4.678Y-3.997
X4.678Y-4.097
X4.678Y-4.197
X4.678Y-4.297
X4.678Y-4.397
X4.678Y-4.497
X4.678Y-4.597
X4.678Y-4.697
X4.678Y-4.797
X4.678Y-4.897
X4.678Y-4.997
X4.678Y-5.097
X4.678Y-5.197
X4.678Y-5.297
X4.678Y-5.397
X4.678Y-5.497
X4.678Y-5.597
X4.678Y-5.697
X4.678Y-5.797
X4.678Y-5.897
X4.678Y-5.997
X4.678Y-6.097
X4.678Y-6.197
X4.678Y-6.297
X4.678Y-6.397
T5
X3.7606Y-3.5004
X3.8606Y-3.5004
X3.9606Y-3.5004
X4.0606Y-3.5004
X4.1606Y-3.5004
X4.2606Y-3.5004
X4.91Y-5.652
X5.01Y-5.652
X5.11Y-5.652
X5.21Y-5.652
X5.31Y-5.652
T6
X2.49Y-3.31
X2.49Y-3.41
X2.49Y-3.51
X2.49Y-3.61
X2.5Y-2.75
X2.5Y-2.85
X2.5Y-2.95
X2.5Y-3.05
X2.5Y-3.9
X2.5Y-4.0
X2.5Y-4.1
X2.5Y-4.2
X2.5Y-5.0
X2.5Y-5.1
X2.5Y-5.2
X2.5Y-5.3
X2.5Y-6.2
X2.5Y-6.3
X2.5Y-6.4
X2.651Y-3.36
X2.651Y-3.46
X2.7Y-6.4173
X2.81Y-3.36
X2.81Y-3.46
X3.13Y-5.2
X3.3845Y-6.0585
X3.3848Y-6.3012
X3.41Y-3.9
X3.41Y-4.0
X3.41Y-4.1
X3.41Y-4.2
X3.565Y-3.9
X3.565Y-4.0
X3.565Y-4.1
X3.565Y-4.2
X3.7Y-6.35
X3.8Y-6.35
X3.9Y-6.35
X3.9424Y-2.9874
X4.0Y-6.35
X4.0472Y-6.4252
X4.22Y-5.52
X4.22Y-5.62
X4.22Y-5.72
X4.22Y-5.82
X4.32Y-5.52
X4.32Y-5.62
X4.32Y-5.72
X4.32Y-5.82
X4.35Y-5.06
X4.435Y-2.9874
X4.4925Y-2.7575
X4.7911Y-3.9645
X4.8625Y-4.0825
X4.875Y-2.75
X5.025Y-3.05
X5.209Y-4.127
X5.45Y-4.05
X5.45Y-4.15
X5.65Y-4.05
X5.65Y-4.15
X5.65Y-4.25
X5.85Y-4.05
X5.85Y-4.15
X5.875Y-2.675
X5.88Y-5.59
X5.9Y-4.4
X5.9Y-4.8
T7
X3.85Y-2.834
X4.0469Y-2.834
X4.2437Y-2.834
X5.6241Y-6.249
X5.821Y-6.249
T8
X5.175Y-2.775
T9
X5.075Y-2.675
X5.075Y-2.875
X5.275Y-2.675
X5.275Y-2.875
T0
M30
