G04 #@! TF.GenerationSoftware,KiCad,Pcbnew,(5.1.12)-1*
G04 #@! TF.CreationDate,2021-12-06T17:16:18+10:00*
G04 #@! TF.ProjectId,stmsplat2,73746d73-706c-4617-9432-2e6b69636164,rev?*
G04 #@! TF.SameCoordinates,Original*
G04 #@! TF.FileFunction,Soldermask,Bot*
G04 #@! TF.FilePolarity,Negative*
%FSLAX46Y46*%
G04 Gerber Fmt 4.6, Leading zero omitted, Abs format (unit mm)*
G04 Created by KiCad (PCBNEW (5.1.12)-1) date 2021-12-06 17:16:18*
%MOMM*%
%LPD*%
G01*
G04 APERTURE LIST*
%ADD10C,3.000000*%
%ADD11C,1.520000*%
%ADD12O,1.700000X1.700000*%
%ADD13R,1.700000X1.700000*%
%ADD14C,2.000000*%
%ADD15C,1.310000*%
%ADD16C,2.250000*%
%ADD17C,2.050000*%
%ADD18R,1.980000X3.960000*%
%ADD19O,1.980000X3.960000*%
%ADD20C,3.500000*%
G04 APERTURE END LIST*
D10*
X130404000Y-162382000D03*
D11*
X124714000Y-143562000D03*
X127254000Y-143562000D03*
X132334000Y-143562000D03*
X129794000Y-143562000D03*
X134874000Y-143562000D03*
D12*
X71374000Y-87884000D03*
D13*
X71374000Y-85344000D03*
D12*
X67335400Y-87884000D03*
D13*
X67335400Y-85344000D03*
D14*
X79502000Y-132080000D03*
X123825000Y-69850000D03*
X149860000Y-121920000D03*
X127635000Y-77470000D03*
X110490000Y-128524000D03*
D12*
X63500000Y-106680000D03*
X63500000Y-104140000D03*
X63500000Y-101600000D03*
D13*
X63500000Y-99060000D03*
D15*
X57861200Y-162483800D03*
X57861200Y-159943800D03*
X57861200Y-157403800D03*
X57861200Y-154863800D03*
X57861200Y-152323800D03*
X57861200Y-149783800D03*
X57861200Y-147243800D03*
X57861200Y-144703800D03*
X57861200Y-142163800D03*
X57861200Y-139623800D03*
X57861200Y-137083800D03*
X57861200Y-134543800D03*
X57861200Y-132003800D03*
X57861200Y-129463800D03*
X57861200Y-126923800D03*
X57861200Y-124383800D03*
X57861200Y-121843800D03*
X57861200Y-119303800D03*
X57861200Y-116763800D03*
X57861200Y-114223800D03*
X57861200Y-111683800D03*
X57861200Y-109143800D03*
X57861200Y-106603800D03*
X57861200Y-104063800D03*
X57861200Y-101523800D03*
X57861200Y-98983800D03*
X57861200Y-96443800D03*
X57861200Y-93903800D03*
X57861200Y-91363800D03*
X57861200Y-88823800D03*
X57861200Y-86283800D03*
X57861200Y-83743800D03*
X57861200Y-81203800D03*
X57861200Y-78663800D03*
X57861200Y-76123800D03*
X57861200Y-73583800D03*
X55321200Y-162483800D03*
X55321200Y-159943800D03*
X55321200Y-157403800D03*
X55321200Y-154863800D03*
X55321200Y-152323800D03*
X55321200Y-149783800D03*
X55321200Y-147243800D03*
X55321200Y-144703800D03*
X55321200Y-142163800D03*
X55321200Y-139623800D03*
X55321200Y-137083800D03*
X55321200Y-134543800D03*
X55321200Y-132003800D03*
X55321200Y-129463800D03*
X55321200Y-126923800D03*
X55321200Y-124383800D03*
X55321200Y-121843800D03*
X55321200Y-119303800D03*
X55321200Y-116763800D03*
X55321200Y-114223800D03*
X55321200Y-111683800D03*
X55321200Y-109143800D03*
X55321200Y-106603800D03*
X55321200Y-104063800D03*
X55321200Y-101523800D03*
X55321200Y-98983800D03*
X55321200Y-96443800D03*
X55321200Y-93903800D03*
X55321200Y-91363800D03*
X55321200Y-88823800D03*
X55321200Y-86283800D03*
X55321200Y-83743800D03*
X55321200Y-81203800D03*
X55321200Y-78663800D03*
X55321200Y-76123800D03*
G36*
G01*
X54916200Y-72928800D02*
X55726200Y-72928800D01*
G75*
G02*
X55976200Y-73178800I0J-250000D01*
G01*
X55976200Y-73988800D01*
G75*
G02*
X55726200Y-74238800I-250000J0D01*
G01*
X54916200Y-74238800D01*
G75*
G02*
X54666200Y-73988800I0J250000D01*
G01*
X54666200Y-73178800D01*
G75*
G02*
X54916200Y-72928800I250000J0D01*
G01*
G37*
X118821000Y-162483800D03*
X118821000Y-159943800D03*
X118821000Y-157403800D03*
X118821000Y-154863800D03*
X118821000Y-152323800D03*
X118821000Y-149783800D03*
X118821000Y-147243800D03*
X118821000Y-144703800D03*
X118821000Y-142163800D03*
X118821000Y-139623800D03*
X118821000Y-137083800D03*
X118821000Y-134543800D03*
X118821000Y-132003800D03*
X118821000Y-129463800D03*
X118821000Y-126923800D03*
X118821000Y-124383800D03*
X118821000Y-121843800D03*
X118821000Y-119303800D03*
X118821000Y-116763800D03*
X118821000Y-114223800D03*
X118821000Y-111683800D03*
X118821000Y-109143800D03*
X118821000Y-106603800D03*
X118821000Y-104063800D03*
X118821000Y-101523800D03*
X118821000Y-98983800D03*
X118821000Y-96443800D03*
X118821000Y-93903800D03*
X118821000Y-91363800D03*
X118821000Y-88823800D03*
X118821000Y-86283800D03*
X118821000Y-83743800D03*
X118821000Y-81203800D03*
X118821000Y-78663800D03*
X118821000Y-76123800D03*
X118821000Y-73583800D03*
X116281000Y-162483800D03*
X116281000Y-159943800D03*
X116281000Y-157403800D03*
X116281000Y-154863800D03*
X116281000Y-152323800D03*
X116281000Y-149783800D03*
X116281000Y-147243800D03*
X116281000Y-144703800D03*
X116281000Y-142163800D03*
X116281000Y-139623800D03*
X116281000Y-137083800D03*
X116281000Y-134543800D03*
X116281000Y-132003800D03*
X116281000Y-129463800D03*
X116281000Y-126923800D03*
X116281000Y-124383800D03*
X116281000Y-121843800D03*
X116281000Y-119303800D03*
X116281000Y-116763800D03*
X116281000Y-114223800D03*
X116281000Y-111683800D03*
X116281000Y-109143800D03*
X116281000Y-106603800D03*
X116281000Y-104063800D03*
X116281000Y-101523800D03*
X116281000Y-98983800D03*
X116281000Y-96443800D03*
X116281000Y-93903800D03*
X116281000Y-91363800D03*
X116281000Y-88823800D03*
X116281000Y-86283800D03*
X116281000Y-83743800D03*
X116281000Y-81203800D03*
X116281000Y-78663800D03*
X116281000Y-76123800D03*
G36*
G01*
X115876000Y-72928800D02*
X116686000Y-72928800D01*
G75*
G02*
X116936000Y-73178800I0J-250000D01*
G01*
X116936000Y-73988800D01*
G75*
G02*
X116686000Y-74238800I-250000J0D01*
G01*
X115876000Y-74238800D01*
G75*
G02*
X115626000Y-73988800I0J250000D01*
G01*
X115626000Y-73178800D01*
G75*
G02*
X115876000Y-72928800I250000J0D01*
G01*
G37*
D12*
X63246000Y-91694000D03*
X63246000Y-89154000D03*
X63246000Y-86614000D03*
D13*
X63246000Y-84074000D03*
D12*
X90551000Y-106680000D03*
X90551000Y-104140000D03*
X90551000Y-101600000D03*
D13*
X90551000Y-99060000D03*
D12*
X86614000Y-106680000D03*
X86614000Y-104140000D03*
X86614000Y-101600000D03*
D13*
X86614000Y-99060000D03*
D16*
X128905000Y-73025000D03*
X128905000Y-67945000D03*
X133985000Y-67945000D03*
X133985000Y-73025000D03*
D17*
X131445000Y-70485000D03*
D14*
X68580000Y-163000000D03*
X149352000Y-141986000D03*
X149860000Y-111760000D03*
X123508000Y-103696000D03*
X149225000Y-67945000D03*
D13*
X63500000Y-127000000D03*
D12*
X63500000Y-129540000D03*
X63500000Y-132080000D03*
X63500000Y-134620000D03*
X143510000Y-107950000D03*
X143510000Y-105410000D03*
D13*
X143510000Y-102870000D03*
X148590000Y-102870000D03*
D12*
X148590000Y-105410000D03*
D13*
X138430000Y-102870000D03*
D12*
X138430000Y-105410000D03*
D18*
X97790000Y-71983600D03*
D19*
X102790000Y-71983600D03*
X107790000Y-71983600D03*
D18*
X147853000Y-158725000D03*
D19*
X142853000Y-158725000D03*
D13*
X107188000Y-140208000D03*
D12*
X109728000Y-140208000D03*
X107188000Y-142748000D03*
X109728000Y-142748000D03*
X107188000Y-145288000D03*
X109728000Y-145288000D03*
X107188000Y-147828000D03*
X109728000Y-147828000D03*
D13*
X63500000Y-69850000D03*
D12*
X63500000Y-72390000D03*
X63500000Y-74930000D03*
X63500000Y-77470000D03*
D13*
X63500000Y-157480000D03*
D12*
X63500000Y-160020000D03*
X63500000Y-162560000D03*
D13*
X93980000Y-161290000D03*
D12*
X96520000Y-161290000D03*
X99060000Y-161290000D03*
X101600000Y-161290000D03*
D20*
X96220000Y-103410000D03*
D11*
X100600000Y-88910000D03*
X98060000Y-88910000D03*
X95520000Y-88910000D03*
D20*
X107220000Y-103410000D03*
D11*
X108220000Y-88910000D03*
X105680000Y-88910000D03*
X103140000Y-88910000D03*
M02*
