G04 #@! TF.GenerationSoftware,KiCad,Pcbnew,(5.1.12)-1*
G04 #@! TF.CreationDate,2021-12-06T17:39:21+10:00*
G04 #@! TF.ProjectId,stmsplat2,73746d73-706c-4617-9432-2e6b69636164,rev?*
G04 #@! TF.SameCoordinates,Original*
G04 #@! TF.FileFunction,OtherDrawing,Comment*
%FSLAX46Y46*%
G04 Gerber Fmt 4.6, Leading zero omitted, Abs format (unit mm)*
G04 Created by KiCad (PCBNEW (5.1.12)-1) date 2021-12-06 17:39:21*
%MOMM*%
%LPD*%
G01*
G04 APERTURE LIST*
%ADD10C,0.150000*%
%ADD11C,0.300000*%
%ADD12C,0.010000*%
%ADD13C,0.100000*%
G04 APERTURE END LIST*
D10*
X156422619Y-111585980D02*
X156422619Y-111014552D01*
X156422619Y-111300266D02*
X157422619Y-111300266D01*
X157279761Y-111205028D01*
X157184523Y-111109790D01*
X157136904Y-111014552D01*
X157422619Y-112205028D02*
X157422619Y-112300266D01*
X157375000Y-112395504D01*
X157327380Y-112443123D01*
X157232142Y-112490742D01*
X157041666Y-112538361D01*
X156803571Y-112538361D01*
X156613095Y-112490742D01*
X156517857Y-112443123D01*
X156470238Y-112395504D01*
X156422619Y-112300266D01*
X156422619Y-112205028D01*
X156470238Y-112109790D01*
X156517857Y-112062171D01*
X156613095Y-112014552D01*
X156803571Y-111966933D01*
X157041666Y-111966933D01*
X157232142Y-112014552D01*
X157327380Y-112062171D01*
X157375000Y-112109790D01*
X157422619Y-112205028D01*
X157422619Y-113157409D02*
X157422619Y-113252647D01*
X157375000Y-113347885D01*
X157327380Y-113395504D01*
X157232142Y-113443123D01*
X157041666Y-113490742D01*
X156803571Y-113490742D01*
X156613095Y-113443123D01*
X156517857Y-113395504D01*
X156470238Y-113347885D01*
X156422619Y-113252647D01*
X156422619Y-113157409D01*
X156470238Y-113062171D01*
X156517857Y-113014552D01*
X156613095Y-112966933D01*
X156803571Y-112919314D01*
X157041666Y-112919314D01*
X157232142Y-112966933D01*
X157327380Y-113014552D01*
X157375000Y-113062171D01*
X157422619Y-113157409D01*
X156517857Y-113919314D02*
X156470238Y-113966933D01*
X156422619Y-113919314D01*
X156470238Y-113871695D01*
X156517857Y-113919314D01*
X156422619Y-113919314D01*
X157422619Y-114585980D02*
X157422619Y-114681219D01*
X157375000Y-114776457D01*
X157327380Y-114824076D01*
X157232142Y-114871695D01*
X157041666Y-114919314D01*
X156803571Y-114919314D01*
X156613095Y-114871695D01*
X156517857Y-114824076D01*
X156470238Y-114776457D01*
X156422619Y-114681219D01*
X156422619Y-114585980D01*
X156470238Y-114490742D01*
X156517857Y-114443123D01*
X156613095Y-114395504D01*
X156803571Y-114347885D01*
X157041666Y-114347885D01*
X157232142Y-114395504D01*
X157327380Y-114443123D01*
X157375000Y-114490742D01*
X157422619Y-114585980D01*
X157422619Y-115538361D02*
X157422619Y-115633600D01*
X157375000Y-115728838D01*
X157327380Y-115776457D01*
X157232142Y-115824076D01*
X157041666Y-115871695D01*
X156803571Y-115871695D01*
X156613095Y-115824076D01*
X156517857Y-115776457D01*
X156470238Y-115728838D01*
X156422619Y-115633600D01*
X156422619Y-115538361D01*
X156470238Y-115443123D01*
X156517857Y-115395504D01*
X156613095Y-115347885D01*
X156803571Y-115300266D01*
X157041666Y-115300266D01*
X157232142Y-115347885D01*
X157327380Y-115395504D01*
X157375000Y-115443123D01*
X157422619Y-115538361D01*
X157422619Y-116490742D02*
X157422619Y-116585980D01*
X157375000Y-116681219D01*
X157327380Y-116728838D01*
X157232142Y-116776457D01*
X157041666Y-116824076D01*
X156803571Y-116824076D01*
X156613095Y-116776457D01*
X156517857Y-116728838D01*
X156470238Y-116681219D01*
X156422619Y-116585980D01*
X156422619Y-116490742D01*
X156470238Y-116395504D01*
X156517857Y-116347885D01*
X156613095Y-116300266D01*
X156803571Y-116252647D01*
X157041666Y-116252647D01*
X157232142Y-116300266D01*
X157327380Y-116347885D01*
X157375000Y-116395504D01*
X157422619Y-116490742D01*
X156422619Y-118014552D02*
X157089285Y-118014552D01*
X156994047Y-118014552D02*
X157041666Y-118062171D01*
X157089285Y-118157409D01*
X157089285Y-118300266D01*
X157041666Y-118395504D01*
X156946428Y-118443123D01*
X156422619Y-118443123D01*
X156946428Y-118443123D02*
X157041666Y-118490742D01*
X157089285Y-118585980D01*
X157089285Y-118728838D01*
X157041666Y-118824076D01*
X156946428Y-118871695D01*
X156422619Y-118871695D01*
X156422619Y-119347885D02*
X157089285Y-119347885D01*
X156994047Y-119347885D02*
X157041666Y-119395504D01*
X157089285Y-119490742D01*
X157089285Y-119633600D01*
X157041666Y-119728838D01*
X156946428Y-119776457D01*
X156422619Y-119776457D01*
X156946428Y-119776457D02*
X157041666Y-119824076D01*
X157089285Y-119919314D01*
X157089285Y-120062171D01*
X157041666Y-120157409D01*
X156946428Y-120205028D01*
X156422619Y-120205028D01*
X155575000Y-65633600D02*
X155575000Y-165633600D01*
X151993800Y-65633600D02*
X156161421Y-65633600D01*
X151993800Y-165633600D02*
X156161421Y-165633600D01*
X155575000Y-165633600D02*
X154988579Y-164507096D01*
X155575000Y-165633600D02*
X156161421Y-164507096D01*
X155575000Y-65633600D02*
X154988579Y-66760104D01*
X155575000Y-65633600D02*
X156161421Y-66760104D01*
X97946180Y-61382380D02*
X97374752Y-61382380D01*
X97660466Y-61382380D02*
X97660466Y-60382380D01*
X97565228Y-60525238D01*
X97469990Y-60620476D01*
X97374752Y-60668095D01*
X98565228Y-60382380D02*
X98660466Y-60382380D01*
X98755704Y-60430000D01*
X98803323Y-60477619D01*
X98850942Y-60572857D01*
X98898561Y-60763333D01*
X98898561Y-61001428D01*
X98850942Y-61191904D01*
X98803323Y-61287142D01*
X98755704Y-61334761D01*
X98660466Y-61382380D01*
X98565228Y-61382380D01*
X98469990Y-61334761D01*
X98422371Y-61287142D01*
X98374752Y-61191904D01*
X98327133Y-61001428D01*
X98327133Y-60763333D01*
X98374752Y-60572857D01*
X98422371Y-60477619D01*
X98469990Y-60430000D01*
X98565228Y-60382380D01*
X99517609Y-60382380D02*
X99612847Y-60382380D01*
X99708085Y-60430000D01*
X99755704Y-60477619D01*
X99803323Y-60572857D01*
X99850942Y-60763333D01*
X99850942Y-61001428D01*
X99803323Y-61191904D01*
X99755704Y-61287142D01*
X99708085Y-61334761D01*
X99612847Y-61382380D01*
X99517609Y-61382380D01*
X99422371Y-61334761D01*
X99374752Y-61287142D01*
X99327133Y-61191904D01*
X99279514Y-61001428D01*
X99279514Y-60763333D01*
X99327133Y-60572857D01*
X99374752Y-60477619D01*
X99422371Y-60430000D01*
X99517609Y-60382380D01*
X100279514Y-61287142D02*
X100327133Y-61334761D01*
X100279514Y-61382380D01*
X100231895Y-61334761D01*
X100279514Y-61287142D01*
X100279514Y-61382380D01*
X100946180Y-60382380D02*
X101041419Y-60382380D01*
X101136657Y-60430000D01*
X101184276Y-60477619D01*
X101231895Y-60572857D01*
X101279514Y-60763333D01*
X101279514Y-61001428D01*
X101231895Y-61191904D01*
X101184276Y-61287142D01*
X101136657Y-61334761D01*
X101041419Y-61382380D01*
X100946180Y-61382380D01*
X100850942Y-61334761D01*
X100803323Y-61287142D01*
X100755704Y-61191904D01*
X100708085Y-61001428D01*
X100708085Y-60763333D01*
X100755704Y-60572857D01*
X100803323Y-60477619D01*
X100850942Y-60430000D01*
X100946180Y-60382380D01*
X101898561Y-60382380D02*
X101993800Y-60382380D01*
X102089038Y-60430000D01*
X102136657Y-60477619D01*
X102184276Y-60572857D01*
X102231895Y-60763333D01*
X102231895Y-61001428D01*
X102184276Y-61191904D01*
X102136657Y-61287142D01*
X102089038Y-61334761D01*
X101993800Y-61382380D01*
X101898561Y-61382380D01*
X101803323Y-61334761D01*
X101755704Y-61287142D01*
X101708085Y-61191904D01*
X101660466Y-61001428D01*
X101660466Y-60763333D01*
X101708085Y-60572857D01*
X101755704Y-60477619D01*
X101803323Y-60430000D01*
X101898561Y-60382380D01*
X102850942Y-60382380D02*
X102946180Y-60382380D01*
X103041419Y-60430000D01*
X103089038Y-60477619D01*
X103136657Y-60572857D01*
X103184276Y-60763333D01*
X103184276Y-61001428D01*
X103136657Y-61191904D01*
X103089038Y-61287142D01*
X103041419Y-61334761D01*
X102946180Y-61382380D01*
X102850942Y-61382380D01*
X102755704Y-61334761D01*
X102708085Y-61287142D01*
X102660466Y-61191904D01*
X102612847Y-61001428D01*
X102612847Y-60763333D01*
X102660466Y-60572857D01*
X102708085Y-60477619D01*
X102755704Y-60430000D01*
X102850942Y-60382380D01*
X104374752Y-61382380D02*
X104374752Y-60715714D01*
X104374752Y-60810952D02*
X104422371Y-60763333D01*
X104517609Y-60715714D01*
X104660466Y-60715714D01*
X104755704Y-60763333D01*
X104803323Y-60858571D01*
X104803323Y-61382380D01*
X104803323Y-60858571D02*
X104850942Y-60763333D01*
X104946180Y-60715714D01*
X105089038Y-60715714D01*
X105184276Y-60763333D01*
X105231895Y-60858571D01*
X105231895Y-61382380D01*
X105708085Y-61382380D02*
X105708085Y-60715714D01*
X105708085Y-60810952D02*
X105755704Y-60763333D01*
X105850942Y-60715714D01*
X105993800Y-60715714D01*
X106089038Y-60763333D01*
X106136657Y-60858571D01*
X106136657Y-61382380D01*
X106136657Y-60858571D02*
X106184276Y-60763333D01*
X106279514Y-60715714D01*
X106422371Y-60715714D01*
X106517609Y-60763333D01*
X106565228Y-60858571D01*
X106565228Y-61382380D01*
X51993800Y-62230000D02*
X151993800Y-62230000D01*
X51993800Y-65633600D02*
X51993800Y-61643579D01*
X151993800Y-65633600D02*
X151993800Y-61643579D01*
X151993800Y-62230000D02*
X150867296Y-62816421D01*
X151993800Y-62230000D02*
X150867296Y-61643579D01*
X51993800Y-62230000D02*
X53120304Y-62816421D01*
X51993800Y-62230000D02*
X53120304Y-61643579D01*
D11*
X182341942Y-175333742D02*
X182556228Y-175405171D01*
X182913371Y-175405171D01*
X183056228Y-175333742D01*
X183127657Y-175262314D01*
X183199085Y-175119457D01*
X183199085Y-174976600D01*
X183127657Y-174833742D01*
X183056228Y-174762314D01*
X182913371Y-174690885D01*
X182627657Y-174619457D01*
X182484800Y-174548028D01*
X182413371Y-174476600D01*
X182341942Y-174333742D01*
X182341942Y-174190885D01*
X182413371Y-174048028D01*
X182484800Y-173976600D01*
X182627657Y-173905171D01*
X182984800Y-173905171D01*
X183199085Y-173976600D01*
X183841942Y-175405171D02*
X183841942Y-173905171D01*
X184413371Y-173905171D01*
X184556228Y-173976600D01*
X184627657Y-174048028D01*
X184699085Y-174190885D01*
X184699085Y-174405171D01*
X184627657Y-174548028D01*
X184556228Y-174619457D01*
X184413371Y-174690885D01*
X183841942Y-174690885D01*
X186056228Y-175405171D02*
X185341942Y-175405171D01*
X185341942Y-173905171D01*
X186484800Y-174976600D02*
X187199085Y-174976600D01*
X186341942Y-175405171D02*
X186841942Y-173905171D01*
X187341942Y-175405171D01*
X187627657Y-173905171D02*
X188484800Y-173905171D01*
X188056228Y-175405171D02*
X188056228Y-173905171D01*
X188913371Y-174048028D02*
X188984800Y-173976600D01*
X189127657Y-173905171D01*
X189484800Y-173905171D01*
X189627657Y-173976600D01*
X189699085Y-174048028D01*
X189770514Y-174190885D01*
X189770514Y-174333742D01*
X189699085Y-174548028D01*
X188841942Y-175405171D01*
X189770514Y-175405171D01*
X191556228Y-175405171D02*
X191556228Y-173905171D01*
X191913371Y-173905171D01*
X192127657Y-173976600D01*
X192270514Y-174119457D01*
X192341942Y-174262314D01*
X192413371Y-174548028D01*
X192413371Y-174762314D01*
X192341942Y-175048028D01*
X192270514Y-175190885D01*
X192127657Y-175333742D01*
X191913371Y-175405171D01*
X191556228Y-175405171D01*
X193056228Y-174619457D02*
X193556228Y-174619457D01*
X193770514Y-175405171D02*
X193056228Y-175405171D01*
X193056228Y-173905171D01*
X193770514Y-173905171D01*
X194199085Y-173905171D02*
X194699085Y-175405171D01*
X195199085Y-173905171D01*
X195699085Y-174619457D02*
X196199085Y-174619457D01*
X196413371Y-175405171D02*
X195699085Y-175405171D01*
X195699085Y-173905171D01*
X196413371Y-173905171D01*
X197770514Y-175405171D02*
X197056228Y-175405171D01*
X197056228Y-173905171D01*
X198556228Y-173905171D02*
X198841942Y-173905171D01*
X198984800Y-173976600D01*
X199127657Y-174119457D01*
X199199085Y-174405171D01*
X199199085Y-174905171D01*
X199127657Y-175190885D01*
X198984800Y-175333742D01*
X198841942Y-175405171D01*
X198556228Y-175405171D01*
X198413371Y-175333742D01*
X198270514Y-175190885D01*
X198199085Y-174905171D01*
X198199085Y-174405171D01*
X198270514Y-174119457D01*
X198413371Y-173976600D01*
X198556228Y-173905171D01*
X199841942Y-175405171D02*
X199841942Y-173905171D01*
X200413371Y-173905171D01*
X200556228Y-173976600D01*
X200627657Y-174048028D01*
X200699085Y-174190885D01*
X200699085Y-174405171D01*
X200627657Y-174548028D01*
X200556228Y-174619457D01*
X200413371Y-174690885D01*
X199841942Y-174690885D01*
X201341942Y-175405171D02*
X201341942Y-173905171D01*
X201841942Y-174976600D01*
X202341942Y-173905171D01*
X202341942Y-175405171D01*
X203056228Y-174619457D02*
X203556228Y-174619457D01*
X203770514Y-175405171D02*
X203056228Y-175405171D01*
X203056228Y-173905171D01*
X203770514Y-173905171D01*
X204413371Y-175405171D02*
X204413371Y-173905171D01*
X205270514Y-175405171D01*
X205270514Y-173905171D01*
X205770514Y-173905171D02*
X206627657Y-173905171D01*
X206199085Y-175405171D02*
X206199085Y-173905171D01*
X208770514Y-174619457D02*
X208984800Y-174690885D01*
X209056228Y-174762314D01*
X209127657Y-174905171D01*
X209127657Y-175119457D01*
X209056228Y-175262314D01*
X208984800Y-175333742D01*
X208841942Y-175405171D01*
X208270514Y-175405171D01*
X208270514Y-173905171D01*
X208770514Y-173905171D01*
X208913371Y-173976600D01*
X208984800Y-174048028D01*
X209056228Y-174190885D01*
X209056228Y-174333742D01*
X208984800Y-174476600D01*
X208913371Y-174548028D01*
X208770514Y-174619457D01*
X208270514Y-174619457D01*
X210056228Y-173905171D02*
X210341942Y-173905171D01*
X210484800Y-173976600D01*
X210627657Y-174119457D01*
X210699085Y-174405171D01*
X210699085Y-174905171D01*
X210627657Y-175190885D01*
X210484800Y-175333742D01*
X210341942Y-175405171D01*
X210056228Y-175405171D01*
X209913371Y-175333742D01*
X209770514Y-175190885D01*
X209699085Y-174905171D01*
X209699085Y-174405171D01*
X209770514Y-174119457D01*
X209913371Y-173976600D01*
X210056228Y-173905171D01*
X211270514Y-174976600D02*
X211984800Y-174976600D01*
X211127657Y-175405171D02*
X211627657Y-173905171D01*
X212127657Y-175405171D01*
X213484800Y-175405171D02*
X212984800Y-174690885D01*
X212627657Y-175405171D02*
X212627657Y-173905171D01*
X213199085Y-173905171D01*
X213341942Y-173976600D01*
X213413371Y-174048028D01*
X213484800Y-174190885D01*
X213484800Y-174405171D01*
X213413371Y-174548028D01*
X213341942Y-174619457D01*
X213199085Y-174690885D01*
X212627657Y-174690885D01*
X214127657Y-175405171D02*
X214127657Y-173905171D01*
X214484800Y-173905171D01*
X214699085Y-173976600D01*
X214841942Y-174119457D01*
X214913371Y-174262314D01*
X214984800Y-174548028D01*
X214984800Y-174762314D01*
X214913371Y-175048028D01*
X214841942Y-175190885D01*
X214699085Y-175333742D01*
X214484800Y-175405171D01*
X214127657Y-175405171D01*
X216556228Y-173905171D02*
X217056228Y-175405171D01*
X217556228Y-173905171D01*
X218841942Y-175405171D02*
X217984800Y-175405171D01*
X218413371Y-175405171D02*
X218413371Y-173905171D01*
X218270514Y-174119457D01*
X218127657Y-174262314D01*
X217984800Y-174333742D01*
X220627657Y-175262314D02*
X220699085Y-175333742D01*
X220627657Y-175405171D01*
X220556228Y-175333742D01*
X220627657Y-175262314D01*
X220627657Y-175405171D01*
X221627657Y-173905171D02*
X221770514Y-173905171D01*
X221913371Y-173976600D01*
X221984800Y-174048028D01*
X222056228Y-174190885D01*
X222127657Y-174476600D01*
X222127657Y-174833742D01*
X222056228Y-175119457D01*
X221984800Y-175262314D01*
X221913371Y-175333742D01*
X221770514Y-175405171D01*
X221627657Y-175405171D01*
X221484800Y-175333742D01*
X221413371Y-175262314D01*
X221341942Y-175119457D01*
X221270514Y-174833742D01*
X221270514Y-174476600D01*
X221341942Y-174190885D01*
X221413371Y-174048028D01*
X221484800Y-173976600D01*
X221627657Y-173905171D01*
D12*
G36*
X70996600Y-157461500D02*
G01*
X70996600Y-138538500D01*
X76990000Y-138500400D01*
X76990000Y-157423400D01*
X70996600Y-157461500D01*
G37*
X70996600Y-157461500D02*
X70996600Y-138538500D01*
X76990000Y-138500400D01*
X76990000Y-157423400D01*
X70996600Y-157461500D01*
D13*
X86842600Y-110591600D02*
X86842600Y-129413000D01*
X86842600Y-110591600D02*
X101117400Y-110591600D01*
X101117400Y-129413000D02*
X86842600Y-129413000D01*
X101117400Y-110591600D02*
X101117400Y-129413000D01*
M02*
