G04 #@! TF.GenerationSoftware,KiCad,Pcbnew,(5.1.12)-1*
G04 #@! TF.CreationDate,2021-12-04T17:22:21+10:00*
G04 #@! TF.ProjectId,stmsplat2,73746d73-706c-4617-9432-2e6b69636164,rev?*
G04 #@! TF.SameCoordinates,Original*
G04 #@! TF.FileFunction,Legend,Top*
G04 #@! TF.FilePolarity,Positive*
%FSLAX46Y46*%
G04 Gerber Fmt 4.6, Leading zero omitted, Abs format (unit mm)*
G04 Created by KiCad (PCBNEW (5.1.12)-1) date 2021-12-04 17:22:21*
%MOMM*%
%LPD*%
G01*
G04 APERTURE LIST*
%ADD10C,0.177800*%
%ADD11C,0.300000*%
%ADD12C,0.158750*%
%ADD13C,0.127000*%
%ADD14C,0.200000*%
%ADD15C,0.150000*%
%ADD16C,0.120000*%
%ADD17C,0.152400*%
%ADD18C,0.100000*%
G04 APERTURE END LIST*
D10*
X124677714Y-106967866D02*
X124677714Y-107602866D01*
X124629333Y-107729866D01*
X124532571Y-107814533D01*
X124387428Y-107856866D01*
X124290666Y-107856866D01*
X125693714Y-107856866D02*
X125113142Y-107856866D01*
X125403428Y-107856866D02*
X125403428Y-106967866D01*
X125306666Y-107094866D01*
X125209904Y-107179533D01*
X125113142Y-107221866D01*
X126564571Y-107264200D02*
X126564571Y-107856866D01*
X126322666Y-106925533D02*
X126080761Y-107560533D01*
X126709714Y-107560533D01*
X127096761Y-107772200D02*
X127145142Y-107814533D01*
X127096761Y-107856866D01*
X127048380Y-107814533D01*
X127096761Y-107772200D01*
X127096761Y-107856866D01*
X127096761Y-107306533D02*
X127145142Y-107348866D01*
X127096761Y-107391200D01*
X127048380Y-107348866D01*
X127096761Y-107306533D01*
X127096761Y-107391200D01*
X128354666Y-107856866D02*
X128354666Y-106967866D01*
X128596571Y-106967866D01*
X128741714Y-107010200D01*
X128838476Y-107094866D01*
X128886857Y-107179533D01*
X128935238Y-107348866D01*
X128935238Y-107475866D01*
X128886857Y-107645200D01*
X128838476Y-107729866D01*
X128741714Y-107814533D01*
X128596571Y-107856866D01*
X128354666Y-107856866D01*
X129322285Y-107602866D02*
X129806095Y-107602866D01*
X129225523Y-107856866D02*
X129564190Y-106967866D01*
X129902857Y-107856866D01*
X130822095Y-107772200D02*
X130773714Y-107814533D01*
X130628571Y-107856866D01*
X130531809Y-107856866D01*
X130386666Y-107814533D01*
X130289904Y-107729866D01*
X130241523Y-107645200D01*
X130193142Y-107475866D01*
X130193142Y-107348866D01*
X130241523Y-107179533D01*
X130289904Y-107094866D01*
X130386666Y-107010200D01*
X130531809Y-106967866D01*
X130628571Y-106967866D01*
X130773714Y-107010200D01*
X130822095Y-107052533D01*
X132225142Y-106967866D02*
X132418666Y-106967866D01*
X132515428Y-107010200D01*
X132612190Y-107094866D01*
X132660571Y-107264200D01*
X132660571Y-107560533D01*
X132612190Y-107729866D01*
X132515428Y-107814533D01*
X132418666Y-107856866D01*
X132225142Y-107856866D01*
X132128380Y-107814533D01*
X132031619Y-107729866D01*
X131983238Y-107560533D01*
X131983238Y-107264200D01*
X132031619Y-107094866D01*
X132128380Y-107010200D01*
X132225142Y-106967866D01*
X133821714Y-106925533D02*
X132950857Y-108068533D01*
X134160380Y-107856866D02*
X134160380Y-106967866D01*
X134547428Y-106967866D01*
X134644190Y-107010200D01*
X134692571Y-107052533D01*
X134740952Y-107137200D01*
X134740952Y-107264200D01*
X134692571Y-107348866D01*
X134644190Y-107391200D01*
X134547428Y-107433533D01*
X134160380Y-107433533D01*
X125379238Y-108479166D02*
X125379238Y-109114166D01*
X125330857Y-109241166D01*
X125234095Y-109325833D01*
X125088952Y-109368166D01*
X124992190Y-109368166D01*
X126395238Y-109368166D02*
X125814666Y-109368166D01*
X126104952Y-109368166D02*
X126104952Y-108479166D01*
X126008190Y-108606166D01*
X125911428Y-108690833D01*
X125814666Y-108733166D01*
X127024190Y-108479166D02*
X127120952Y-108479166D01*
X127217714Y-108521500D01*
X127266095Y-108563833D01*
X127314476Y-108648500D01*
X127362857Y-108817833D01*
X127362857Y-109029500D01*
X127314476Y-109198833D01*
X127266095Y-109283500D01*
X127217714Y-109325833D01*
X127120952Y-109368166D01*
X127024190Y-109368166D01*
X126927428Y-109325833D01*
X126879047Y-109283500D01*
X126830666Y-109198833D01*
X126782285Y-109029500D01*
X126782285Y-108817833D01*
X126830666Y-108648500D01*
X126879047Y-108563833D01*
X126927428Y-108521500D01*
X127024190Y-108479166D01*
X127798285Y-109283500D02*
X127846666Y-109325833D01*
X127798285Y-109368166D01*
X127749904Y-109325833D01*
X127798285Y-109283500D01*
X127798285Y-109368166D01*
X127798285Y-108817833D02*
X127846666Y-108860166D01*
X127798285Y-108902500D01*
X127749904Y-108860166D01*
X127798285Y-108817833D01*
X127798285Y-108902500D01*
X129007809Y-109325833D02*
X129152952Y-109368166D01*
X129394857Y-109368166D01*
X129491619Y-109325833D01*
X129540000Y-109283500D01*
X129588380Y-109198833D01*
X129588380Y-109114166D01*
X129540000Y-109029500D01*
X129491619Y-108987166D01*
X129394857Y-108944833D01*
X129201333Y-108902500D01*
X129104571Y-108860166D01*
X129056190Y-108817833D01*
X129007809Y-108733166D01*
X129007809Y-108648500D01*
X129056190Y-108563833D01*
X129104571Y-108521500D01*
X129201333Y-108479166D01*
X129443238Y-108479166D01*
X129588380Y-108521500D01*
X130023809Y-108902500D02*
X130362476Y-108902500D01*
X130507619Y-109368166D02*
X130023809Y-109368166D01*
X130023809Y-108479166D01*
X130507619Y-108479166D01*
X131426857Y-109368166D02*
X130943047Y-109368166D01*
X130943047Y-108479166D01*
X131765523Y-108902500D02*
X132104190Y-108902500D01*
X132249333Y-109368166D02*
X131765523Y-109368166D01*
X131765523Y-108479166D01*
X132249333Y-108479166D01*
X133265333Y-109283500D02*
X133216952Y-109325833D01*
X133071809Y-109368166D01*
X132975047Y-109368166D01*
X132829904Y-109325833D01*
X132733142Y-109241166D01*
X132684761Y-109156500D01*
X132636380Y-108987166D01*
X132636380Y-108860166D01*
X132684761Y-108690833D01*
X132733142Y-108606166D01*
X132829904Y-108521500D01*
X132975047Y-108479166D01*
X133071809Y-108479166D01*
X133216952Y-108521500D01*
X133265333Y-108563833D01*
X133555619Y-108479166D02*
X134136190Y-108479166D01*
X133845904Y-109368166D02*
X133845904Y-108479166D01*
X124726095Y-109990466D02*
X124726095Y-110625466D01*
X124677714Y-110752466D01*
X124580952Y-110837133D01*
X124435809Y-110879466D01*
X124339047Y-110879466D01*
X125742095Y-110879466D02*
X125161523Y-110879466D01*
X125451809Y-110879466D02*
X125451809Y-109990466D01*
X125355047Y-110117466D01*
X125258285Y-110202133D01*
X125161523Y-110244466D01*
X126709714Y-110879466D02*
X126129142Y-110879466D01*
X126419428Y-110879466D02*
X126419428Y-109990466D01*
X126322666Y-110117466D01*
X126225904Y-110202133D01*
X126129142Y-110244466D01*
X127145142Y-110794800D02*
X127193523Y-110837133D01*
X127145142Y-110879466D01*
X127096761Y-110837133D01*
X127145142Y-110794800D01*
X127145142Y-110879466D01*
X127145142Y-110329133D02*
X127193523Y-110371466D01*
X127145142Y-110413800D01*
X127096761Y-110371466D01*
X127145142Y-110329133D01*
X127145142Y-110413800D01*
X128354666Y-110837133D02*
X128499809Y-110879466D01*
X128741714Y-110879466D01*
X128838476Y-110837133D01*
X128886857Y-110794800D01*
X128935238Y-110710133D01*
X128935238Y-110625466D01*
X128886857Y-110540800D01*
X128838476Y-110498466D01*
X128741714Y-110456133D01*
X128548190Y-110413800D01*
X128451428Y-110371466D01*
X128403047Y-110329133D01*
X128354666Y-110244466D01*
X128354666Y-110159800D01*
X128403047Y-110075133D01*
X128451428Y-110032800D01*
X128548190Y-109990466D01*
X128790095Y-109990466D01*
X128935238Y-110032800D01*
X129370666Y-110879466D02*
X129370666Y-109990466D01*
X129757714Y-109990466D01*
X129854476Y-110032800D01*
X129902857Y-110075133D01*
X129951238Y-110159800D01*
X129951238Y-110286800D01*
X129902857Y-110371466D01*
X129854476Y-110413800D01*
X129757714Y-110456133D01*
X129370666Y-110456133D01*
X130386666Y-110413800D02*
X130725333Y-110413800D01*
X130870476Y-110879466D02*
X130386666Y-110879466D01*
X130386666Y-109990466D01*
X130870476Y-109990466D01*
X131257523Y-110625466D02*
X131741333Y-110625466D01*
X131160761Y-110879466D02*
X131499428Y-109990466D01*
X131838095Y-110879466D01*
X132176761Y-110879466D02*
X132176761Y-109990466D01*
X132757333Y-110879466D02*
X132321904Y-110371466D01*
X132757333Y-109990466D02*
X132176761Y-110498466D01*
X133192761Y-110413800D02*
X133531428Y-110413800D01*
X133676571Y-110879466D02*
X133192761Y-110879466D01*
X133192761Y-109990466D01*
X133676571Y-109990466D01*
X134692571Y-110879466D02*
X134353904Y-110456133D01*
X134112000Y-110879466D02*
X134112000Y-109990466D01*
X134499047Y-109990466D01*
X134595809Y-110032800D01*
X134644190Y-110075133D01*
X134692571Y-110159800D01*
X134692571Y-110286800D01*
X134644190Y-110371466D01*
X134595809Y-110413800D01*
X134499047Y-110456133D01*
X134112000Y-110456133D01*
D11*
X62035714Y-154602571D02*
X62035714Y-153102571D01*
X62678571Y-153245428D02*
X62750000Y-153174000D01*
X62892857Y-153102571D01*
X63250000Y-153102571D01*
X63392857Y-153174000D01*
X63464285Y-153245428D01*
X63535714Y-153388285D01*
X63535714Y-153531142D01*
X63464285Y-153745428D01*
X62607142Y-154602571D01*
X63535714Y-154602571D01*
X65035714Y-154459714D02*
X64964285Y-154531142D01*
X64750000Y-154602571D01*
X64607142Y-154602571D01*
X64392857Y-154531142D01*
X64250000Y-154388285D01*
X64178571Y-154245428D01*
X64107142Y-153959714D01*
X64107142Y-153745428D01*
X64178571Y-153459714D01*
X64250000Y-153316857D01*
X64392857Y-153174000D01*
X64607142Y-153102571D01*
X64750000Y-153102571D01*
X64964285Y-153174000D01*
X65035714Y-153245428D01*
X105128571Y-163214857D02*
X105342857Y-163286285D01*
X105414285Y-163357714D01*
X105485714Y-163500571D01*
X105485714Y-163714857D01*
X105414285Y-163857714D01*
X105342857Y-163929142D01*
X105200000Y-164000571D01*
X104628571Y-164000571D01*
X104628571Y-162500571D01*
X105128571Y-162500571D01*
X105271428Y-162572000D01*
X105342857Y-162643428D01*
X105414285Y-162786285D01*
X105414285Y-162929142D01*
X105342857Y-163072000D01*
X105271428Y-163143428D01*
X105128571Y-163214857D01*
X104628571Y-163214857D01*
X107200000Y-162429142D02*
X105914285Y-164357714D01*
X107985714Y-162500571D02*
X108271428Y-162500571D01*
X108414285Y-162572000D01*
X108557142Y-162714857D01*
X108628571Y-163000571D01*
X108628571Y-163500571D01*
X108557142Y-163786285D01*
X108414285Y-163929142D01*
X108271428Y-164000571D01*
X107985714Y-164000571D01*
X107842857Y-163929142D01*
X107700000Y-163786285D01*
X107628571Y-163500571D01*
X107628571Y-163000571D01*
X107700000Y-162714857D01*
X107842857Y-162572000D01*
X107985714Y-162500571D01*
X109271428Y-162500571D02*
X109271428Y-163714857D01*
X109342857Y-163857714D01*
X109414285Y-163929142D01*
X109557142Y-164000571D01*
X109842857Y-164000571D01*
X109985714Y-163929142D01*
X110057142Y-163857714D01*
X110128571Y-163714857D01*
X110128571Y-162500571D01*
X110628571Y-162500571D02*
X111485714Y-162500571D01*
X111057142Y-164000571D02*
X111057142Y-162500571D01*
X60896857Y-137608571D02*
X60896857Y-138680000D01*
X60825428Y-138894285D01*
X60682571Y-139037142D01*
X60468285Y-139108571D01*
X60325428Y-139108571D01*
X61611142Y-138537142D02*
X62754000Y-138537142D01*
X64182571Y-139108571D02*
X63468285Y-139108571D01*
X63468285Y-137608571D01*
X64682571Y-139108571D02*
X64682571Y-137608571D01*
X65539714Y-139108571D01*
X65539714Y-137608571D01*
X66254000Y-139108571D02*
X66254000Y-137608571D01*
X67111142Y-139108571D02*
X66468285Y-138251428D01*
X67111142Y-137608571D02*
X66254000Y-138465714D01*
X62321428Y-67591714D02*
X62250000Y-67663142D01*
X62035714Y-67734571D01*
X61892857Y-67734571D01*
X61678571Y-67663142D01*
X61535714Y-67520285D01*
X61464285Y-67377428D01*
X61392857Y-67091714D01*
X61392857Y-66877428D01*
X61464285Y-66591714D01*
X61535714Y-66448857D01*
X61678571Y-66306000D01*
X61892857Y-66234571D01*
X62035714Y-66234571D01*
X62250000Y-66306000D01*
X62321428Y-66377428D01*
X63250000Y-66234571D02*
X63535714Y-66234571D01*
X63678571Y-66306000D01*
X63821428Y-66448857D01*
X63892857Y-66734571D01*
X63892857Y-67234571D01*
X63821428Y-67520285D01*
X63678571Y-67663142D01*
X63535714Y-67734571D01*
X63250000Y-67734571D01*
X63107142Y-67663142D01*
X62964285Y-67520285D01*
X62892857Y-67234571D01*
X62892857Y-66734571D01*
X62964285Y-66448857D01*
X63107142Y-66306000D01*
X63250000Y-66234571D01*
X64535714Y-67734571D02*
X64535714Y-66234571D01*
X65035714Y-67306000D01*
X65535714Y-66234571D01*
X65535714Y-67734571D01*
X60714285Y-96944571D02*
X60714285Y-95444571D01*
X61071428Y-95444571D01*
X61285714Y-95516000D01*
X61428571Y-95658857D01*
X61500000Y-95801714D01*
X61571428Y-96087428D01*
X61571428Y-96301714D01*
X61500000Y-96587428D01*
X61428571Y-96730285D01*
X61285714Y-96873142D01*
X61071428Y-96944571D01*
X60714285Y-96944571D01*
X63071428Y-96801714D02*
X63000000Y-96873142D01*
X62785714Y-96944571D01*
X62642857Y-96944571D01*
X62428571Y-96873142D01*
X62285714Y-96730285D01*
X62214285Y-96587428D01*
X62142857Y-96301714D01*
X62142857Y-96087428D01*
X62214285Y-95801714D01*
X62285714Y-95658857D01*
X62428571Y-95516000D01*
X62642857Y-95444571D01*
X62785714Y-95444571D01*
X63000000Y-95516000D01*
X63071428Y-95587428D01*
X64000000Y-95444571D02*
X64285714Y-95444571D01*
X64428571Y-95516000D01*
X64571428Y-95658857D01*
X64642857Y-95944571D01*
X64642857Y-96444571D01*
X64571428Y-96730285D01*
X64428571Y-96873142D01*
X64285714Y-96944571D01*
X64000000Y-96944571D01*
X63857142Y-96873142D01*
X63714285Y-96730285D01*
X63642857Y-96444571D01*
X63642857Y-95944571D01*
X63714285Y-95658857D01*
X63857142Y-95516000D01*
X64000000Y-95444571D01*
X65285714Y-96944571D02*
X65285714Y-95444571D01*
X65785714Y-96516000D01*
X66285714Y-95444571D01*
X66285714Y-96944571D01*
D12*
X130646714Y-126661333D02*
X131154714Y-126661333D01*
X130356428Y-126873000D02*
X130900714Y-127084666D01*
X130900714Y-126534333D01*
X130392714Y-126280333D02*
X130392714Y-125730000D01*
X130683000Y-126026333D01*
X130683000Y-125899333D01*
X130719285Y-125814666D01*
X130755571Y-125772333D01*
X130828142Y-125730000D01*
X131009571Y-125730000D01*
X131082142Y-125772333D01*
X131118428Y-125814666D01*
X131154714Y-125899333D01*
X131154714Y-126153333D01*
X131118428Y-126238000D01*
X131082142Y-126280333D01*
X130392714Y-125433666D02*
X130392714Y-124883333D01*
X130683000Y-125179666D01*
X130683000Y-125052666D01*
X130719285Y-124968000D01*
X130755571Y-124925666D01*
X130828142Y-124883333D01*
X131009571Y-124883333D01*
X131082142Y-124925666D01*
X131118428Y-124968000D01*
X131154714Y-125052666D01*
X131154714Y-125306666D01*
X131118428Y-125391333D01*
X131082142Y-125433666D01*
X130429000Y-123359333D02*
X130392714Y-123444000D01*
X130392714Y-123571000D01*
X130429000Y-123698000D01*
X130501571Y-123782666D01*
X130574142Y-123825000D01*
X130719285Y-123867333D01*
X130828142Y-123867333D01*
X130973285Y-123825000D01*
X131045857Y-123782666D01*
X131118428Y-123698000D01*
X131154714Y-123571000D01*
X131154714Y-123486333D01*
X131118428Y-123359333D01*
X131082142Y-123317000D01*
X130828142Y-123317000D01*
X130828142Y-123486333D01*
X130755571Y-122639666D02*
X130755571Y-122936000D01*
X131154714Y-122936000D02*
X130392714Y-122936000D01*
X130392714Y-122512666D01*
X131118428Y-122216333D02*
X131154714Y-122089333D01*
X131154714Y-121877666D01*
X131118428Y-121793000D01*
X131082142Y-121750666D01*
X131009571Y-121708333D01*
X130937000Y-121708333D01*
X130864428Y-121750666D01*
X130828142Y-121793000D01*
X130791857Y-121877666D01*
X130755571Y-122047000D01*
X130719285Y-122131666D01*
X130683000Y-122174000D01*
X130610428Y-122216333D01*
X130537857Y-122216333D01*
X130465285Y-122174000D01*
X130429000Y-122131666D01*
X130392714Y-122047000D01*
X130392714Y-121835333D01*
X130429000Y-121708333D01*
X131154714Y-121327333D02*
X130392714Y-121327333D01*
X131154714Y-120819333D02*
X130719285Y-121200333D01*
X130392714Y-120819333D02*
X130828142Y-121327333D01*
D11*
X86711971Y-133253521D02*
X86984114Y-133344235D01*
X87437685Y-133344235D01*
X87619114Y-133253521D01*
X87709828Y-133162807D01*
X87800542Y-132981378D01*
X87800542Y-132799950D01*
X87709828Y-132618521D01*
X87619114Y-132527807D01*
X87437685Y-132437092D01*
X87074828Y-132346378D01*
X86893400Y-132255664D01*
X86802685Y-132164950D01*
X86711971Y-131983521D01*
X86711971Y-131802092D01*
X86802685Y-131620664D01*
X86893400Y-131529950D01*
X87074828Y-131439235D01*
X87528400Y-131439235D01*
X87800542Y-131529950D01*
X88616971Y-133344235D02*
X88616971Y-131439235D01*
X89342685Y-131439235D01*
X89524114Y-131529950D01*
X89614828Y-131620664D01*
X89705542Y-131802092D01*
X89705542Y-132074235D01*
X89614828Y-132255664D01*
X89524114Y-132346378D01*
X89342685Y-132437092D01*
X88616971Y-132437092D01*
X91429114Y-133344235D02*
X90521971Y-133344235D01*
X90521971Y-131439235D01*
X91973400Y-132799950D02*
X92880542Y-132799950D01*
X91791971Y-133344235D02*
X92426971Y-131439235D01*
X93061971Y-133344235D01*
X93424828Y-131439235D02*
X94513400Y-131439235D01*
X93969114Y-133344235D02*
X93969114Y-131439235D01*
X95057685Y-131620664D02*
X95148400Y-131529950D01*
X95329828Y-131439235D01*
X95783400Y-131439235D01*
X95964828Y-131529950D01*
X96055542Y-131620664D01*
X96146257Y-131802092D01*
X96146257Y-131983521D01*
X96055542Y-132255664D01*
X94966971Y-133344235D01*
X96146257Y-133344235D01*
X98232685Y-132074235D02*
X98686257Y-133344235D01*
X99139828Y-132074235D01*
X100863400Y-133344235D02*
X99774828Y-133344235D01*
X100319114Y-133344235D02*
X100319114Y-131439235D01*
X100137685Y-131711378D01*
X99956257Y-131892807D01*
X99774828Y-131983521D01*
X101679828Y-133162807D02*
X101770542Y-133253521D01*
X101679828Y-133344235D01*
X101589114Y-133253521D01*
X101679828Y-133162807D01*
X101679828Y-133344235D01*
X102949828Y-131439235D02*
X103131257Y-131439235D01*
X103312685Y-131529950D01*
X103403400Y-131620664D01*
X103494114Y-131802092D01*
X103584828Y-132164950D01*
X103584828Y-132618521D01*
X103494114Y-132981378D01*
X103403400Y-133162807D01*
X103312685Y-133253521D01*
X103131257Y-133344235D01*
X102949828Y-133344235D01*
X102768400Y-133253521D01*
X102677685Y-133162807D01*
X102586971Y-132981378D01*
X102496257Y-132618521D01*
X102496257Y-132164950D01*
X102586971Y-131802092D01*
X102677685Y-131620664D01*
X102768400Y-131529950D01*
X102949828Y-131439235D01*
X86711971Y-136501735D02*
X86711971Y-134596735D01*
X86711971Y-135322450D02*
X86893400Y-135231735D01*
X87256257Y-135231735D01*
X87437685Y-135322450D01*
X87528400Y-135413164D01*
X87619114Y-135594592D01*
X87619114Y-136138878D01*
X87528400Y-136320307D01*
X87437685Y-136411021D01*
X87256257Y-136501735D01*
X86893400Y-136501735D01*
X86711971Y-136411021D01*
X89251971Y-136501735D02*
X89251971Y-134596735D01*
X89251971Y-136411021D02*
X89070542Y-136501735D01*
X88707685Y-136501735D01*
X88526257Y-136411021D01*
X88435542Y-136320307D01*
X88344828Y-136138878D01*
X88344828Y-135594592D01*
X88435542Y-135413164D01*
X88526257Y-135322450D01*
X88707685Y-135231735D01*
X89070542Y-135231735D01*
X89251971Y-135322450D01*
X90975542Y-136501735D02*
X90975542Y-135503878D01*
X90884828Y-135322450D01*
X90703400Y-135231735D01*
X90340542Y-135231735D01*
X90159114Y-135322450D01*
X90975542Y-136411021D02*
X90794114Y-136501735D01*
X90340542Y-136501735D01*
X90159114Y-136411021D01*
X90068400Y-136229592D01*
X90068400Y-136048164D01*
X90159114Y-135866735D01*
X90340542Y-135776021D01*
X90794114Y-135776021D01*
X90975542Y-135685307D01*
X91882685Y-136501735D02*
X91882685Y-135231735D01*
X91882685Y-135594592D02*
X91973400Y-135413164D01*
X92064114Y-135322450D01*
X92245542Y-135231735D01*
X92426971Y-135231735D01*
X92971257Y-136411021D02*
X93152685Y-136501735D01*
X93515542Y-136501735D01*
X93696971Y-136411021D01*
X93787685Y-136229592D01*
X93787685Y-136138878D01*
X93696971Y-135957450D01*
X93515542Y-135866735D01*
X93243400Y-135866735D01*
X93061971Y-135776021D01*
X92971257Y-135594592D01*
X92971257Y-135503878D01*
X93061971Y-135322450D01*
X93243400Y-135231735D01*
X93515542Y-135231735D01*
X93696971Y-135322450D01*
X94604114Y-136320307D02*
X94694828Y-136411021D01*
X94604114Y-136501735D01*
X94513400Y-136411021D01*
X94604114Y-136320307D01*
X94604114Y-136501735D01*
X95783400Y-136501735D02*
X95601971Y-136411021D01*
X95511257Y-136320307D01*
X95420542Y-136138878D01*
X95420542Y-135594592D01*
X95511257Y-135413164D01*
X95601971Y-135322450D01*
X95783400Y-135231735D01*
X96055542Y-135231735D01*
X96236971Y-135322450D01*
X96327685Y-135413164D01*
X96418400Y-135594592D01*
X96418400Y-136138878D01*
X96327685Y-136320307D01*
X96236971Y-136411021D01*
X96055542Y-136501735D01*
X95783400Y-136501735D01*
X97234828Y-136501735D02*
X97234828Y-135231735D01*
X97234828Y-135594592D02*
X97325542Y-135413164D01*
X97416257Y-135322450D01*
X97597685Y-135231735D01*
X97779114Y-135231735D01*
X99230542Y-135231735D02*
X99230542Y-136773878D01*
X99139828Y-136955307D01*
X99049114Y-137046021D01*
X98867685Y-137136735D01*
X98595542Y-137136735D01*
X98414114Y-137046021D01*
X99230542Y-136411021D02*
X99049114Y-136501735D01*
X98686257Y-136501735D01*
X98504828Y-136411021D01*
X98414114Y-136320307D01*
X98323400Y-136138878D01*
X98323400Y-135594592D01*
X98414114Y-135413164D01*
X98504828Y-135322450D01*
X98686257Y-135231735D01*
X99049114Y-135231735D01*
X99230542Y-135322450D01*
X100137685Y-136320307D02*
X100228400Y-136411021D01*
X100137685Y-136501735D01*
X100046971Y-136411021D01*
X100137685Y-136320307D01*
X100137685Y-136501735D01*
X101861257Y-136501735D02*
X101861257Y-135503878D01*
X101770542Y-135322450D01*
X101589114Y-135231735D01*
X101226257Y-135231735D01*
X101044828Y-135322450D01*
X101861257Y-136411021D02*
X101679828Y-136501735D01*
X101226257Y-136501735D01*
X101044828Y-136411021D01*
X100954114Y-136229592D01*
X100954114Y-136048164D01*
X101044828Y-135866735D01*
X101226257Y-135776021D01*
X101679828Y-135776021D01*
X101861257Y-135685307D01*
X103584828Y-135231735D02*
X103584828Y-136501735D01*
X102768400Y-135231735D02*
X102768400Y-136229592D01*
X102859114Y-136411021D01*
X103040542Y-136501735D01*
X103312685Y-136501735D01*
X103494114Y-136411021D01*
X103584828Y-136320307D01*
X62210285Y-81958571D02*
X61496000Y-81958571D01*
X61496000Y-80458571D01*
X63567428Y-81815714D02*
X63496000Y-81887142D01*
X63281714Y-81958571D01*
X63138857Y-81958571D01*
X62924571Y-81887142D01*
X62781714Y-81744285D01*
X62710285Y-81601428D01*
X62638857Y-81315714D01*
X62638857Y-81101428D01*
X62710285Y-80815714D01*
X62781714Y-80672857D01*
X62924571Y-80530000D01*
X63138857Y-80458571D01*
X63281714Y-80458571D01*
X63496000Y-80530000D01*
X63567428Y-80601428D01*
X64210285Y-81958571D02*
X64210285Y-80458571D01*
X64567428Y-80458571D01*
X64781714Y-80530000D01*
X64924571Y-80672857D01*
X64996000Y-80815714D01*
X65067428Y-81101428D01*
X65067428Y-81315714D01*
X64996000Y-81601428D01*
X64924571Y-81744285D01*
X64781714Y-81887142D01*
X64567428Y-81958571D01*
X64210285Y-81958571D01*
X144653142Y-122440000D02*
X144510285Y-122368571D01*
X144296000Y-122368571D01*
X144081714Y-122440000D01*
X143938857Y-122582857D01*
X143867428Y-122725714D01*
X143796000Y-123011428D01*
X143796000Y-123225714D01*
X143867428Y-123511428D01*
X143938857Y-123654285D01*
X144081714Y-123797142D01*
X144296000Y-123868571D01*
X144438857Y-123868571D01*
X144653142Y-123797142D01*
X144724571Y-123725714D01*
X144724571Y-123225714D01*
X144438857Y-123225714D01*
X145367428Y-123868571D02*
X145367428Y-122368571D01*
X146224571Y-123868571D01*
X146224571Y-122368571D01*
X146938857Y-123868571D02*
X146938857Y-122368571D01*
X147296000Y-122368571D01*
X147510285Y-122440000D01*
X147653142Y-122582857D01*
X147724571Y-122725714D01*
X147796000Y-123011428D01*
X147796000Y-123225714D01*
X147724571Y-123511428D01*
X147653142Y-123654285D01*
X147510285Y-123797142D01*
X147296000Y-123868571D01*
X146938857Y-123868571D01*
X79375142Y-134632000D02*
X79232285Y-134560571D01*
X79018000Y-134560571D01*
X78803714Y-134632000D01*
X78660857Y-134774857D01*
X78589428Y-134917714D01*
X78518000Y-135203428D01*
X78518000Y-135417714D01*
X78589428Y-135703428D01*
X78660857Y-135846285D01*
X78803714Y-135989142D01*
X79018000Y-136060571D01*
X79160857Y-136060571D01*
X79375142Y-135989142D01*
X79446571Y-135917714D01*
X79446571Y-135417714D01*
X79160857Y-135417714D01*
X80089428Y-136060571D02*
X80089428Y-134560571D01*
X80946571Y-136060571D01*
X80946571Y-134560571D01*
X81660857Y-136060571D02*
X81660857Y-134560571D01*
X82018000Y-134560571D01*
X82232285Y-134632000D01*
X82375142Y-134774857D01*
X82446571Y-134917714D01*
X82518000Y-135203428D01*
X82518000Y-135417714D01*
X82446571Y-135703428D01*
X82375142Y-135846285D01*
X82232285Y-135989142D01*
X82018000Y-136060571D01*
X81660857Y-136060571D01*
D13*
X137730929Y-117830600D02*
X137730929Y-121818400D01*
X137730929Y-113462800D02*
X137730929Y-113842800D01*
X123393200Y-113436400D02*
X137705800Y-113436400D01*
D14*
X139182800Y-114415400D02*
G75*
G03*
X139182800Y-114415400I-100000J0D01*
G01*
D13*
X123381071Y-133807200D02*
X123381071Y-132972423D01*
X123393200Y-133807200D02*
X137730909Y-133807200D01*
X137730929Y-133807200D02*
X137730909Y-132972423D01*
X123381071Y-117830600D02*
X123381071Y-121818400D01*
X123381071Y-113462800D02*
X123381071Y-113842800D01*
D14*
X124790600Y-140868200D02*
G75*
G03*
X124790600Y-140868200I-101600J0D01*
G01*
D15*
X127595400Y-165430000D02*
X122595400Y-165430000D01*
X138514000Y-164922000D02*
X121514000Y-164922000D01*
X121514000Y-164922000D02*
X121514000Y-142062000D01*
X121514000Y-142062000D02*
X124054000Y-142062000D01*
X124054000Y-142062000D02*
X138514000Y-142062000D01*
X138514000Y-142062000D02*
X138514000Y-164922000D01*
X127635400Y-165430000D02*
X127635400Y-164922000D01*
X122555400Y-165430000D02*
X122555400Y-164922000D01*
D16*
X123090000Y-76859564D02*
X123090000Y-76405436D01*
X124560000Y-76859564D02*
X124560000Y-76405436D01*
X123090000Y-84249564D02*
X123090000Y-83795436D01*
X124560000Y-84249564D02*
X124560000Y-83795436D01*
X99094000Y-86072000D02*
X100794000Y-86072000D01*
X104614000Y-86072000D02*
X102914000Y-86072000D01*
X104614000Y-81616437D02*
X104614000Y-86072000D01*
X99094000Y-81616437D02*
X99094000Y-86072000D01*
X100158437Y-80552000D02*
X100794000Y-80552000D01*
X103549563Y-80552000D02*
X102914000Y-80552000D01*
X103549563Y-80552000D02*
X104614000Y-81616437D01*
X100158437Y-80552000D02*
X99094000Y-81616437D01*
X103539000Y-79687000D02*
X103539000Y-80312000D01*
X103851500Y-79999500D02*
X103226500Y-79999500D01*
X70044000Y-89214000D02*
X72704000Y-89214000D01*
X70044000Y-86614000D02*
X70044000Y-89214000D01*
X72704000Y-86614000D02*
X72704000Y-89214000D01*
X70044000Y-86614000D02*
X72704000Y-86614000D01*
X70044000Y-85344000D02*
X70044000Y-84014000D01*
X70044000Y-84014000D02*
X71374000Y-84014000D01*
X76439000Y-91086800D02*
X70119000Y-91086800D01*
X78479000Y-96278800D02*
X76439000Y-96278800D01*
X76439000Y-97227800D02*
X76439000Y-96278800D01*
X76439000Y-97227800D02*
X70119000Y-97227800D01*
X70119000Y-97227800D02*
X70119000Y-95488800D01*
X76439000Y-92826800D02*
X76439000Y-91086800D01*
X70119000Y-92826800D02*
X70119000Y-91086800D01*
X66005400Y-89214000D02*
X68665400Y-89214000D01*
X66005400Y-86614000D02*
X66005400Y-89214000D01*
X68665400Y-86614000D02*
X68665400Y-89214000D01*
X66005400Y-86614000D02*
X68665400Y-86614000D01*
X66005400Y-85344000D02*
X66005400Y-84014000D01*
X66005400Y-84014000D02*
X67335400Y-84014000D01*
X67710000Y-129940000D02*
X67710000Y-132290000D01*
X67710000Y-136760000D02*
X67710000Y-134410000D01*
X73465563Y-136760000D02*
X67710000Y-136760000D01*
X73465563Y-129940000D02*
X67710000Y-129940000D01*
X74530000Y-131004437D02*
X74530000Y-132290000D01*
X74530000Y-135695563D02*
X74530000Y-134410000D01*
X74530000Y-135695563D02*
X73465563Y-136760000D01*
X74530000Y-131004437D02*
X73465563Y-129940000D01*
X75557500Y-135197500D02*
X74770000Y-135197500D01*
X75163750Y-135591250D02*
X75163750Y-134803750D01*
X69308750Y-106913750D02*
X70096250Y-106913750D01*
X69702500Y-107307500D02*
X69702500Y-106520000D01*
X73895563Y-106280000D02*
X74960000Y-105215563D01*
X69204437Y-106280000D02*
X68140000Y-105215563D01*
X69204437Y-106280000D02*
X70490000Y-106280000D01*
X73895563Y-106280000D02*
X72610000Y-106280000D01*
X74960000Y-105215563D02*
X74960000Y-99460000D01*
X68140000Y-105215563D02*
X68140000Y-99460000D01*
X68140000Y-99460000D02*
X70490000Y-99460000D01*
X74960000Y-99460000D02*
X72610000Y-99460000D01*
X81002000Y-132080000D02*
G75*
G03*
X81002000Y-132080000I-1500000J0D01*
G01*
X84312500Y-162997500D02*
X84312500Y-162372500D01*
X84625000Y-162685000D02*
X84000000Y-162685000D01*
X83760000Y-159304437D02*
X82695563Y-158240000D01*
X83760000Y-162695563D02*
X82695563Y-163760000D01*
X83760000Y-162695563D02*
X83760000Y-162060000D01*
X83760000Y-159304437D02*
X83760000Y-159940000D01*
X82695563Y-158240000D02*
X78240000Y-158240000D01*
X82695563Y-163760000D02*
X78240000Y-163760000D01*
X78240000Y-163760000D02*
X78240000Y-162060000D01*
X78240000Y-158240000D02*
X78240000Y-159940000D01*
X94811252Y-107765000D02*
X94288748Y-107765000D01*
X94811252Y-109235000D02*
X94288748Y-109235000D01*
X104011252Y-107875000D02*
X103488748Y-107875000D01*
X104011252Y-109295000D02*
X103488748Y-109295000D01*
X79656000Y-114072936D02*
X79656000Y-114527064D01*
X81126000Y-114072936D02*
X81126000Y-114527064D01*
X62734564Y-118645000D02*
X62280436Y-118645000D01*
X62734564Y-120115000D02*
X62280436Y-120115000D01*
X62734564Y-121185000D02*
X62280436Y-121185000D01*
X62734564Y-122655000D02*
X62280436Y-122655000D01*
X62734564Y-116105000D02*
X62280436Y-116105000D01*
X62734564Y-117575000D02*
X62280436Y-117575000D01*
X79681000Y-110228748D02*
X79681000Y-110751252D01*
X81101000Y-110228748D02*
X81101000Y-110751252D01*
X142424064Y-76290000D02*
X141219936Y-76290000D01*
X142424064Y-73570000D02*
X141219936Y-73570000D01*
X150080000Y-73440000D02*
X148380000Y-73440000D01*
X144560000Y-73440000D02*
X146260000Y-73440000D01*
X144560000Y-77895563D02*
X144560000Y-73440000D01*
X150080000Y-77895563D02*
X150080000Y-73440000D01*
X149015563Y-78960000D02*
X148380000Y-78960000D01*
X145624437Y-78960000D02*
X146260000Y-78960000D01*
X145624437Y-78960000D02*
X144560000Y-77895563D01*
X149015563Y-78960000D02*
X150080000Y-77895563D01*
X145635000Y-79825000D02*
X145635000Y-79200000D01*
X145322500Y-79512500D02*
X145947500Y-79512500D01*
X128068000Y-140936000D02*
X128068000Y-139236000D01*
X128068000Y-135416000D02*
X128068000Y-137116000D01*
X123612437Y-135416000D02*
X128068000Y-135416000D01*
X123612437Y-140936000D02*
X128068000Y-140936000D01*
X122548000Y-139871563D02*
X122548000Y-139236000D01*
X122548000Y-136480437D02*
X122548000Y-137116000D01*
X122548000Y-136480437D02*
X123612437Y-135416000D01*
X122548000Y-139871563D02*
X123612437Y-140936000D01*
X121683000Y-136491000D02*
X122308000Y-136491000D01*
X121995500Y-136178500D02*
X121995500Y-136803500D01*
X110410000Y-159410000D02*
X110410000Y-157060000D01*
X110410000Y-152590000D02*
X110410000Y-154940000D01*
X104654437Y-152590000D02*
X110410000Y-152590000D01*
X104654437Y-159410000D02*
X110410000Y-159410000D01*
X103590000Y-158345563D02*
X103590000Y-157060000D01*
X103590000Y-153654437D02*
X103590000Y-154940000D01*
X103590000Y-153654437D02*
X104654437Y-152590000D01*
X103590000Y-158345563D02*
X104654437Y-159410000D01*
X102562500Y-154152500D02*
X103350000Y-154152500D01*
X102956250Y-153758750D02*
X102956250Y-154546250D01*
X144140000Y-148100000D02*
X143210000Y-148100000D01*
X140980000Y-148100000D02*
X141910000Y-148100000D01*
X140980000Y-148100000D02*
X140980000Y-150260000D01*
X144140000Y-148100000D02*
X144140000Y-149560000D01*
D15*
X123420000Y-89020000D02*
X122195000Y-89020000D01*
X123420000Y-92145000D02*
X126770000Y-92145000D01*
X123420000Y-88795000D02*
X126770000Y-88795000D01*
X123420000Y-92145000D02*
X123420000Y-91845000D01*
X126770000Y-92145000D02*
X126770000Y-91845000D01*
X126770000Y-88795000D02*
X126770000Y-89095000D01*
X123420000Y-88795000D02*
X123420000Y-89020000D01*
D16*
X149460000Y-138030000D02*
X149460000Y-135680000D01*
X149460000Y-131210000D02*
X149460000Y-133560000D01*
X143704437Y-131210000D02*
X149460000Y-131210000D01*
X143704437Y-138030000D02*
X149460000Y-138030000D01*
X142640000Y-136965563D02*
X142640000Y-135680000D01*
X142640000Y-132274437D02*
X142640000Y-133560000D01*
X142640000Y-132274437D02*
X143704437Y-131210000D01*
X142640000Y-136965563D02*
X143704437Y-138030000D01*
X141612500Y-132772500D02*
X142400000Y-132772500D01*
X142006250Y-132378750D02*
X142006250Y-133166250D01*
X129940000Y-94850000D02*
X132290000Y-94850000D01*
X136760000Y-94850000D02*
X134410000Y-94850000D01*
X136760000Y-89094437D02*
X136760000Y-94850000D01*
X129940000Y-89094437D02*
X129940000Y-94850000D01*
X131004437Y-88030000D02*
X132290000Y-88030000D01*
X135695563Y-88030000D02*
X134410000Y-88030000D01*
X135695563Y-88030000D02*
X136760000Y-89094437D01*
X131004437Y-88030000D02*
X129940000Y-89094437D01*
X135197500Y-87002500D02*
X135197500Y-87790000D01*
X135591250Y-87396250D02*
X134803750Y-87396250D01*
X87522000Y-87230000D02*
X89872000Y-87230000D01*
X94342000Y-87230000D02*
X91992000Y-87230000D01*
X94342000Y-81474437D02*
X94342000Y-87230000D01*
X87522000Y-81474437D02*
X87522000Y-87230000D01*
X88586437Y-80410000D02*
X89872000Y-80410000D01*
X93277563Y-80410000D02*
X91992000Y-80410000D01*
X93277563Y-80410000D02*
X94342000Y-81474437D01*
X88586437Y-80410000D02*
X87522000Y-81474437D01*
X92779500Y-79382500D02*
X92779500Y-80170000D01*
X93173250Y-79776250D02*
X92385750Y-79776250D01*
X125325000Y-69850000D02*
G75*
G03*
X125325000Y-69850000I-1500000J0D01*
G01*
X117089422Y-69648000D02*
X117606578Y-69648000D01*
X117089422Y-71068000D02*
X117606578Y-71068000D01*
X151360000Y-121920000D02*
G75*
G03*
X151360000Y-121920000I-1500000J0D01*
G01*
X96920578Y-80402500D02*
X96403422Y-80402500D01*
X96920578Y-78982500D02*
X96403422Y-78982500D01*
X132747936Y-81190000D02*
X133952064Y-81190000D01*
X132747936Y-83910000D02*
X133952064Y-83910000D01*
X150610000Y-118440000D02*
X145960000Y-118440000D01*
X150610000Y-115240000D02*
X145960000Y-115240000D01*
X145960000Y-115240000D02*
X145960000Y-116040000D01*
X77140000Y-72100000D02*
X77140000Y-67450000D01*
X80340000Y-72100000D02*
X80340000Y-67450000D01*
X80340000Y-67450000D02*
X79540000Y-67450000D01*
X129135000Y-77470000D02*
G75*
G03*
X129135000Y-77470000I-1500000J0D01*
G01*
X82220000Y-72100000D02*
X82220000Y-67450000D01*
X85420000Y-72100000D02*
X85420000Y-67450000D01*
X85420000Y-67450000D02*
X84620000Y-67450000D01*
X109017000Y-124805000D02*
X109017000Y-120155000D01*
X112217000Y-124805000D02*
X112217000Y-120155000D01*
X112217000Y-120155000D02*
X111417000Y-120155000D01*
X111990000Y-128524000D02*
G75*
G03*
X111990000Y-128524000I-1500000J0D01*
G01*
X87300000Y-72100000D02*
X87300000Y-67450000D01*
X90500000Y-72100000D02*
X90500000Y-67450000D01*
X90500000Y-67450000D02*
X89700000Y-67450000D01*
X71806000Y-164580000D02*
X71806000Y-159930000D01*
X75006000Y-164580000D02*
X75006000Y-159930000D01*
X75006000Y-159930000D02*
X74206000Y-159930000D01*
X62170000Y-108010000D02*
X64830000Y-108010000D01*
X62170000Y-100330000D02*
X62170000Y-108010000D01*
X64830000Y-97760000D02*
X64830000Y-108010000D01*
X62170000Y-99060000D02*
X62170000Y-97730000D01*
X62170000Y-97730000D02*
X63500000Y-97730000D01*
X72060000Y-72100000D02*
X72060000Y-67450000D01*
X75260000Y-72100000D02*
X75260000Y-67450000D01*
X75260000Y-67450000D02*
X74460000Y-67450000D01*
X139020000Y-79120000D02*
X139020000Y-75820000D01*
X139020000Y-75820000D02*
X132120000Y-75820000D01*
X139020000Y-79120000D02*
X132120000Y-79120000D01*
X61916000Y-93024000D02*
X64576000Y-93024000D01*
X61916000Y-85344000D02*
X61916000Y-93024000D01*
X64576000Y-82774000D02*
X64576000Y-93024000D01*
X61916000Y-84074000D02*
X61916000Y-82744000D01*
X61916000Y-82744000D02*
X63246000Y-82744000D01*
X89221000Y-108010000D02*
X91881000Y-108010000D01*
X89221000Y-100330000D02*
X89221000Y-108010000D01*
X91881000Y-97760000D02*
X91881000Y-108010000D01*
X89221000Y-99060000D02*
X89221000Y-97730000D01*
X89221000Y-97730000D02*
X90551000Y-97730000D01*
X85284000Y-108010000D02*
X87944000Y-108010000D01*
X85284000Y-100330000D02*
X85284000Y-108010000D01*
X87944000Y-97760000D02*
X87944000Y-108010000D01*
X85284000Y-99060000D02*
X85284000Y-97730000D01*
X85284000Y-97730000D02*
X86614000Y-97730000D01*
X150610000Y-128600000D02*
X145960000Y-128600000D01*
X150610000Y-125400000D02*
X145960000Y-125400000D01*
X145960000Y-125400000D02*
X145960000Y-126200000D01*
X66980000Y-72100000D02*
X66980000Y-67450000D01*
X70180000Y-72100000D02*
X70180000Y-67450000D01*
X70180000Y-67450000D02*
X69380000Y-67450000D01*
X128090000Y-69035000D02*
X128090000Y-71935000D01*
X134800000Y-69035000D02*
X134800000Y-71935000D01*
X129995000Y-73840000D02*
X132895000Y-73840000D01*
X129995000Y-67130000D02*
X132895000Y-67130000D01*
X144870000Y-70100436D02*
X144870000Y-71304564D01*
X142150000Y-70100436D02*
X142150000Y-71304564D01*
X137070000Y-71304564D02*
X137070000Y-70100436D01*
X139790000Y-71304564D02*
X139790000Y-70100436D01*
X128008748Y-81382800D02*
X128531252Y-81382800D01*
X128008748Y-82802800D02*
X128531252Y-82802800D01*
X142501252Y-79450000D02*
X141978748Y-79450000D01*
X142501252Y-78030000D02*
X141978748Y-78030000D01*
X70080000Y-163000000D02*
G75*
G03*
X70080000Y-163000000I-1500000J0D01*
G01*
X150852000Y-141986000D02*
G75*
G03*
X150852000Y-141986000I-1500000J0D01*
G01*
X151360000Y-111760000D02*
G75*
G03*
X151360000Y-111760000I-1500000J0D01*
G01*
X125008000Y-103696000D02*
G75*
G03*
X125008000Y-103696000I-1500000J0D01*
G01*
X150725000Y-67945000D02*
G75*
G03*
X150725000Y-67945000I-1500000J0D01*
G01*
X144252422Y-97143500D02*
X144769578Y-97143500D01*
X144252422Y-98563500D02*
X144769578Y-98563500D01*
D17*
X72618600Y-127152400D02*
X72872600Y-127152400D01*
X72618600Y-124764800D02*
X72618600Y-127152400D01*
X72618600Y-124155200D02*
X72618600Y-124764800D01*
X72618600Y-121767600D02*
X72618600Y-124155200D01*
X78003400Y-121767600D02*
X77749400Y-121767600D01*
X78003400Y-127152400D02*
X78003400Y-121767600D01*
X77749400Y-127152400D02*
X78003400Y-127152400D01*
X72872600Y-121767600D02*
X72618600Y-121767600D01*
X72618600Y-124155200D02*
G75*
G02*
X72618600Y-124764800I0J-304800D01*
G01*
D16*
X62170000Y-125670000D02*
X63500000Y-125670000D01*
X62170000Y-127000000D02*
X62170000Y-125670000D01*
X64830000Y-125700000D02*
X64830000Y-135950000D01*
X62170000Y-128270000D02*
X62170000Y-135950000D01*
X62170000Y-135950000D02*
X64830000Y-135950000D01*
X143280000Y-145120000D02*
X146280000Y-145120000D01*
X144780000Y-141900000D02*
X146280000Y-141900000D01*
X117606578Y-66854000D02*
X117089422Y-66854000D01*
X117606578Y-68274000D02*
X117089422Y-68274000D01*
X142180000Y-109280000D02*
X144840000Y-109280000D01*
X142180000Y-104140000D02*
X142180000Y-109280000D01*
X144840000Y-104140000D02*
X144840000Y-109280000D01*
X142180000Y-104140000D02*
X144840000Y-104140000D01*
X142180000Y-102870000D02*
X142180000Y-101540000D01*
X142180000Y-101540000D02*
X143510000Y-101540000D01*
X147260000Y-101540000D02*
X148590000Y-101540000D01*
X147260000Y-102870000D02*
X147260000Y-101540000D01*
X147260000Y-104140000D02*
X149920000Y-104140000D01*
X149920000Y-104140000D02*
X149920000Y-106740000D01*
X147260000Y-104140000D02*
X147260000Y-106740000D01*
X147260000Y-106740000D02*
X149920000Y-106740000D01*
X113405000Y-73347252D02*
X113405000Y-72824748D01*
X111985000Y-73347252D02*
X111985000Y-72824748D01*
X86816000Y-84828748D02*
X86816000Y-85351252D01*
X85396000Y-84828748D02*
X85396000Y-85351252D01*
X148328748Y-83260000D02*
X148851252Y-83260000D01*
X148328748Y-81840000D02*
X148851252Y-81840000D01*
D17*
X72618600Y-115087400D02*
X72872600Y-115087400D01*
X72618600Y-112699800D02*
X72618600Y-115087400D01*
X72618600Y-112090200D02*
X72618600Y-112699800D01*
X72618600Y-109702600D02*
X72618600Y-112090200D01*
X78003400Y-109702600D02*
X77749400Y-109702600D01*
X78003400Y-115087400D02*
X78003400Y-109702600D01*
X77749400Y-115087400D02*
X78003400Y-115087400D01*
X72872600Y-109702600D02*
X72618600Y-109702600D01*
X72618600Y-112090200D02*
G75*
G02*
X72618600Y-112699800I0J-304800D01*
G01*
D16*
X81845000Y-80919400D02*
X82945000Y-80919400D01*
X81845000Y-80649400D02*
X81845000Y-80919400D01*
X80345000Y-80649400D02*
X81845000Y-80649400D01*
X81845000Y-87279400D02*
X84675000Y-87279400D01*
X81845000Y-87549400D02*
X81845000Y-87279400D01*
X80345000Y-87549400D02*
X81845000Y-87549400D01*
X137100000Y-101540000D02*
X138430000Y-101540000D01*
X137100000Y-102870000D02*
X137100000Y-101540000D01*
X137100000Y-104140000D02*
X139760000Y-104140000D01*
X139760000Y-104140000D02*
X139760000Y-106740000D01*
X137100000Y-104140000D02*
X137100000Y-106740000D01*
X137100000Y-106740000D02*
X139760000Y-106740000D01*
X111040000Y-65683600D02*
X95140000Y-65683600D01*
X111040000Y-70733600D02*
X111040000Y-65683600D01*
X110540000Y-70483600D02*
X111040000Y-70733600D01*
X110540000Y-75883600D02*
X110540000Y-70483600D01*
X111040000Y-75633600D02*
X110540000Y-75883600D01*
X111040000Y-77633600D02*
X111040000Y-75633600D01*
X110540000Y-77333600D02*
X111040000Y-77633600D01*
X110540000Y-78283600D02*
X110540000Y-77333600D01*
X95140000Y-78283600D02*
X110540000Y-78283600D01*
X95140000Y-65683600D02*
X95140000Y-78283600D01*
X139653000Y-165025000D02*
X150503000Y-165025000D01*
X139653000Y-159925000D02*
X139653000Y-165025000D01*
X140153000Y-160225000D02*
X139653000Y-159925000D01*
X140153000Y-154825000D02*
X140153000Y-160225000D01*
X139653000Y-155075000D02*
X140153000Y-154825000D01*
X139653000Y-155025000D02*
X139653000Y-155075000D01*
X139653000Y-153125000D02*
X139653000Y-155025000D01*
X140153000Y-153375000D02*
X139653000Y-153125000D01*
X140153000Y-152425000D02*
X140153000Y-153375000D01*
X150503000Y-152425000D02*
X140153000Y-152425000D01*
X150503000Y-165025000D02*
X150503000Y-152425000D01*
X107446578Y-80570000D02*
X106929422Y-80570000D01*
X107446578Y-81990000D02*
X106929422Y-81990000D01*
X105858000Y-138878000D02*
X107188000Y-138878000D01*
X105858000Y-140208000D02*
X105858000Y-138878000D01*
X108458000Y-138878000D02*
X111058000Y-138878000D01*
X108458000Y-141478000D02*
X108458000Y-138878000D01*
X105858000Y-141478000D02*
X108458000Y-141478000D01*
X111058000Y-138878000D02*
X111058000Y-149158000D01*
X105858000Y-141478000D02*
X105858000Y-149158000D01*
X105858000Y-149158000D02*
X111058000Y-149158000D01*
X62170000Y-68520000D02*
X63500000Y-68520000D01*
X62170000Y-69850000D02*
X62170000Y-68520000D01*
X62170000Y-71120000D02*
X64830000Y-71120000D01*
X64830000Y-71120000D02*
X64830000Y-78800000D01*
X62170000Y-71120000D02*
X62170000Y-78800000D01*
X62170000Y-78800000D02*
X64830000Y-78800000D01*
X62170000Y-156150000D02*
X63500000Y-156150000D01*
X62170000Y-157480000D02*
X62170000Y-156150000D01*
X62170000Y-158750000D02*
X64830000Y-158750000D01*
X64830000Y-158750000D02*
X64830000Y-163890000D01*
X62170000Y-158750000D02*
X62170000Y-163890000D01*
X62170000Y-163890000D02*
X64830000Y-163890000D01*
X144189422Y-81990000D02*
X144706578Y-81990000D01*
X144189422Y-80570000D02*
X144706578Y-80570000D01*
X148331422Y-85650000D02*
X148848578Y-85650000D01*
X148331422Y-87070000D02*
X148848578Y-87070000D01*
X148331422Y-97230000D02*
X148848578Y-97230000D01*
X148331422Y-95810000D02*
X148848578Y-95810000D01*
X98741422Y-107790000D02*
X99258578Y-107790000D01*
X98741422Y-109210000D02*
X99258578Y-109210000D01*
X141727422Y-121106000D02*
X142244578Y-121106000D01*
X141727422Y-119686000D02*
X142244578Y-119686000D01*
X136901422Y-138990000D02*
X137418578Y-138990000D01*
X136901422Y-140410000D02*
X137418578Y-140410000D01*
X147999422Y-149300000D02*
X148516578Y-149300000D01*
X147999422Y-147880000D02*
X148516578Y-147880000D01*
X88721000Y-161031422D02*
X88721000Y-161548578D01*
X87301000Y-161031422D02*
X87301000Y-161548578D01*
X148331422Y-90880000D02*
X148848578Y-90880000D01*
X148331422Y-89460000D02*
X148848578Y-89460000D01*
X138679422Y-136600000D02*
X139196578Y-136600000D01*
X138679422Y-135180000D02*
X139196578Y-135180000D01*
X69394000Y-111383578D02*
X69394000Y-110866422D01*
X70814000Y-111383578D02*
X70814000Y-110866422D01*
X70814000Y-124288578D02*
X70814000Y-123771422D01*
X69394000Y-124288578D02*
X69394000Y-123771422D01*
X89276422Y-92635000D02*
X89793578Y-92635000D01*
X89276422Y-94055000D02*
X89793578Y-94055000D01*
X89587000Y-161539422D02*
X89587000Y-162056578D01*
X91007000Y-161539422D02*
X91007000Y-162056578D01*
X69775000Y-79966078D02*
X69775000Y-79448922D01*
X71195000Y-79966078D02*
X71195000Y-79448922D01*
X111676922Y-86816000D02*
X112194078Y-86816000D01*
X111676922Y-85396000D02*
X112194078Y-85396000D01*
X69394000Y-115828578D02*
X69394000Y-115311422D01*
X70814000Y-115828578D02*
X70814000Y-115311422D01*
X67940422Y-119455000D02*
X68457578Y-119455000D01*
X67940422Y-118035000D02*
X68457578Y-118035000D01*
X102930000Y-162620000D02*
X102930000Y-159960000D01*
X95250000Y-162620000D02*
X102930000Y-162620000D01*
X95250000Y-159960000D02*
X102930000Y-159960000D01*
X95250000Y-162620000D02*
X95250000Y-159960000D01*
X93980000Y-162620000D02*
X92650000Y-162620000D01*
X92650000Y-162620000D02*
X92650000Y-161290000D01*
X81355000Y-74671422D02*
X81355000Y-75188578D01*
X79935000Y-74671422D02*
X79935000Y-75188578D01*
X75693200Y-74671422D02*
X75693200Y-75188578D01*
X77113200Y-74671422D02*
X77113200Y-75188578D01*
X73100000Y-74671422D02*
X73100000Y-75188578D01*
X71680000Y-74671422D02*
X71680000Y-75188578D01*
X141981422Y-127710000D02*
X142498578Y-127710000D01*
X141981422Y-126290000D02*
X142498578Y-126290000D01*
X85444400Y-74671422D02*
X85444400Y-75188578D01*
X84024400Y-74671422D02*
X84024400Y-75188578D01*
X67870000Y-74671422D02*
X67870000Y-75188578D01*
X69290000Y-74671422D02*
X69290000Y-75188578D01*
D14*
X77890000Y-158000000D02*
G75*
G03*
X77890000Y-158000000I-100000J0D01*
G01*
D13*
X99850000Y-156000000D02*
X99850000Y-156750000D01*
X99850000Y-156750000D02*
X98950000Y-156750000D01*
X99850000Y-139250000D02*
X98950000Y-139250000D01*
X99850000Y-140000000D02*
X99850000Y-139250000D01*
X76750000Y-156750000D02*
X71150000Y-156750000D01*
X71150000Y-156750000D02*
X71150000Y-139250000D01*
X71150000Y-139250000D02*
X76750000Y-139250000D01*
X80100000Y-156750000D02*
X81900000Y-156750000D01*
X80100000Y-139250000D02*
X81900000Y-139250000D01*
D16*
X81761000Y-125991252D02*
X81761000Y-125468748D01*
X80291000Y-125991252D02*
X80291000Y-125468748D01*
X120985000Y-69136252D02*
X120985000Y-68613748D01*
X119515000Y-69136252D02*
X119515000Y-68613748D01*
X122928748Y-95985000D02*
X123451252Y-95985000D01*
X122928748Y-94515000D02*
X123451252Y-94515000D01*
D11*
X100941702Y-109677200D02*
G75*
G03*
X100941702Y-109677200I-154502J0D01*
G01*
D15*
X100107161Y-125653800D02*
G75*
G03*
X100107161Y-125653800I-1402761J0D01*
G01*
D18*
X101320600Y-129108200D02*
X100629200Y-129108200D01*
X101320600Y-129108200D02*
X101320600Y-110921800D01*
X100629200Y-110921800D02*
X101320600Y-110921800D01*
X86588600Y-110920400D02*
X87280000Y-110920400D01*
X86588600Y-110920400D02*
X86588600Y-129108200D01*
X87280000Y-129108200D02*
X86588600Y-129108200D01*
D11*
X108661200Y-86766400D02*
G75*
G03*
X108661200Y-86766400I-152400J0D01*
G01*
D15*
X109474000Y-87706200D02*
X109474000Y-105638600D01*
X93954600Y-87706200D02*
X93954600Y-105664000D01*
X109470000Y-105660000D02*
X93954600Y-105664000D01*
X109470000Y-87706200D02*
X93954600Y-87706200D01*
D16*
X107722936Y-109320000D02*
X108177064Y-109320000D01*
X107722936Y-107850000D02*
X108177064Y-107850000D01*
X102160000Y-150623748D02*
X102160000Y-151146252D01*
X103580000Y-150623748D02*
X103580000Y-151146252D01*
X141608936Y-117067000D02*
X142063064Y-117067000D01*
X141608936Y-115597000D02*
X142063064Y-115597000D01*
X142240000Y-82788600D02*
X138790000Y-82788600D01*
X142240000Y-82788600D02*
X144190000Y-82788600D01*
X142240000Y-91658600D02*
X140290000Y-91658600D01*
X142240000Y-91658600D02*
X144190000Y-91658600D01*
D15*
X129114704Y-134859780D02*
X129114704Y-135669304D01*
X129162323Y-135764542D01*
X129209942Y-135812161D01*
X129305180Y-135859780D01*
X129495657Y-135859780D01*
X129590895Y-135812161D01*
X129638514Y-135764542D01*
X129686133Y-135669304D01*
X129686133Y-134859780D01*
X130686133Y-135859780D02*
X130114704Y-135859780D01*
X130400419Y-135859780D02*
X130400419Y-134859780D01*
X130305180Y-135002638D01*
X130209942Y-135097876D01*
X130114704Y-135145495D01*
X131305180Y-134859780D02*
X131400419Y-134859780D01*
X131495657Y-134907400D01*
X131543276Y-134955019D01*
X131590895Y-135050257D01*
X131638514Y-135240733D01*
X131638514Y-135478828D01*
X131590895Y-135669304D01*
X131543276Y-135764542D01*
X131495657Y-135812161D01*
X131400419Y-135859780D01*
X131305180Y-135859780D01*
X131209942Y-135812161D01*
X131162323Y-135764542D01*
X131114704Y-135669304D01*
X131067085Y-135478828D01*
X131067085Y-135240733D01*
X131114704Y-135050257D01*
X131162323Y-134955019D01*
X131209942Y-134907400D01*
X131305180Y-134859780D01*
X128778095Y-140422380D02*
X128778095Y-141231904D01*
X128825714Y-141327142D01*
X128873333Y-141374761D01*
X128968571Y-141422380D01*
X129159047Y-141422380D01*
X129254285Y-141374761D01*
X129301904Y-141327142D01*
X129349523Y-141231904D01*
X129349523Y-140422380D01*
X130349523Y-141422380D02*
X129778095Y-141422380D01*
X130063809Y-141422380D02*
X130063809Y-140422380D01*
X129968571Y-140565238D01*
X129873333Y-140660476D01*
X129778095Y-140708095D01*
X126307171Y-150655200D02*
X126211933Y-150607580D01*
X126069076Y-150607580D01*
X125926219Y-150655200D01*
X125830980Y-150750438D01*
X125783361Y-150845676D01*
X125735742Y-151036152D01*
X125735742Y-151179009D01*
X125783361Y-151369485D01*
X125830980Y-151464723D01*
X125926219Y-151559961D01*
X126069076Y-151607580D01*
X126164314Y-151607580D01*
X126307171Y-151559961D01*
X126354790Y-151512342D01*
X126354790Y-151179009D01*
X126164314Y-151179009D01*
X126783361Y-151607580D02*
X126783361Y-150607580D01*
X127164314Y-150607580D01*
X127259552Y-150655200D01*
X127307171Y-150702819D01*
X127354790Y-150798057D01*
X127354790Y-150940914D01*
X127307171Y-151036152D01*
X127259552Y-151083771D01*
X127164314Y-151131390D01*
X126783361Y-151131390D01*
X127735742Y-151559961D02*
X127878600Y-151607580D01*
X128116695Y-151607580D01*
X128211933Y-151559961D01*
X128259552Y-151512342D01*
X128307171Y-151417104D01*
X128307171Y-151321866D01*
X128259552Y-151226628D01*
X128211933Y-151179009D01*
X128116695Y-151131390D01*
X127926219Y-151083771D01*
X127830980Y-151036152D01*
X127783361Y-150988533D01*
X127735742Y-150893295D01*
X127735742Y-150798057D01*
X127783361Y-150702819D01*
X127830980Y-150655200D01*
X127926219Y-150607580D01*
X128164314Y-150607580D01*
X128307171Y-150655200D01*
X129497647Y-151607580D02*
X129497647Y-150607580D01*
X129830980Y-151321866D01*
X130164314Y-150607580D01*
X130164314Y-151607580D01*
X130830980Y-150607580D02*
X131021457Y-150607580D01*
X131116695Y-150655200D01*
X131211933Y-150750438D01*
X131259552Y-150940914D01*
X131259552Y-151274247D01*
X131211933Y-151464723D01*
X131116695Y-151559961D01*
X131021457Y-151607580D01*
X130830980Y-151607580D01*
X130735742Y-151559961D01*
X130640504Y-151464723D01*
X130592885Y-151274247D01*
X130592885Y-150940914D01*
X130640504Y-150750438D01*
X130735742Y-150655200D01*
X130830980Y-150607580D01*
X131688123Y-151607580D02*
X131688123Y-150607580D01*
X131926219Y-150607580D01*
X132069076Y-150655200D01*
X132164314Y-150750438D01*
X132211933Y-150845676D01*
X132259552Y-151036152D01*
X132259552Y-151179009D01*
X132211933Y-151369485D01*
X132164314Y-151464723D01*
X132069076Y-151559961D01*
X131926219Y-151607580D01*
X131688123Y-151607580D01*
X132688123Y-150607580D02*
X132688123Y-151417104D01*
X132735742Y-151512342D01*
X132783361Y-151559961D01*
X132878600Y-151607580D01*
X133069076Y-151607580D01*
X133164314Y-151559961D01*
X133211933Y-151512342D01*
X133259552Y-151417104D01*
X133259552Y-150607580D01*
X134211933Y-151607580D02*
X133735742Y-151607580D01*
X133735742Y-150607580D01*
X134545266Y-151083771D02*
X134878600Y-151083771D01*
X135021457Y-151607580D02*
X134545266Y-151607580D01*
X134545266Y-150607580D01*
X135021457Y-150607580D01*
X123531333Y-74366380D02*
X123198000Y-73890190D01*
X122959904Y-74366380D02*
X122959904Y-73366380D01*
X123340857Y-73366380D01*
X123436095Y-73414000D01*
X123483714Y-73461619D01*
X123531333Y-73556857D01*
X123531333Y-73699714D01*
X123483714Y-73794952D01*
X123436095Y-73842571D01*
X123340857Y-73890190D01*
X122959904Y-73890190D01*
X124388476Y-73366380D02*
X124198000Y-73366380D01*
X124102761Y-73414000D01*
X124055142Y-73461619D01*
X123959904Y-73604476D01*
X123912285Y-73794952D01*
X123912285Y-74175904D01*
X123959904Y-74271142D01*
X124007523Y-74318761D01*
X124102761Y-74366380D01*
X124293238Y-74366380D01*
X124388476Y-74318761D01*
X124436095Y-74271142D01*
X124483714Y-74175904D01*
X124483714Y-73937809D01*
X124436095Y-73842571D01*
X124388476Y-73794952D01*
X124293238Y-73747333D01*
X124102761Y-73747333D01*
X124007523Y-73794952D01*
X123959904Y-73842571D01*
X123912285Y-73937809D01*
X123531333Y-81478380D02*
X123198000Y-81002190D01*
X122959904Y-81478380D02*
X122959904Y-80478380D01*
X123340857Y-80478380D01*
X123436095Y-80526000D01*
X123483714Y-80573619D01*
X123531333Y-80668857D01*
X123531333Y-80811714D01*
X123483714Y-80906952D01*
X123436095Y-80954571D01*
X123340857Y-81002190D01*
X122959904Y-81002190D01*
X124436095Y-80478380D02*
X123959904Y-80478380D01*
X123912285Y-80954571D01*
X123959904Y-80906952D01*
X124055142Y-80859333D01*
X124293238Y-80859333D01*
X124388476Y-80906952D01*
X124436095Y-80954571D01*
X124483714Y-81049809D01*
X124483714Y-81287904D01*
X124436095Y-81383142D01*
X124388476Y-81430761D01*
X124293238Y-81478380D01*
X124055142Y-81478380D01*
X123959904Y-81430761D01*
X123912285Y-81383142D01*
X106291142Y-85955142D02*
X106243523Y-86002761D01*
X106100666Y-86050380D01*
X106005428Y-86050380D01*
X105862571Y-86002761D01*
X105767333Y-85907523D01*
X105719714Y-85812285D01*
X105672095Y-85621809D01*
X105672095Y-85478952D01*
X105719714Y-85288476D01*
X105767333Y-85193238D01*
X105862571Y-85098000D01*
X106005428Y-85050380D01*
X106100666Y-85050380D01*
X106243523Y-85098000D01*
X106291142Y-85145619D01*
X106672095Y-85145619D02*
X106719714Y-85098000D01*
X106814952Y-85050380D01*
X107053047Y-85050380D01*
X107148285Y-85098000D01*
X107195904Y-85145619D01*
X107243523Y-85240857D01*
X107243523Y-85336095D01*
X107195904Y-85478952D01*
X106624476Y-86050380D01*
X107243523Y-86050380D01*
X108100666Y-85383714D02*
X108100666Y-86050380D01*
X107862571Y-85002761D02*
X107624476Y-85717047D01*
X108243523Y-85717047D01*
X70564476Y-82002380D02*
X70564476Y-82716666D01*
X70516857Y-82859523D01*
X70421619Y-82954761D01*
X70278761Y-83002380D01*
X70183523Y-83002380D01*
X71564476Y-83002380D02*
X70993047Y-83002380D01*
X71278761Y-83002380D02*
X71278761Y-82002380D01*
X71183523Y-82145238D01*
X71088285Y-82240476D01*
X70993047Y-82288095D01*
X72040666Y-83002380D02*
X72231142Y-83002380D01*
X72326380Y-82954761D01*
X72374000Y-82907142D01*
X72469238Y-82764285D01*
X72516857Y-82573809D01*
X72516857Y-82192857D01*
X72469238Y-82097619D01*
X72421619Y-82050000D01*
X72326380Y-82002380D01*
X72135904Y-82002380D01*
X72040666Y-82050000D01*
X71993047Y-82097619D01*
X71945428Y-82192857D01*
X71945428Y-82430952D01*
X71993047Y-82526190D01*
X72040666Y-82573809D01*
X72135904Y-82621428D01*
X72326380Y-82621428D01*
X72421619Y-82573809D01*
X72469238Y-82526190D01*
X72516857Y-82430952D01*
X80200666Y-94384761D02*
X80343523Y-94432380D01*
X80581619Y-94432380D01*
X80676857Y-94384761D01*
X80724476Y-94337142D01*
X80772095Y-94241904D01*
X80772095Y-94146666D01*
X80724476Y-94051428D01*
X80676857Y-94003809D01*
X80581619Y-93956190D01*
X80391142Y-93908571D01*
X80295904Y-93860952D01*
X80248285Y-93813333D01*
X80200666Y-93718095D01*
X80200666Y-93622857D01*
X80248285Y-93527619D01*
X80295904Y-93480000D01*
X80391142Y-93432380D01*
X80629238Y-93432380D01*
X80772095Y-93480000D01*
X81105428Y-93432380D02*
X81343523Y-94432380D01*
X81534000Y-93718095D01*
X81724476Y-94432380D01*
X81962571Y-93432380D01*
X82867333Y-94432380D02*
X82295904Y-94432380D01*
X82581619Y-94432380D02*
X82581619Y-93432380D01*
X82486380Y-93575238D01*
X82391142Y-93670476D01*
X82295904Y-93718095D01*
X66500476Y-82002380D02*
X66500476Y-82716666D01*
X66452857Y-82859523D01*
X66357619Y-82954761D01*
X66214761Y-83002380D01*
X66119523Y-83002380D01*
X67500476Y-83002380D02*
X66929047Y-83002380D01*
X67214761Y-83002380D02*
X67214761Y-82002380D01*
X67119523Y-82145238D01*
X67024285Y-82240476D01*
X66929047Y-82288095D01*
X68071904Y-82430952D02*
X67976666Y-82383333D01*
X67929047Y-82335714D01*
X67881428Y-82240476D01*
X67881428Y-82192857D01*
X67929047Y-82097619D01*
X67976666Y-82050000D01*
X68071904Y-82002380D01*
X68262380Y-82002380D01*
X68357619Y-82050000D01*
X68405238Y-82097619D01*
X68452857Y-82192857D01*
X68452857Y-82240476D01*
X68405238Y-82335714D01*
X68357619Y-82383333D01*
X68262380Y-82430952D01*
X68071904Y-82430952D01*
X67976666Y-82478571D01*
X67929047Y-82526190D01*
X67881428Y-82621428D01*
X67881428Y-82811904D01*
X67929047Y-82907142D01*
X67976666Y-82954761D01*
X68071904Y-83002380D01*
X68262380Y-83002380D01*
X68357619Y-82954761D01*
X68405238Y-82907142D01*
X68452857Y-82811904D01*
X68452857Y-82621428D01*
X68405238Y-82526190D01*
X68357619Y-82478571D01*
X68262380Y-82430952D01*
X69937333Y-128881142D02*
X69889714Y-128928761D01*
X69746857Y-128976380D01*
X69651619Y-128976380D01*
X69508761Y-128928761D01*
X69413523Y-128833523D01*
X69365904Y-128738285D01*
X69318285Y-128547809D01*
X69318285Y-128404952D01*
X69365904Y-128214476D01*
X69413523Y-128119238D01*
X69508761Y-128024000D01*
X69651619Y-127976380D01*
X69746857Y-127976380D01*
X69889714Y-128024000D01*
X69937333Y-128071619D01*
X70842095Y-127976380D02*
X70365904Y-127976380D01*
X70318285Y-128452571D01*
X70365904Y-128404952D01*
X70461142Y-128357333D01*
X70699238Y-128357333D01*
X70794476Y-128404952D01*
X70842095Y-128452571D01*
X70889714Y-128547809D01*
X70889714Y-128785904D01*
X70842095Y-128881142D01*
X70794476Y-128928761D01*
X70699238Y-128976380D01*
X70461142Y-128976380D01*
X70365904Y-128928761D01*
X70318285Y-128881142D01*
X76573142Y-102719142D02*
X76525523Y-102766761D01*
X76382666Y-102814380D01*
X76287428Y-102814380D01*
X76144571Y-102766761D01*
X76049333Y-102671523D01*
X76001714Y-102576285D01*
X75954095Y-102385809D01*
X75954095Y-102242952D01*
X76001714Y-102052476D01*
X76049333Y-101957238D01*
X76144571Y-101862000D01*
X76287428Y-101814380D01*
X76382666Y-101814380D01*
X76525523Y-101862000D01*
X76573142Y-101909619D01*
X76906476Y-101814380D02*
X77525523Y-101814380D01*
X77192190Y-102195333D01*
X77335047Y-102195333D01*
X77430285Y-102242952D01*
X77477904Y-102290571D01*
X77525523Y-102385809D01*
X77525523Y-102623904D01*
X77477904Y-102719142D01*
X77430285Y-102766761D01*
X77335047Y-102814380D01*
X77049333Y-102814380D01*
X76954095Y-102766761D01*
X76906476Y-102719142D01*
X78477904Y-102814380D02*
X77906476Y-102814380D01*
X78192190Y-102814380D02*
X78192190Y-101814380D01*
X78096952Y-101957238D01*
X78001714Y-102052476D01*
X77906476Y-102100095D01*
X80272095Y-128992380D02*
X80843523Y-128992380D01*
X80557809Y-129992380D02*
X80557809Y-128992380D01*
X81176857Y-129992380D02*
X81176857Y-128992380D01*
X81557809Y-128992380D01*
X81653047Y-129040000D01*
X81700666Y-129087619D01*
X81748285Y-129182857D01*
X81748285Y-129325714D01*
X81700666Y-129420952D01*
X81653047Y-129468571D01*
X81557809Y-129516190D01*
X81176857Y-129516190D01*
X82129238Y-129087619D02*
X82176857Y-129040000D01*
X82272095Y-128992380D01*
X82510190Y-128992380D01*
X82605428Y-129040000D01*
X82653047Y-129087619D01*
X82700666Y-129182857D01*
X82700666Y-129278095D01*
X82653047Y-129420952D01*
X82081619Y-129992380D01*
X82700666Y-129992380D01*
X80357142Y-165057142D02*
X80309523Y-165104761D01*
X80166666Y-165152380D01*
X80071428Y-165152380D01*
X79928571Y-165104761D01*
X79833333Y-165009523D01*
X79785714Y-164914285D01*
X79738095Y-164723809D01*
X79738095Y-164580952D01*
X79785714Y-164390476D01*
X79833333Y-164295238D01*
X79928571Y-164200000D01*
X80071428Y-164152380D01*
X80166666Y-164152380D01*
X80309523Y-164200000D01*
X80357142Y-164247619D01*
X80738095Y-164247619D02*
X80785714Y-164200000D01*
X80880952Y-164152380D01*
X81119047Y-164152380D01*
X81214285Y-164200000D01*
X81261904Y-164247619D01*
X81309523Y-164342857D01*
X81309523Y-164438095D01*
X81261904Y-164580952D01*
X80690476Y-165152380D01*
X81309523Y-165152380D01*
X81928571Y-164152380D02*
X82023809Y-164152380D01*
X82119047Y-164200000D01*
X82166666Y-164247619D01*
X82214285Y-164342857D01*
X82261904Y-164533333D01*
X82261904Y-164771428D01*
X82214285Y-164961904D01*
X82166666Y-165057142D01*
X82119047Y-165104761D01*
X82023809Y-165152380D01*
X81928571Y-165152380D01*
X81833333Y-165104761D01*
X81785714Y-165057142D01*
X81738095Y-164961904D01*
X81690476Y-164771428D01*
X81690476Y-164533333D01*
X81738095Y-164342857D01*
X81785714Y-164247619D01*
X81833333Y-164200000D01*
X81928571Y-164152380D01*
X94575333Y-107037142D02*
X94527714Y-107084761D01*
X94384857Y-107132380D01*
X94289619Y-107132380D01*
X94146761Y-107084761D01*
X94051523Y-106989523D01*
X94003904Y-106894285D01*
X93956285Y-106703809D01*
X93956285Y-106560952D01*
X94003904Y-106370476D01*
X94051523Y-106275238D01*
X94146761Y-106180000D01*
X94289619Y-106132380D01*
X94384857Y-106132380D01*
X94527714Y-106180000D01*
X94575333Y-106227619D01*
X94908666Y-106132380D02*
X95527714Y-106132380D01*
X95194380Y-106513333D01*
X95337238Y-106513333D01*
X95432476Y-106560952D01*
X95480095Y-106608571D01*
X95527714Y-106703809D01*
X95527714Y-106941904D01*
X95480095Y-107037142D01*
X95432476Y-107084761D01*
X95337238Y-107132380D01*
X95051523Y-107132380D01*
X94956285Y-107084761D01*
X94908666Y-107037142D01*
X103497142Y-111355142D02*
X103449523Y-111402761D01*
X103306666Y-111450380D01*
X103211428Y-111450380D01*
X103068571Y-111402761D01*
X102973333Y-111307523D01*
X102925714Y-111212285D01*
X102878095Y-111021809D01*
X102878095Y-110878952D01*
X102925714Y-110688476D01*
X102973333Y-110593238D01*
X103068571Y-110498000D01*
X103211428Y-110450380D01*
X103306666Y-110450380D01*
X103449523Y-110498000D01*
X103497142Y-110545619D01*
X103830476Y-110450380D02*
X104449523Y-110450380D01*
X104116190Y-110831333D01*
X104259047Y-110831333D01*
X104354285Y-110878952D01*
X104401904Y-110926571D01*
X104449523Y-111021809D01*
X104449523Y-111259904D01*
X104401904Y-111355142D01*
X104354285Y-111402761D01*
X104259047Y-111450380D01*
X103973333Y-111450380D01*
X103878095Y-111402761D01*
X103830476Y-111355142D01*
X105068571Y-110450380D02*
X105163809Y-110450380D01*
X105259047Y-110498000D01*
X105306666Y-110545619D01*
X105354285Y-110640857D01*
X105401904Y-110831333D01*
X105401904Y-111069428D01*
X105354285Y-111259904D01*
X105306666Y-111355142D01*
X105259047Y-111402761D01*
X105163809Y-111450380D01*
X105068571Y-111450380D01*
X104973333Y-111402761D01*
X104925714Y-111355142D01*
X104878095Y-111259904D01*
X104830476Y-111069428D01*
X104830476Y-110831333D01*
X104878095Y-110640857D01*
X104925714Y-110545619D01*
X104973333Y-110498000D01*
X105068571Y-110450380D01*
X80383142Y-117546380D02*
X80049809Y-117070190D01*
X79811714Y-117546380D02*
X79811714Y-116546380D01*
X80192666Y-116546380D01*
X80287904Y-116594000D01*
X80335523Y-116641619D01*
X80383142Y-116736857D01*
X80383142Y-116879714D01*
X80335523Y-116974952D01*
X80287904Y-117022571D01*
X80192666Y-117070190D01*
X79811714Y-117070190D01*
X80764095Y-116641619D02*
X80811714Y-116594000D01*
X80906952Y-116546380D01*
X81145047Y-116546380D01*
X81240285Y-116594000D01*
X81287904Y-116641619D01*
X81335523Y-116736857D01*
X81335523Y-116832095D01*
X81287904Y-116974952D01*
X80716476Y-117546380D01*
X81335523Y-117546380D01*
X82192666Y-116546380D02*
X82002190Y-116546380D01*
X81906952Y-116594000D01*
X81859333Y-116641619D01*
X81764095Y-116784476D01*
X81716476Y-116974952D01*
X81716476Y-117355904D01*
X81764095Y-117451142D01*
X81811714Y-117498761D01*
X81906952Y-117546380D01*
X82097428Y-117546380D01*
X82192666Y-117498761D01*
X82240285Y-117451142D01*
X82287904Y-117355904D01*
X82287904Y-117117809D01*
X82240285Y-117022571D01*
X82192666Y-116974952D01*
X82097428Y-116927333D01*
X81906952Y-116927333D01*
X81811714Y-116974952D01*
X81764095Y-117022571D01*
X81716476Y-117117809D01*
X65730380Y-120022857D02*
X65254190Y-120356190D01*
X65730380Y-120594285D02*
X64730380Y-120594285D01*
X64730380Y-120213333D01*
X64778000Y-120118095D01*
X64825619Y-120070476D01*
X64920857Y-120022857D01*
X65063714Y-120022857D01*
X65158952Y-120070476D01*
X65206571Y-120118095D01*
X65254190Y-120213333D01*
X65254190Y-120594285D01*
X64825619Y-119641904D02*
X64778000Y-119594285D01*
X64730380Y-119499047D01*
X64730380Y-119260952D01*
X64778000Y-119165714D01*
X64825619Y-119118095D01*
X64920857Y-119070476D01*
X65016095Y-119070476D01*
X65158952Y-119118095D01*
X65730380Y-119689523D01*
X65730380Y-119070476D01*
X64730380Y-118165714D02*
X64730380Y-118641904D01*
X65206571Y-118689523D01*
X65158952Y-118641904D01*
X65111333Y-118546666D01*
X65111333Y-118308571D01*
X65158952Y-118213333D01*
X65206571Y-118165714D01*
X65301809Y-118118095D01*
X65539904Y-118118095D01*
X65635142Y-118165714D01*
X65682761Y-118213333D01*
X65730380Y-118308571D01*
X65730380Y-118546666D01*
X65682761Y-118641904D01*
X65635142Y-118689523D01*
X65397142Y-122626380D02*
X65063809Y-122150190D01*
X64825714Y-122626380D02*
X64825714Y-121626380D01*
X65206666Y-121626380D01*
X65301904Y-121674000D01*
X65349523Y-121721619D01*
X65397142Y-121816857D01*
X65397142Y-121959714D01*
X65349523Y-122054952D01*
X65301904Y-122102571D01*
X65206666Y-122150190D01*
X64825714Y-122150190D01*
X65778095Y-121721619D02*
X65825714Y-121674000D01*
X65920952Y-121626380D01*
X66159047Y-121626380D01*
X66254285Y-121674000D01*
X66301904Y-121721619D01*
X66349523Y-121816857D01*
X66349523Y-121912095D01*
X66301904Y-122054952D01*
X65730476Y-122626380D01*
X66349523Y-122626380D01*
X67206666Y-121959714D02*
X67206666Y-122626380D01*
X66968571Y-121578761D02*
X66730476Y-122293047D01*
X67349523Y-122293047D01*
X61864642Y-115006380D02*
X61531309Y-114530190D01*
X61293214Y-115006380D02*
X61293214Y-114006380D01*
X61674166Y-114006380D01*
X61769404Y-114054000D01*
X61817023Y-114101619D01*
X61864642Y-114196857D01*
X61864642Y-114339714D01*
X61817023Y-114434952D01*
X61769404Y-114482571D01*
X61674166Y-114530190D01*
X61293214Y-114530190D01*
X62245595Y-114101619D02*
X62293214Y-114054000D01*
X62388452Y-114006380D01*
X62626547Y-114006380D01*
X62721785Y-114054000D01*
X62769404Y-114101619D01*
X62817023Y-114196857D01*
X62817023Y-114292095D01*
X62769404Y-114434952D01*
X62197976Y-115006380D01*
X62817023Y-115006380D01*
X63150357Y-114006380D02*
X63769404Y-114006380D01*
X63436071Y-114387333D01*
X63578928Y-114387333D01*
X63674166Y-114434952D01*
X63721785Y-114482571D01*
X63769404Y-114577809D01*
X63769404Y-114815904D01*
X63721785Y-114911142D01*
X63674166Y-114958761D01*
X63578928Y-115006380D01*
X63293214Y-115006380D01*
X63197976Y-114958761D01*
X63150357Y-114911142D01*
X80129142Y-107545142D02*
X80081523Y-107592761D01*
X79938666Y-107640380D01*
X79843428Y-107640380D01*
X79700571Y-107592761D01*
X79605333Y-107497523D01*
X79557714Y-107402285D01*
X79510095Y-107211809D01*
X79510095Y-107068952D01*
X79557714Y-106878476D01*
X79605333Y-106783238D01*
X79700571Y-106688000D01*
X79843428Y-106640380D01*
X79938666Y-106640380D01*
X80081523Y-106688000D01*
X80129142Y-106735619D01*
X80510095Y-106735619D02*
X80557714Y-106688000D01*
X80652952Y-106640380D01*
X80891047Y-106640380D01*
X80986285Y-106688000D01*
X81033904Y-106735619D01*
X81081523Y-106830857D01*
X81081523Y-106926095D01*
X81033904Y-107068952D01*
X80462476Y-107640380D01*
X81081523Y-107640380D01*
X81557714Y-107640380D02*
X81748190Y-107640380D01*
X81843428Y-107592761D01*
X81891047Y-107545142D01*
X81986285Y-107402285D01*
X82033904Y-107211809D01*
X82033904Y-106830857D01*
X81986285Y-106735619D01*
X81938666Y-106688000D01*
X81843428Y-106640380D01*
X81652952Y-106640380D01*
X81557714Y-106688000D01*
X81510095Y-106735619D01*
X81462476Y-106830857D01*
X81462476Y-107068952D01*
X81510095Y-107164190D01*
X81557714Y-107211809D01*
X81652952Y-107259428D01*
X81843428Y-107259428D01*
X81938666Y-107211809D01*
X81986285Y-107164190D01*
X82033904Y-107068952D01*
X137755333Y-74874380D02*
X137279142Y-74874380D01*
X137279142Y-73874380D01*
X138612476Y-74874380D02*
X138041047Y-74874380D01*
X138326761Y-74874380D02*
X138326761Y-73874380D01*
X138231523Y-74017238D01*
X138136285Y-74112476D01*
X138041047Y-74160095D01*
X149217142Y-72747142D02*
X149169523Y-72794761D01*
X149026666Y-72842380D01*
X148931428Y-72842380D01*
X148788571Y-72794761D01*
X148693333Y-72699523D01*
X148645714Y-72604285D01*
X148598095Y-72413809D01*
X148598095Y-72270952D01*
X148645714Y-72080476D01*
X148693333Y-71985238D01*
X148788571Y-71890000D01*
X148931428Y-71842380D01*
X149026666Y-71842380D01*
X149169523Y-71890000D01*
X149217142Y-71937619D01*
X149598095Y-71937619D02*
X149645714Y-71890000D01*
X149740952Y-71842380D01*
X149979047Y-71842380D01*
X150074285Y-71890000D01*
X150121904Y-71937619D01*
X150169523Y-72032857D01*
X150169523Y-72128095D01*
X150121904Y-72270952D01*
X149550476Y-72842380D01*
X150169523Y-72842380D01*
X150502857Y-71842380D02*
X151121904Y-71842380D01*
X150788571Y-72223333D01*
X150931428Y-72223333D01*
X151026666Y-72270952D01*
X151074285Y-72318571D01*
X151121904Y-72413809D01*
X151121904Y-72651904D01*
X151074285Y-72747142D01*
X151026666Y-72794761D01*
X150931428Y-72842380D01*
X150645714Y-72842380D01*
X150550476Y-72794761D01*
X150502857Y-72747142D01*
X130729333Y-138660142D02*
X130681714Y-138707761D01*
X130538857Y-138755380D01*
X130443619Y-138755380D01*
X130300761Y-138707761D01*
X130205523Y-138612523D01*
X130157904Y-138517285D01*
X130110285Y-138326809D01*
X130110285Y-138183952D01*
X130157904Y-137993476D01*
X130205523Y-137898238D01*
X130300761Y-137803000D01*
X130443619Y-137755380D01*
X130538857Y-137755380D01*
X130681714Y-137803000D01*
X130729333Y-137850619D01*
X131110285Y-137850619D02*
X131157904Y-137803000D01*
X131253142Y-137755380D01*
X131491238Y-137755380D01*
X131586476Y-137803000D01*
X131634095Y-137850619D01*
X131681714Y-137945857D01*
X131681714Y-138041095D01*
X131634095Y-138183952D01*
X131062666Y-138755380D01*
X131681714Y-138755380D01*
X107307142Y-161393142D02*
X107259523Y-161440761D01*
X107116666Y-161488380D01*
X107021428Y-161488380D01*
X106878571Y-161440761D01*
X106783333Y-161345523D01*
X106735714Y-161250285D01*
X106688095Y-161059809D01*
X106688095Y-160916952D01*
X106735714Y-160726476D01*
X106783333Y-160631238D01*
X106878571Y-160536000D01*
X107021428Y-160488380D01*
X107116666Y-160488380D01*
X107259523Y-160536000D01*
X107307142Y-160583619D01*
X108259523Y-161488380D02*
X107688095Y-161488380D01*
X107973809Y-161488380D02*
X107973809Y-160488380D01*
X107878571Y-160631238D01*
X107783333Y-160726476D01*
X107688095Y-160774095D01*
X109164285Y-160488380D02*
X108688095Y-160488380D01*
X108640476Y-160964571D01*
X108688095Y-160916952D01*
X108783333Y-160869333D01*
X109021428Y-160869333D01*
X109116666Y-160916952D01*
X109164285Y-160964571D01*
X109211904Y-161059809D01*
X109211904Y-161297904D01*
X109164285Y-161393142D01*
X109116666Y-161440761D01*
X109021428Y-161488380D01*
X108783333Y-161488380D01*
X108688095Y-161440761D01*
X108640476Y-161393142D01*
X140112761Y-146343619D02*
X140017523Y-146296000D01*
X139922285Y-146200761D01*
X139779428Y-146057904D01*
X139684190Y-146010285D01*
X139588952Y-146010285D01*
X139636571Y-146248380D02*
X139541333Y-146200761D01*
X139446095Y-146105523D01*
X139398476Y-145915047D01*
X139398476Y-145581714D01*
X139446095Y-145391238D01*
X139541333Y-145296000D01*
X139636571Y-145248380D01*
X139827047Y-145248380D01*
X139922285Y-145296000D01*
X140017523Y-145391238D01*
X140065142Y-145581714D01*
X140065142Y-145915047D01*
X140017523Y-146105523D01*
X139922285Y-146200761D01*
X139827047Y-146248380D01*
X139636571Y-146248380D01*
X141017523Y-146248380D02*
X140446095Y-146248380D01*
X140731809Y-146248380D02*
X140731809Y-145248380D01*
X140636571Y-145391238D01*
X140541333Y-145486476D01*
X140446095Y-145534095D01*
X123952095Y-87082380D02*
X123952095Y-87891904D01*
X123999714Y-87987142D01*
X124047333Y-88034761D01*
X124142571Y-88082380D01*
X124333047Y-88082380D01*
X124428285Y-88034761D01*
X124475904Y-87987142D01*
X124523523Y-87891904D01*
X124523523Y-87082380D01*
X125142571Y-87510952D02*
X125047333Y-87463333D01*
X124999714Y-87415714D01*
X124952095Y-87320476D01*
X124952095Y-87272857D01*
X124999714Y-87177619D01*
X125047333Y-87130000D01*
X125142571Y-87082380D01*
X125333047Y-87082380D01*
X125428285Y-87130000D01*
X125475904Y-87177619D01*
X125523523Y-87272857D01*
X125523523Y-87320476D01*
X125475904Y-87415714D01*
X125428285Y-87463333D01*
X125333047Y-87510952D01*
X125142571Y-87510952D01*
X125047333Y-87558571D01*
X124999714Y-87606190D01*
X124952095Y-87701428D01*
X124952095Y-87891904D01*
X124999714Y-87987142D01*
X125047333Y-88034761D01*
X125142571Y-88082380D01*
X125333047Y-88082380D01*
X125428285Y-88034761D01*
X125475904Y-87987142D01*
X125523523Y-87891904D01*
X125523523Y-87701428D01*
X125475904Y-87606190D01*
X125428285Y-87558571D01*
X125333047Y-87510952D01*
X141089142Y-130405142D02*
X141041523Y-130452761D01*
X140898666Y-130500380D01*
X140803428Y-130500380D01*
X140660571Y-130452761D01*
X140565333Y-130357523D01*
X140517714Y-130262285D01*
X140470095Y-130071809D01*
X140470095Y-129928952D01*
X140517714Y-129738476D01*
X140565333Y-129643238D01*
X140660571Y-129548000D01*
X140803428Y-129500380D01*
X140898666Y-129500380D01*
X141041523Y-129548000D01*
X141089142Y-129595619D01*
X141470095Y-129595619D02*
X141517714Y-129548000D01*
X141612952Y-129500380D01*
X141851047Y-129500380D01*
X141946285Y-129548000D01*
X141993904Y-129595619D01*
X142041523Y-129690857D01*
X142041523Y-129786095D01*
X141993904Y-129928952D01*
X141422476Y-130500380D01*
X142041523Y-130500380D01*
X142612952Y-129928952D02*
X142517714Y-129881333D01*
X142470095Y-129833714D01*
X142422476Y-129738476D01*
X142422476Y-129690857D01*
X142470095Y-129595619D01*
X142517714Y-129548000D01*
X142612952Y-129500380D01*
X142803428Y-129500380D01*
X142898666Y-129548000D01*
X142946285Y-129595619D01*
X142993904Y-129690857D01*
X142993904Y-129738476D01*
X142946285Y-129833714D01*
X142898666Y-129881333D01*
X142803428Y-129928952D01*
X142612952Y-129928952D01*
X142517714Y-129976571D01*
X142470095Y-130024190D01*
X142422476Y-130119428D01*
X142422476Y-130309904D01*
X142470095Y-130405142D01*
X142517714Y-130452761D01*
X142612952Y-130500380D01*
X142803428Y-130500380D01*
X142898666Y-130452761D01*
X142946285Y-130405142D01*
X142993904Y-130309904D01*
X142993904Y-130119428D01*
X142946285Y-130024190D01*
X142898666Y-129976571D01*
X142803428Y-129928952D01*
X132707142Y-97893142D02*
X132659523Y-97940761D01*
X132516666Y-97988380D01*
X132421428Y-97988380D01*
X132278571Y-97940761D01*
X132183333Y-97845523D01*
X132135714Y-97750285D01*
X132088095Y-97559809D01*
X132088095Y-97416952D01*
X132135714Y-97226476D01*
X132183333Y-97131238D01*
X132278571Y-97036000D01*
X132421428Y-96988380D01*
X132516666Y-96988380D01*
X132659523Y-97036000D01*
X132707142Y-97083619D01*
X133088095Y-97083619D02*
X133135714Y-97036000D01*
X133230952Y-96988380D01*
X133469047Y-96988380D01*
X133564285Y-97036000D01*
X133611904Y-97083619D01*
X133659523Y-97178857D01*
X133659523Y-97274095D01*
X133611904Y-97416952D01*
X133040476Y-97988380D01*
X133659523Y-97988380D01*
X134564285Y-96988380D02*
X134088095Y-96988380D01*
X134040476Y-97464571D01*
X134088095Y-97416952D01*
X134183333Y-97369333D01*
X134421428Y-97369333D01*
X134516666Y-97416952D01*
X134564285Y-97464571D01*
X134611904Y-97559809D01*
X134611904Y-97797904D01*
X134564285Y-97893142D01*
X134516666Y-97940761D01*
X134421428Y-97988380D01*
X134183333Y-97988380D01*
X134088095Y-97940761D01*
X134040476Y-97893142D01*
X87495142Y-79605142D02*
X87447523Y-79652761D01*
X87304666Y-79700380D01*
X87209428Y-79700380D01*
X87066571Y-79652761D01*
X86971333Y-79557523D01*
X86923714Y-79462285D01*
X86876095Y-79271809D01*
X86876095Y-79128952D01*
X86923714Y-78938476D01*
X86971333Y-78843238D01*
X87066571Y-78748000D01*
X87209428Y-78700380D01*
X87304666Y-78700380D01*
X87447523Y-78748000D01*
X87495142Y-78795619D01*
X88447523Y-79700380D02*
X87876095Y-79700380D01*
X88161809Y-79700380D02*
X88161809Y-78700380D01*
X88066571Y-78843238D01*
X87971333Y-78938476D01*
X87876095Y-78986095D01*
X89399904Y-79700380D02*
X88828476Y-79700380D01*
X89114190Y-79700380D02*
X89114190Y-78700380D01*
X89018952Y-78843238D01*
X88923714Y-78938476D01*
X88828476Y-78986095D01*
X124468095Y-71842380D02*
X125039523Y-71842380D01*
X124753809Y-72842380D02*
X124753809Y-71842380D01*
X125372857Y-72842380D02*
X125372857Y-71842380D01*
X125753809Y-71842380D01*
X125849047Y-71890000D01*
X125896666Y-71937619D01*
X125944285Y-72032857D01*
X125944285Y-72175714D01*
X125896666Y-72270952D01*
X125849047Y-72318571D01*
X125753809Y-72366190D01*
X125372857Y-72366190D01*
X126801428Y-72175714D02*
X126801428Y-72842380D01*
X126563333Y-71794761D02*
X126325238Y-72509047D01*
X126944285Y-72509047D01*
X112704666Y-70032571D02*
X112371333Y-70032571D01*
X112371333Y-70556380D02*
X112371333Y-69556380D01*
X112847523Y-69556380D01*
X113561809Y-70032571D02*
X113704666Y-70080190D01*
X113752285Y-70127809D01*
X113799904Y-70223047D01*
X113799904Y-70365904D01*
X113752285Y-70461142D01*
X113704666Y-70508761D01*
X113609428Y-70556380D01*
X113228476Y-70556380D01*
X113228476Y-69556380D01*
X113561809Y-69556380D01*
X113657047Y-69604000D01*
X113704666Y-69651619D01*
X113752285Y-69746857D01*
X113752285Y-69842095D01*
X113704666Y-69937333D01*
X113657047Y-69984952D01*
X113561809Y-70032571D01*
X113228476Y-70032571D01*
X114180857Y-69651619D02*
X114228476Y-69604000D01*
X114323714Y-69556380D01*
X114561809Y-69556380D01*
X114657047Y-69604000D01*
X114704666Y-69651619D01*
X114752285Y-69746857D01*
X114752285Y-69842095D01*
X114704666Y-69984952D01*
X114133238Y-70556380D01*
X114752285Y-70556380D01*
X146312095Y-119340380D02*
X146883523Y-119340380D01*
X146597809Y-120340380D02*
X146597809Y-119340380D01*
X147216857Y-120340380D02*
X147216857Y-119340380D01*
X147597809Y-119340380D01*
X147693047Y-119388000D01*
X147740666Y-119435619D01*
X147788285Y-119530857D01*
X147788285Y-119673714D01*
X147740666Y-119768952D01*
X147693047Y-119816571D01*
X147597809Y-119864190D01*
X147216857Y-119864190D01*
X148121619Y-119340380D02*
X148740666Y-119340380D01*
X148407333Y-119721333D01*
X148550190Y-119721333D01*
X148645428Y-119768952D01*
X148693047Y-119816571D01*
X148740666Y-119911809D01*
X148740666Y-120149904D01*
X148693047Y-120245142D01*
X148645428Y-120292761D01*
X148550190Y-120340380D01*
X148264476Y-120340380D01*
X148169238Y-120292761D01*
X148121619Y-120245142D01*
X95940666Y-82224571D02*
X95607333Y-82224571D01*
X95607333Y-82748380D02*
X95607333Y-81748380D01*
X96083523Y-81748380D01*
X96797809Y-82224571D02*
X96940666Y-82272190D01*
X96988285Y-82319809D01*
X97035904Y-82415047D01*
X97035904Y-82557904D01*
X96988285Y-82653142D01*
X96940666Y-82700761D01*
X96845428Y-82748380D01*
X96464476Y-82748380D01*
X96464476Y-81748380D01*
X96797809Y-81748380D01*
X96893047Y-81796000D01*
X96940666Y-81843619D01*
X96988285Y-81938857D01*
X96988285Y-82034095D01*
X96940666Y-82129333D01*
X96893047Y-82176952D01*
X96797809Y-82224571D01*
X96464476Y-82224571D01*
X97988285Y-82748380D02*
X97416857Y-82748380D01*
X97702571Y-82748380D02*
X97702571Y-81748380D01*
X97607333Y-81891238D01*
X97512095Y-81986476D01*
X97416857Y-82034095D01*
X131913333Y-85542380D02*
X131437142Y-85542380D01*
X131437142Y-84542380D01*
X132199047Y-84637619D02*
X132246666Y-84590000D01*
X132341904Y-84542380D01*
X132580000Y-84542380D01*
X132675238Y-84590000D01*
X132722857Y-84637619D01*
X132770476Y-84732857D01*
X132770476Y-84828095D01*
X132722857Y-84970952D01*
X132151428Y-85542380D01*
X132770476Y-85542380D01*
X145311904Y-113990380D02*
X145311904Y-112990380D01*
X145550000Y-112990380D01*
X145692857Y-113038000D01*
X145788095Y-113133238D01*
X145835714Y-113228476D01*
X145883333Y-113418952D01*
X145883333Y-113561809D01*
X145835714Y-113752285D01*
X145788095Y-113847523D01*
X145692857Y-113942761D01*
X145550000Y-113990380D01*
X145311904Y-113990380D01*
X146454761Y-113418952D02*
X146359523Y-113371333D01*
X146311904Y-113323714D01*
X146264285Y-113228476D01*
X146264285Y-113180857D01*
X146311904Y-113085619D01*
X146359523Y-113038000D01*
X146454761Y-112990380D01*
X146645238Y-112990380D01*
X146740476Y-113038000D01*
X146788095Y-113085619D01*
X146835714Y-113180857D01*
X146835714Y-113228476D01*
X146788095Y-113323714D01*
X146740476Y-113371333D01*
X146645238Y-113418952D01*
X146454761Y-113418952D01*
X146359523Y-113466571D01*
X146311904Y-113514190D01*
X146264285Y-113609428D01*
X146264285Y-113799904D01*
X146311904Y-113895142D01*
X146359523Y-113942761D01*
X146454761Y-113990380D01*
X146645238Y-113990380D01*
X146740476Y-113942761D01*
X146788095Y-113895142D01*
X146835714Y-113799904D01*
X146835714Y-113609428D01*
X146788095Y-113514190D01*
X146740476Y-113466571D01*
X146645238Y-113418952D01*
X81692380Y-70588095D02*
X80692380Y-70588095D01*
X80692380Y-70350000D01*
X80740000Y-70207142D01*
X80835238Y-70111904D01*
X80930476Y-70064285D01*
X81120952Y-70016666D01*
X81263809Y-70016666D01*
X81454285Y-70064285D01*
X81549523Y-70111904D01*
X81644761Y-70207142D01*
X81692380Y-70350000D01*
X81692380Y-70588095D01*
X80692380Y-69159523D02*
X80692380Y-69350000D01*
X80740000Y-69445238D01*
X80787619Y-69492857D01*
X80930476Y-69588095D01*
X81120952Y-69635714D01*
X81501904Y-69635714D01*
X81597142Y-69588095D01*
X81644761Y-69540476D01*
X81692380Y-69445238D01*
X81692380Y-69254761D01*
X81644761Y-69159523D01*
X81597142Y-69111904D01*
X81501904Y-69064285D01*
X81263809Y-69064285D01*
X81168571Y-69111904D01*
X81120952Y-69159523D01*
X81073333Y-69254761D01*
X81073333Y-69445238D01*
X81120952Y-69540476D01*
X81168571Y-69588095D01*
X81263809Y-69635714D01*
X123960095Y-79208380D02*
X124531523Y-79208380D01*
X124245809Y-80208380D02*
X124245809Y-79208380D01*
X124864857Y-80208380D02*
X124864857Y-79208380D01*
X125245809Y-79208380D01*
X125341047Y-79256000D01*
X125388666Y-79303619D01*
X125436285Y-79398857D01*
X125436285Y-79541714D01*
X125388666Y-79636952D01*
X125341047Y-79684571D01*
X125245809Y-79732190D01*
X124864857Y-79732190D01*
X125769619Y-79208380D02*
X126436285Y-79208380D01*
X126007714Y-80208380D01*
X86772380Y-70588095D02*
X85772380Y-70588095D01*
X85772380Y-70350000D01*
X85820000Y-70207142D01*
X85915238Y-70111904D01*
X86010476Y-70064285D01*
X86200952Y-70016666D01*
X86343809Y-70016666D01*
X86534285Y-70064285D01*
X86629523Y-70111904D01*
X86724761Y-70207142D01*
X86772380Y-70350000D01*
X86772380Y-70588095D01*
X85772380Y-69111904D02*
X85772380Y-69588095D01*
X86248571Y-69635714D01*
X86200952Y-69588095D01*
X86153333Y-69492857D01*
X86153333Y-69254761D01*
X86200952Y-69159523D01*
X86248571Y-69111904D01*
X86343809Y-69064285D01*
X86581904Y-69064285D01*
X86677142Y-69111904D01*
X86724761Y-69159523D01*
X86772380Y-69254761D01*
X86772380Y-69492857D01*
X86724761Y-69588095D01*
X86677142Y-69635714D01*
X109751904Y-118308380D02*
X109751904Y-117308380D01*
X109990000Y-117308380D01*
X110132857Y-117356000D01*
X110228095Y-117451238D01*
X110275714Y-117546476D01*
X110323333Y-117736952D01*
X110323333Y-117879809D01*
X110275714Y-118070285D01*
X110228095Y-118165523D01*
X110132857Y-118260761D01*
X109990000Y-118308380D01*
X109751904Y-118308380D01*
X110704285Y-117403619D02*
X110751904Y-117356000D01*
X110847142Y-117308380D01*
X111085238Y-117308380D01*
X111180476Y-117356000D01*
X111228095Y-117403619D01*
X111275714Y-117498857D01*
X111275714Y-117594095D01*
X111228095Y-117736952D01*
X110656666Y-118308380D01*
X111275714Y-118308380D01*
X105926095Y-131024380D02*
X106497523Y-131024380D01*
X106211809Y-132024380D02*
X106211809Y-131024380D01*
X106830857Y-132024380D02*
X106830857Y-131024380D01*
X107211809Y-131024380D01*
X107307047Y-131072000D01*
X107354666Y-131119619D01*
X107402285Y-131214857D01*
X107402285Y-131357714D01*
X107354666Y-131452952D01*
X107307047Y-131500571D01*
X107211809Y-131548190D01*
X106830857Y-131548190D01*
X108259428Y-131024380D02*
X108068952Y-131024380D01*
X107973714Y-131072000D01*
X107926095Y-131119619D01*
X107830857Y-131262476D01*
X107783238Y-131452952D01*
X107783238Y-131833904D01*
X107830857Y-131929142D01*
X107878476Y-131976761D01*
X107973714Y-132024380D01*
X108164190Y-132024380D01*
X108259428Y-131976761D01*
X108307047Y-131929142D01*
X108354666Y-131833904D01*
X108354666Y-131595809D01*
X108307047Y-131500571D01*
X108259428Y-131452952D01*
X108164190Y-131405333D01*
X107973714Y-131405333D01*
X107878476Y-131452952D01*
X107830857Y-131500571D01*
X107783238Y-131595809D01*
X91852380Y-70588095D02*
X90852380Y-70588095D01*
X90852380Y-70350000D01*
X90900000Y-70207142D01*
X90995238Y-70111904D01*
X91090476Y-70064285D01*
X91280952Y-70016666D01*
X91423809Y-70016666D01*
X91614285Y-70064285D01*
X91709523Y-70111904D01*
X91804761Y-70207142D01*
X91852380Y-70350000D01*
X91852380Y-70588095D01*
X91185714Y-69159523D02*
X91852380Y-69159523D01*
X90804761Y-69397619D02*
X91519047Y-69635714D01*
X91519047Y-69016666D01*
X75715904Y-164536380D02*
X75715904Y-163536380D01*
X75954000Y-163536380D01*
X76096857Y-163584000D01*
X76192095Y-163679238D01*
X76239714Y-163774476D01*
X76287333Y-163964952D01*
X76287333Y-164107809D01*
X76239714Y-164298285D01*
X76192095Y-164393523D01*
X76096857Y-164488761D01*
X75954000Y-164536380D01*
X75715904Y-164536380D01*
X76620666Y-163536380D02*
X77239714Y-163536380D01*
X76906380Y-163917333D01*
X77049238Y-163917333D01*
X77144476Y-163964952D01*
X77192095Y-164012571D01*
X77239714Y-164107809D01*
X77239714Y-164345904D01*
X77192095Y-164441142D01*
X77144476Y-164488761D01*
X77049238Y-164536380D01*
X76763523Y-164536380D01*
X76668285Y-164488761D01*
X76620666Y-164441142D01*
X65706666Y-106132380D02*
X65706666Y-106846666D01*
X65659047Y-106989523D01*
X65563809Y-107084761D01*
X65420952Y-107132380D01*
X65325714Y-107132380D01*
X66087619Y-106132380D02*
X66754285Y-106132380D01*
X66325714Y-107132380D01*
X76612380Y-70181695D02*
X75612380Y-70181695D01*
X75612380Y-69943600D01*
X75660000Y-69800742D01*
X75755238Y-69705504D01*
X75850476Y-69657885D01*
X76040952Y-69610266D01*
X76183809Y-69610266D01*
X76374285Y-69657885D01*
X76469523Y-69705504D01*
X76564761Y-69800742D01*
X76612380Y-69943600D01*
X76612380Y-70181695D01*
X75612380Y-69276933D02*
X75612380Y-68610266D01*
X76612380Y-69038838D01*
X133881904Y-80422380D02*
X133881904Y-79422380D01*
X134120000Y-79422380D01*
X134262857Y-79470000D01*
X134358095Y-79565238D01*
X134405714Y-79660476D01*
X134453333Y-79850952D01*
X134453333Y-79993809D01*
X134405714Y-80184285D01*
X134358095Y-80279523D01*
X134262857Y-80374761D01*
X134120000Y-80422380D01*
X133881904Y-80422380D01*
X135405714Y-80422380D02*
X134834285Y-80422380D01*
X135120000Y-80422380D02*
X135120000Y-79422380D01*
X135024761Y-79565238D01*
X134929523Y-79660476D01*
X134834285Y-79708095D01*
X65706666Y-90892380D02*
X65706666Y-91606666D01*
X65659047Y-91749523D01*
X65563809Y-91844761D01*
X65420952Y-91892380D01*
X65325714Y-91892380D01*
X66325714Y-91320952D02*
X66230476Y-91273333D01*
X66182857Y-91225714D01*
X66135238Y-91130476D01*
X66135238Y-91082857D01*
X66182857Y-90987619D01*
X66230476Y-90940000D01*
X66325714Y-90892380D01*
X66516190Y-90892380D01*
X66611428Y-90940000D01*
X66659047Y-90987619D01*
X66706666Y-91082857D01*
X66706666Y-91130476D01*
X66659047Y-91225714D01*
X66611428Y-91273333D01*
X66516190Y-91320952D01*
X66325714Y-91320952D01*
X66230476Y-91368571D01*
X66182857Y-91416190D01*
X66135238Y-91511428D01*
X66135238Y-91701904D01*
X66182857Y-91797142D01*
X66230476Y-91844761D01*
X66325714Y-91892380D01*
X66516190Y-91892380D01*
X66611428Y-91844761D01*
X66659047Y-91797142D01*
X66706666Y-91701904D01*
X66706666Y-91511428D01*
X66659047Y-91416190D01*
X66611428Y-91368571D01*
X66516190Y-91320952D01*
X90217666Y-95718380D02*
X90217666Y-96432666D01*
X90170047Y-96575523D01*
X90074809Y-96670761D01*
X89931952Y-96718380D01*
X89836714Y-96718380D01*
X91122428Y-96051714D02*
X91122428Y-96718380D01*
X90884333Y-95670761D02*
X90646238Y-96385047D01*
X91265285Y-96385047D01*
X86534666Y-95718380D02*
X86534666Y-96432666D01*
X86487047Y-96575523D01*
X86391809Y-96670761D01*
X86248952Y-96718380D01*
X86153714Y-96718380D01*
X86915619Y-95718380D02*
X87534666Y-95718380D01*
X87201333Y-96099333D01*
X87344190Y-96099333D01*
X87439428Y-96146952D01*
X87487047Y-96194571D01*
X87534666Y-96289809D01*
X87534666Y-96527904D01*
X87487047Y-96623142D01*
X87439428Y-96670761D01*
X87344190Y-96718380D01*
X87058476Y-96718380D01*
X86963238Y-96670761D01*
X86915619Y-96623142D01*
X144835714Y-130500380D02*
X144835714Y-129500380D01*
X145073809Y-129500380D01*
X145216666Y-129548000D01*
X145311904Y-129643238D01*
X145359523Y-129738476D01*
X145407142Y-129928952D01*
X145407142Y-130071809D01*
X145359523Y-130262285D01*
X145311904Y-130357523D01*
X145216666Y-130452761D01*
X145073809Y-130500380D01*
X144835714Y-130500380D01*
X146359523Y-130500380D02*
X145788095Y-130500380D01*
X146073809Y-130500380D02*
X146073809Y-129500380D01*
X145978571Y-129643238D01*
X145883333Y-129738476D01*
X145788095Y-129786095D01*
X146978571Y-129500380D02*
X147073809Y-129500380D01*
X147169047Y-129548000D01*
X147216666Y-129595619D01*
X147264285Y-129690857D01*
X147311904Y-129881333D01*
X147311904Y-130119428D01*
X147264285Y-130309904D01*
X147216666Y-130405142D01*
X147169047Y-130452761D01*
X147073809Y-130500380D01*
X146978571Y-130500380D01*
X146883333Y-130452761D01*
X146835714Y-130405142D01*
X146788095Y-130309904D01*
X146740476Y-130119428D01*
X146740476Y-129881333D01*
X146788095Y-129690857D01*
X146835714Y-129595619D01*
X146883333Y-129548000D01*
X146978571Y-129500380D01*
X71532380Y-70588095D02*
X70532380Y-70588095D01*
X70532380Y-70350000D01*
X70580000Y-70207142D01*
X70675238Y-70111904D01*
X70770476Y-70064285D01*
X70960952Y-70016666D01*
X71103809Y-70016666D01*
X71294285Y-70064285D01*
X71389523Y-70111904D01*
X71484761Y-70207142D01*
X71532380Y-70350000D01*
X71532380Y-70588095D01*
X71532380Y-69540476D02*
X71532380Y-69350000D01*
X71484761Y-69254761D01*
X71437142Y-69207142D01*
X71294285Y-69111904D01*
X71103809Y-69064285D01*
X70722857Y-69064285D01*
X70627619Y-69111904D01*
X70580000Y-69159523D01*
X70532380Y-69254761D01*
X70532380Y-69445238D01*
X70580000Y-69540476D01*
X70627619Y-69588095D01*
X70722857Y-69635714D01*
X70960952Y-69635714D01*
X71056190Y-69588095D01*
X71103809Y-69540476D01*
X71151428Y-69445238D01*
X71151428Y-69254761D01*
X71103809Y-69159523D01*
X71056190Y-69111904D01*
X70960952Y-69064285D01*
X131111666Y-65187380D02*
X131111666Y-65901666D01*
X131064047Y-66044523D01*
X130968809Y-66139761D01*
X130825952Y-66187380D01*
X130730714Y-66187380D01*
X132064047Y-65187380D02*
X131587857Y-65187380D01*
X131540238Y-65663571D01*
X131587857Y-65615952D01*
X131683095Y-65568333D01*
X131921190Y-65568333D01*
X132016428Y-65615952D01*
X132064047Y-65663571D01*
X132111666Y-65758809D01*
X132111666Y-65996904D01*
X132064047Y-66092142D01*
X132016428Y-66139761D01*
X131921190Y-66187380D01*
X131683095Y-66187380D01*
X131587857Y-66139761D01*
X131540238Y-66092142D01*
X143343333Y-67762380D02*
X143010000Y-67286190D01*
X142771904Y-67762380D02*
X142771904Y-66762380D01*
X143152857Y-66762380D01*
X143248095Y-66810000D01*
X143295714Y-66857619D01*
X143343333Y-66952857D01*
X143343333Y-67095714D01*
X143295714Y-67190952D01*
X143248095Y-67238571D01*
X143152857Y-67286190D01*
X142771904Y-67286190D01*
X143676666Y-66762380D02*
X144295714Y-66762380D01*
X143962380Y-67143333D01*
X144105238Y-67143333D01*
X144200476Y-67190952D01*
X144248095Y-67238571D01*
X144295714Y-67333809D01*
X144295714Y-67571904D01*
X144248095Y-67667142D01*
X144200476Y-67714761D01*
X144105238Y-67762380D01*
X143819523Y-67762380D01*
X143724285Y-67714761D01*
X143676666Y-67667142D01*
X138263333Y-67667142D02*
X138215714Y-67714761D01*
X138072857Y-67762380D01*
X137977619Y-67762380D01*
X137834761Y-67714761D01*
X137739523Y-67619523D01*
X137691904Y-67524285D01*
X137644285Y-67333809D01*
X137644285Y-67190952D01*
X137691904Y-67000476D01*
X137739523Y-66905238D01*
X137834761Y-66810000D01*
X137977619Y-66762380D01*
X138072857Y-66762380D01*
X138215714Y-66810000D01*
X138263333Y-66857619D01*
X139120476Y-67095714D02*
X139120476Y-67762380D01*
X138882380Y-66714761D02*
X138644285Y-67429047D01*
X139263333Y-67429047D01*
X128103333Y-80799942D02*
X128055714Y-80847561D01*
X127912857Y-80895180D01*
X127817619Y-80895180D01*
X127674761Y-80847561D01*
X127579523Y-80752323D01*
X127531904Y-80657085D01*
X127484285Y-80466609D01*
X127484285Y-80323752D01*
X127531904Y-80133276D01*
X127579523Y-80038038D01*
X127674761Y-79942800D01*
X127817619Y-79895180D01*
X127912857Y-79895180D01*
X128055714Y-79942800D01*
X128103333Y-79990419D01*
X128436666Y-79895180D02*
X129103333Y-79895180D01*
X128674761Y-80895180D01*
X138898333Y-81002142D02*
X138850714Y-81049761D01*
X138707857Y-81097380D01*
X138612619Y-81097380D01*
X138469761Y-81049761D01*
X138374523Y-80954523D01*
X138326904Y-80859285D01*
X138279285Y-80668809D01*
X138279285Y-80525952D01*
X138326904Y-80335476D01*
X138374523Y-80240238D01*
X138469761Y-80145000D01*
X138612619Y-80097380D01*
X138707857Y-80097380D01*
X138850714Y-80145000D01*
X138898333Y-80192619D01*
X139755476Y-80097380D02*
X139565000Y-80097380D01*
X139469761Y-80145000D01*
X139422142Y-80192619D01*
X139326904Y-80335476D01*
X139279285Y-80525952D01*
X139279285Y-80906904D01*
X139326904Y-81002142D01*
X139374523Y-81049761D01*
X139469761Y-81097380D01*
X139660238Y-81097380D01*
X139755476Y-81049761D01*
X139803095Y-81002142D01*
X139850714Y-80906904D01*
X139850714Y-80668809D01*
X139803095Y-80573571D01*
X139755476Y-80525952D01*
X139660238Y-80478333D01*
X139469761Y-80478333D01*
X139374523Y-80525952D01*
X139326904Y-80573571D01*
X139279285Y-80668809D01*
X67064095Y-159472380D02*
X67635523Y-159472380D01*
X67349809Y-160472380D02*
X67349809Y-159472380D01*
X67968857Y-160472380D02*
X67968857Y-159472380D01*
X68349809Y-159472380D01*
X68445047Y-159520000D01*
X68492666Y-159567619D01*
X68540285Y-159662857D01*
X68540285Y-159805714D01*
X68492666Y-159900952D01*
X68445047Y-159948571D01*
X68349809Y-159996190D01*
X67968857Y-159996190D01*
X69016476Y-160472380D02*
X69206952Y-160472380D01*
X69302190Y-160424761D01*
X69349809Y-160377142D01*
X69445047Y-160234285D01*
X69492666Y-160043809D01*
X69492666Y-159662857D01*
X69445047Y-159567619D01*
X69397428Y-159520000D01*
X69302190Y-159472380D01*
X69111714Y-159472380D01*
X69016476Y-159520000D01*
X68968857Y-159567619D01*
X68921238Y-159662857D01*
X68921238Y-159900952D01*
X68968857Y-159996190D01*
X69016476Y-160043809D01*
X69111714Y-160091428D01*
X69302190Y-160091428D01*
X69397428Y-160043809D01*
X69445047Y-159996190D01*
X69492666Y-159900952D01*
X147613904Y-144486380D02*
X148185333Y-144486380D01*
X147899619Y-145486380D02*
X147899619Y-144486380D01*
X148518666Y-145486380D02*
X148518666Y-144486380D01*
X148899619Y-144486380D01*
X148994857Y-144534000D01*
X149042476Y-144581619D01*
X149090095Y-144676857D01*
X149090095Y-144819714D01*
X149042476Y-144914952D01*
X148994857Y-144962571D01*
X148899619Y-145010190D01*
X148518666Y-145010190D01*
X150042476Y-145486380D02*
X149471047Y-145486380D01*
X149756761Y-145486380D02*
X149756761Y-144486380D01*
X149661523Y-144629238D01*
X149566285Y-144724476D01*
X149471047Y-144772095D01*
X150661523Y-144486380D02*
X150756761Y-144486380D01*
X150852000Y-144534000D01*
X150899619Y-144581619D01*
X150947238Y-144676857D01*
X150994857Y-144867333D01*
X150994857Y-145105428D01*
X150947238Y-145295904D01*
X150899619Y-145391142D01*
X150852000Y-145438761D01*
X150756761Y-145486380D01*
X150661523Y-145486380D01*
X150566285Y-145438761D01*
X150518666Y-145391142D01*
X150471047Y-145295904D01*
X150423428Y-145105428D01*
X150423428Y-144867333D01*
X150471047Y-144676857D01*
X150518666Y-144581619D01*
X150566285Y-144534000D01*
X150661523Y-144486380D01*
X147867904Y-108418380D02*
X148439333Y-108418380D01*
X148153619Y-109418380D02*
X148153619Y-108418380D01*
X148772666Y-109418380D02*
X148772666Y-108418380D01*
X149153619Y-108418380D01*
X149248857Y-108466000D01*
X149296476Y-108513619D01*
X149344095Y-108608857D01*
X149344095Y-108751714D01*
X149296476Y-108846952D01*
X149248857Y-108894571D01*
X149153619Y-108942190D01*
X148772666Y-108942190D01*
X150296476Y-109418380D02*
X149725047Y-109418380D01*
X150010761Y-109418380D02*
X150010761Y-108418380D01*
X149915523Y-108561238D01*
X149820285Y-108656476D01*
X149725047Y-108704095D01*
X151248857Y-109418380D02*
X150677428Y-109418380D01*
X150963142Y-109418380D02*
X150963142Y-108418380D01*
X150867904Y-108561238D01*
X150772666Y-108656476D01*
X150677428Y-108704095D01*
X126531904Y-102830380D02*
X127103333Y-102830380D01*
X126817619Y-103830380D02*
X126817619Y-102830380D01*
X127436666Y-103830380D02*
X127436666Y-102830380D01*
X127817619Y-102830380D01*
X127912857Y-102878000D01*
X127960476Y-102925619D01*
X128008095Y-103020857D01*
X128008095Y-103163714D01*
X127960476Y-103258952D01*
X127912857Y-103306571D01*
X127817619Y-103354190D01*
X127436666Y-103354190D01*
X128960476Y-103830380D02*
X128389047Y-103830380D01*
X128674761Y-103830380D02*
X128674761Y-102830380D01*
X128579523Y-102973238D01*
X128484285Y-103068476D01*
X128389047Y-103116095D01*
X129341428Y-102925619D02*
X129389047Y-102878000D01*
X129484285Y-102830380D01*
X129722380Y-102830380D01*
X129817619Y-102878000D01*
X129865238Y-102925619D01*
X129912857Y-103020857D01*
X129912857Y-103116095D01*
X129865238Y-103258952D01*
X129293809Y-103830380D01*
X129912857Y-103830380D01*
X146216904Y-69937380D02*
X146788333Y-69937380D01*
X146502619Y-70937380D02*
X146502619Y-69937380D01*
X147121666Y-70937380D02*
X147121666Y-69937380D01*
X147502619Y-69937380D01*
X147597857Y-69985000D01*
X147645476Y-70032619D01*
X147693095Y-70127857D01*
X147693095Y-70270714D01*
X147645476Y-70365952D01*
X147597857Y-70413571D01*
X147502619Y-70461190D01*
X147121666Y-70461190D01*
X148645476Y-70937380D02*
X148074047Y-70937380D01*
X148359761Y-70937380D02*
X148359761Y-69937380D01*
X148264523Y-70080238D01*
X148169285Y-70175476D01*
X148074047Y-70223095D01*
X148978809Y-69937380D02*
X149597857Y-69937380D01*
X149264523Y-70318333D01*
X149407380Y-70318333D01*
X149502619Y-70365952D01*
X149550238Y-70413571D01*
X149597857Y-70508809D01*
X149597857Y-70746904D01*
X149550238Y-70842142D01*
X149502619Y-70889761D01*
X149407380Y-70937380D01*
X149121666Y-70937380D01*
X149026428Y-70889761D01*
X148978809Y-70842142D01*
X144105333Y-96115142D02*
X144057714Y-96162761D01*
X143914857Y-96210380D01*
X143819619Y-96210380D01*
X143676761Y-96162761D01*
X143581523Y-96067523D01*
X143533904Y-95972285D01*
X143486285Y-95781809D01*
X143486285Y-95638952D01*
X143533904Y-95448476D01*
X143581523Y-95353238D01*
X143676761Y-95258000D01*
X143819619Y-95210380D01*
X143914857Y-95210380D01*
X144057714Y-95258000D01*
X144105333Y-95305619D01*
X144676761Y-95638952D02*
X144581523Y-95591333D01*
X144533904Y-95543714D01*
X144486285Y-95448476D01*
X144486285Y-95400857D01*
X144533904Y-95305619D01*
X144581523Y-95258000D01*
X144676761Y-95210380D01*
X144867238Y-95210380D01*
X144962476Y-95258000D01*
X145010095Y-95305619D01*
X145057714Y-95400857D01*
X145057714Y-95448476D01*
X145010095Y-95543714D01*
X144962476Y-95591333D01*
X144867238Y-95638952D01*
X144676761Y-95638952D01*
X144581523Y-95686571D01*
X144533904Y-95734190D01*
X144486285Y-95829428D01*
X144486285Y-96019904D01*
X144533904Y-96115142D01*
X144581523Y-96162761D01*
X144676761Y-96210380D01*
X144867238Y-96210380D01*
X144962476Y-96162761D01*
X145010095Y-96115142D01*
X145057714Y-96019904D01*
X145057714Y-95829428D01*
X145010095Y-95734190D01*
X144962476Y-95686571D01*
X144867238Y-95638952D01*
X77724095Y-118832380D02*
X77724095Y-119641904D01*
X77771714Y-119737142D01*
X77819333Y-119784761D01*
X77914571Y-119832380D01*
X78105047Y-119832380D01*
X78200285Y-119784761D01*
X78247904Y-119737142D01*
X78295523Y-119641904D01*
X78295523Y-118832380D01*
X79200285Y-119165714D02*
X79200285Y-119832380D01*
X78962190Y-118784761D02*
X78724095Y-119499047D01*
X79343142Y-119499047D01*
X62690476Y-123658380D02*
X62690476Y-124372666D01*
X62642857Y-124515523D01*
X62547619Y-124610761D01*
X62404761Y-124658380D01*
X62309523Y-124658380D01*
X63690476Y-124658380D02*
X63119047Y-124658380D01*
X63404761Y-124658380D02*
X63404761Y-123658380D01*
X63309523Y-123801238D01*
X63214285Y-123896476D01*
X63119047Y-123944095D01*
X64071428Y-123753619D02*
X64119047Y-123706000D01*
X64214285Y-123658380D01*
X64452380Y-123658380D01*
X64547619Y-123706000D01*
X64595238Y-123753619D01*
X64642857Y-123848857D01*
X64642857Y-123944095D01*
X64595238Y-124086952D01*
X64023809Y-124658380D01*
X64642857Y-124658380D01*
X144018095Y-139914380D02*
X144018095Y-140723904D01*
X144065714Y-140819142D01*
X144113333Y-140866761D01*
X144208571Y-140914380D01*
X144399047Y-140914380D01*
X144494285Y-140866761D01*
X144541904Y-140819142D01*
X144589523Y-140723904D01*
X144589523Y-139914380D01*
X145113333Y-140914380D02*
X145303809Y-140914380D01*
X145399047Y-140866761D01*
X145446666Y-140819142D01*
X145541904Y-140676285D01*
X145589523Y-140485809D01*
X145589523Y-140104857D01*
X145541904Y-140009619D01*
X145494285Y-139962000D01*
X145399047Y-139914380D01*
X145208571Y-139914380D01*
X145113333Y-139962000D01*
X145065714Y-140009619D01*
X145018095Y-140104857D01*
X145018095Y-140342952D01*
X145065714Y-140438190D01*
X145113333Y-140485809D01*
X145208571Y-140533428D01*
X145399047Y-140533428D01*
X145494285Y-140485809D01*
X145541904Y-140438190D01*
X145589523Y-140342952D01*
X112704666Y-67746571D02*
X112371333Y-67746571D01*
X112371333Y-68270380D02*
X112371333Y-67270380D01*
X112847523Y-67270380D01*
X113561809Y-67746571D02*
X113704666Y-67794190D01*
X113752285Y-67841809D01*
X113799904Y-67937047D01*
X113799904Y-68079904D01*
X113752285Y-68175142D01*
X113704666Y-68222761D01*
X113609428Y-68270380D01*
X113228476Y-68270380D01*
X113228476Y-67270380D01*
X113561809Y-67270380D01*
X113657047Y-67318000D01*
X113704666Y-67365619D01*
X113752285Y-67460857D01*
X113752285Y-67556095D01*
X113704666Y-67651333D01*
X113657047Y-67698952D01*
X113561809Y-67746571D01*
X113228476Y-67746571D01*
X114133238Y-67270380D02*
X114752285Y-67270380D01*
X114418952Y-67651333D01*
X114561809Y-67651333D01*
X114657047Y-67698952D01*
X114704666Y-67746571D01*
X114752285Y-67841809D01*
X114752285Y-68079904D01*
X114704666Y-68175142D01*
X114657047Y-68222761D01*
X114561809Y-68270380D01*
X114276095Y-68270380D01*
X114180857Y-68222761D01*
X114133238Y-68175142D01*
X142700476Y-99274380D02*
X142700476Y-99988666D01*
X142652857Y-100131523D01*
X142557619Y-100226761D01*
X142414761Y-100274380D01*
X142319523Y-100274380D01*
X143700476Y-100274380D02*
X143129047Y-100274380D01*
X143414761Y-100274380D02*
X143414761Y-99274380D01*
X143319523Y-99417238D01*
X143224285Y-99512476D01*
X143129047Y-99560095D01*
X144319523Y-99274380D02*
X144414761Y-99274380D01*
X144510000Y-99322000D01*
X144557619Y-99369619D01*
X144605238Y-99464857D01*
X144652857Y-99655333D01*
X144652857Y-99893428D01*
X144605238Y-100083904D01*
X144557619Y-100179142D01*
X144510000Y-100226761D01*
X144414761Y-100274380D01*
X144319523Y-100274380D01*
X144224285Y-100226761D01*
X144176666Y-100179142D01*
X144129047Y-100083904D01*
X144081428Y-99893428D01*
X144081428Y-99655333D01*
X144129047Y-99464857D01*
X144176666Y-99369619D01*
X144224285Y-99322000D01*
X144319523Y-99274380D01*
X148034476Y-99274380D02*
X148034476Y-99988666D01*
X147986857Y-100131523D01*
X147891619Y-100226761D01*
X147748761Y-100274380D01*
X147653523Y-100274380D01*
X149034476Y-100274380D02*
X148463047Y-100274380D01*
X148748761Y-100274380D02*
X148748761Y-99274380D01*
X148653523Y-99417238D01*
X148558285Y-99512476D01*
X148463047Y-99560095D01*
X149986857Y-100274380D02*
X149415428Y-100274380D01*
X149701142Y-100274380D02*
X149701142Y-99274380D01*
X149605904Y-99417238D01*
X149510666Y-99512476D01*
X149415428Y-99560095D01*
X112863333Y-77065142D02*
X112815714Y-77112761D01*
X112672857Y-77160380D01*
X112577619Y-77160380D01*
X112434761Y-77112761D01*
X112339523Y-77017523D01*
X112291904Y-76922285D01*
X112244285Y-76731809D01*
X112244285Y-76588952D01*
X112291904Y-76398476D01*
X112339523Y-76303238D01*
X112434761Y-76208000D01*
X112577619Y-76160380D01*
X112672857Y-76160380D01*
X112815714Y-76208000D01*
X112863333Y-76255619D01*
X113339523Y-77160380D02*
X113530000Y-77160380D01*
X113625238Y-77112761D01*
X113672857Y-77065142D01*
X113768095Y-76922285D01*
X113815714Y-76731809D01*
X113815714Y-76350857D01*
X113768095Y-76255619D01*
X113720476Y-76208000D01*
X113625238Y-76160380D01*
X113434761Y-76160380D01*
X113339523Y-76208000D01*
X113291904Y-76255619D01*
X113244285Y-76350857D01*
X113244285Y-76588952D01*
X113291904Y-76684190D01*
X113339523Y-76731809D01*
X113434761Y-76779428D01*
X113625238Y-76779428D01*
X113720476Y-76731809D01*
X113768095Y-76684190D01*
X113815714Y-76588952D01*
X85463142Y-89511142D02*
X85415523Y-89558761D01*
X85272666Y-89606380D01*
X85177428Y-89606380D01*
X85034571Y-89558761D01*
X84939333Y-89463523D01*
X84891714Y-89368285D01*
X84844095Y-89177809D01*
X84844095Y-89034952D01*
X84891714Y-88844476D01*
X84939333Y-88749238D01*
X85034571Y-88654000D01*
X85177428Y-88606380D01*
X85272666Y-88606380D01*
X85415523Y-88654000D01*
X85463142Y-88701619D01*
X86415523Y-89606380D02*
X85844095Y-89606380D01*
X86129809Y-89606380D02*
X86129809Y-88606380D01*
X86034571Y-88749238D01*
X85939333Y-88844476D01*
X85844095Y-88892095D01*
X86748857Y-88606380D02*
X87367904Y-88606380D01*
X87034571Y-88987333D01*
X87177428Y-88987333D01*
X87272666Y-89034952D01*
X87320285Y-89082571D01*
X87367904Y-89177809D01*
X87367904Y-89415904D01*
X87320285Y-89511142D01*
X87272666Y-89558761D01*
X87177428Y-89606380D01*
X86891714Y-89606380D01*
X86796476Y-89558761D01*
X86748857Y-89511142D01*
X149217142Y-81257142D02*
X149169523Y-81304761D01*
X149026666Y-81352380D01*
X148931428Y-81352380D01*
X148788571Y-81304761D01*
X148693333Y-81209523D01*
X148645714Y-81114285D01*
X148598095Y-80923809D01*
X148598095Y-80780952D01*
X148645714Y-80590476D01*
X148693333Y-80495238D01*
X148788571Y-80400000D01*
X148931428Y-80352380D01*
X149026666Y-80352380D01*
X149169523Y-80400000D01*
X149217142Y-80447619D01*
X150169523Y-81352380D02*
X149598095Y-81352380D01*
X149883809Y-81352380D02*
X149883809Y-80352380D01*
X149788571Y-80495238D01*
X149693333Y-80590476D01*
X149598095Y-80638095D01*
X150550476Y-80447619D02*
X150598095Y-80400000D01*
X150693333Y-80352380D01*
X150931428Y-80352380D01*
X151026666Y-80400000D01*
X151074285Y-80447619D01*
X151121904Y-80542857D01*
X151121904Y-80638095D01*
X151074285Y-80780952D01*
X150502857Y-81352380D01*
X151121904Y-81352380D01*
X76962095Y-106132380D02*
X76962095Y-106941904D01*
X77009714Y-107037142D01*
X77057333Y-107084761D01*
X77152571Y-107132380D01*
X77343047Y-107132380D01*
X77438285Y-107084761D01*
X77485904Y-107037142D01*
X77533523Y-106941904D01*
X77533523Y-106132380D01*
X77914476Y-106132380D02*
X78533523Y-106132380D01*
X78200190Y-106513333D01*
X78343047Y-106513333D01*
X78438285Y-106560952D01*
X78485904Y-106608571D01*
X78533523Y-106703809D01*
X78533523Y-106941904D01*
X78485904Y-107037142D01*
X78438285Y-107084761D01*
X78343047Y-107132380D01*
X78057333Y-107132380D01*
X77962095Y-107084761D01*
X77914476Y-107037142D01*
X78613095Y-88051780D02*
X78613095Y-88861304D01*
X78660714Y-88956542D01*
X78708333Y-89004161D01*
X78803571Y-89051780D01*
X78994047Y-89051780D01*
X79089285Y-89004161D01*
X79136904Y-88956542D01*
X79184523Y-88861304D01*
X79184523Y-88051780D01*
X79565476Y-88051780D02*
X80232142Y-88051780D01*
X79803571Y-89051780D01*
X137366476Y-99274380D02*
X137366476Y-99988666D01*
X137318857Y-100131523D01*
X137223619Y-100226761D01*
X137080761Y-100274380D01*
X136985523Y-100274380D01*
X138366476Y-100274380D02*
X137795047Y-100274380D01*
X138080761Y-100274380D02*
X138080761Y-99274380D01*
X137985523Y-99417238D01*
X137890285Y-99512476D01*
X137795047Y-99560095D01*
X139223619Y-99607714D02*
X139223619Y-100274380D01*
X138985523Y-99226761D02*
X138747428Y-99941047D01*
X139366476Y-99941047D01*
X91900476Y-74890380D02*
X91900476Y-75604666D01*
X91852857Y-75747523D01*
X91757619Y-75842761D01*
X91614761Y-75890380D01*
X91519523Y-75890380D01*
X92900476Y-75890380D02*
X92329047Y-75890380D01*
X92614761Y-75890380D02*
X92614761Y-74890380D01*
X92519523Y-75033238D01*
X92424285Y-75128476D01*
X92329047Y-75176095D01*
X93757619Y-74890380D02*
X93567142Y-74890380D01*
X93471904Y-74938000D01*
X93424285Y-74985619D01*
X93329047Y-75128476D01*
X93281428Y-75318952D01*
X93281428Y-75699904D01*
X93329047Y-75795142D01*
X93376666Y-75842761D01*
X93471904Y-75890380D01*
X93662380Y-75890380D01*
X93757619Y-75842761D01*
X93805238Y-75795142D01*
X93852857Y-75699904D01*
X93852857Y-75461809D01*
X93805238Y-75366571D01*
X93757619Y-75318952D01*
X93662380Y-75271333D01*
X93471904Y-75271333D01*
X93376666Y-75318952D01*
X93329047Y-75366571D01*
X93281428Y-75461809D01*
X148963476Y-165167380D02*
X148963476Y-165881666D01*
X148915857Y-166024523D01*
X148820619Y-166119761D01*
X148677761Y-166167380D01*
X148582523Y-166167380D01*
X149963476Y-166167380D02*
X149392047Y-166167380D01*
X149677761Y-166167380D02*
X149677761Y-165167380D01*
X149582523Y-165310238D01*
X149487285Y-165405476D01*
X149392047Y-165453095D01*
X150296809Y-165167380D02*
X150963476Y-165167380D01*
X150534904Y-166167380D01*
X106354666Y-83240571D02*
X106021333Y-83240571D01*
X106021333Y-83764380D02*
X106021333Y-82764380D01*
X106497523Y-82764380D01*
X107211809Y-83240571D02*
X107354666Y-83288190D01*
X107402285Y-83335809D01*
X107449904Y-83431047D01*
X107449904Y-83573904D01*
X107402285Y-83669142D01*
X107354666Y-83716761D01*
X107259428Y-83764380D01*
X106878476Y-83764380D01*
X106878476Y-82764380D01*
X107211809Y-82764380D01*
X107307047Y-82812000D01*
X107354666Y-82859619D01*
X107402285Y-82954857D01*
X107402285Y-83050095D01*
X107354666Y-83145333D01*
X107307047Y-83192952D01*
X107211809Y-83240571D01*
X106878476Y-83240571D01*
X108307047Y-83097714D02*
X108307047Y-83764380D01*
X108068952Y-82716761D02*
X107830857Y-83431047D01*
X108449904Y-83431047D01*
X107394476Y-136612380D02*
X107394476Y-137326666D01*
X107346857Y-137469523D01*
X107251619Y-137564761D01*
X107108761Y-137612380D01*
X107013523Y-137612380D01*
X108394476Y-137612380D02*
X107823047Y-137612380D01*
X108108761Y-137612380D02*
X108108761Y-136612380D01*
X108013523Y-136755238D01*
X107918285Y-136850476D01*
X107823047Y-136898095D01*
X109299238Y-136612380D02*
X108823047Y-136612380D01*
X108775428Y-137088571D01*
X108823047Y-137040952D01*
X108918285Y-136993333D01*
X109156380Y-136993333D01*
X109251619Y-137040952D01*
X109299238Y-137088571D01*
X109346857Y-137183809D01*
X109346857Y-137421904D01*
X109299238Y-137517142D01*
X109251619Y-137564761D01*
X109156380Y-137612380D01*
X108918285Y-137612380D01*
X108823047Y-137564761D01*
X108775428Y-137517142D01*
X59134476Y-69302380D02*
X59134476Y-70016666D01*
X59086857Y-70159523D01*
X58991619Y-70254761D01*
X58848761Y-70302380D01*
X58753523Y-70302380D01*
X60134476Y-70302380D02*
X59563047Y-70302380D01*
X59848761Y-70302380D02*
X59848761Y-69302380D01*
X59753523Y-69445238D01*
X59658285Y-69540476D01*
X59563047Y-69588095D01*
X60467809Y-69302380D02*
X61086857Y-69302380D01*
X60753523Y-69683333D01*
X60896380Y-69683333D01*
X60991619Y-69730952D01*
X61039238Y-69778571D01*
X61086857Y-69873809D01*
X61086857Y-70111904D01*
X61039238Y-70207142D01*
X60991619Y-70254761D01*
X60896380Y-70302380D01*
X60610666Y-70302380D01*
X60515428Y-70254761D01*
X60467809Y-70207142D01*
X66976666Y-156170380D02*
X66976666Y-156884666D01*
X66929047Y-157027523D01*
X66833809Y-157122761D01*
X66690952Y-157170380D01*
X66595714Y-157170380D01*
X67500476Y-157170380D02*
X67690952Y-157170380D01*
X67786190Y-157122761D01*
X67833809Y-157075142D01*
X67929047Y-156932285D01*
X67976666Y-156741809D01*
X67976666Y-156360857D01*
X67929047Y-156265619D01*
X67881428Y-156218000D01*
X67786190Y-156170380D01*
X67595714Y-156170380D01*
X67500476Y-156218000D01*
X67452857Y-156265619D01*
X67405238Y-156360857D01*
X67405238Y-156598952D01*
X67452857Y-156694190D01*
X67500476Y-156741809D01*
X67595714Y-156789428D01*
X67786190Y-156789428D01*
X67881428Y-156741809D01*
X67929047Y-156694190D01*
X67976666Y-156598952D01*
X141311333Y-81986380D02*
X140978000Y-81510190D01*
X140739904Y-81986380D02*
X140739904Y-80986380D01*
X141120857Y-80986380D01*
X141216095Y-81034000D01*
X141263714Y-81081619D01*
X141311333Y-81176857D01*
X141311333Y-81319714D01*
X141263714Y-81414952D01*
X141216095Y-81462571D01*
X141120857Y-81510190D01*
X140739904Y-81510190D01*
X141644666Y-80986380D02*
X142311333Y-80986380D01*
X141882761Y-81986380D01*
X149693333Y-85162380D02*
X149360000Y-84686190D01*
X149121904Y-85162380D02*
X149121904Y-84162380D01*
X149502857Y-84162380D01*
X149598095Y-84210000D01*
X149645714Y-84257619D01*
X149693333Y-84352857D01*
X149693333Y-84495714D01*
X149645714Y-84590952D01*
X149598095Y-84638571D01*
X149502857Y-84686190D01*
X149121904Y-84686190D01*
X150264761Y-84590952D02*
X150169523Y-84543333D01*
X150121904Y-84495714D01*
X150074285Y-84400476D01*
X150074285Y-84352857D01*
X150121904Y-84257619D01*
X150169523Y-84210000D01*
X150264761Y-84162380D01*
X150455238Y-84162380D01*
X150550476Y-84210000D01*
X150598095Y-84257619D01*
X150645714Y-84352857D01*
X150645714Y-84400476D01*
X150598095Y-84495714D01*
X150550476Y-84543333D01*
X150455238Y-84590952D01*
X150264761Y-84590952D01*
X150169523Y-84638571D01*
X150121904Y-84686190D01*
X150074285Y-84781428D01*
X150074285Y-84971904D01*
X150121904Y-85067142D01*
X150169523Y-85114761D01*
X150264761Y-85162380D01*
X150455238Y-85162380D01*
X150550476Y-85114761D01*
X150598095Y-85067142D01*
X150645714Y-84971904D01*
X150645714Y-84781428D01*
X150598095Y-84686190D01*
X150550476Y-84638571D01*
X150455238Y-84590952D01*
X148423333Y-94940380D02*
X148090000Y-94464190D01*
X147851904Y-94940380D02*
X147851904Y-93940380D01*
X148232857Y-93940380D01*
X148328095Y-93988000D01*
X148375714Y-94035619D01*
X148423333Y-94130857D01*
X148423333Y-94273714D01*
X148375714Y-94368952D01*
X148328095Y-94416571D01*
X148232857Y-94464190D01*
X147851904Y-94464190D01*
X148899523Y-94940380D02*
X149090000Y-94940380D01*
X149185238Y-94892761D01*
X149232857Y-94845142D01*
X149328095Y-94702285D01*
X149375714Y-94511809D01*
X149375714Y-94130857D01*
X149328095Y-94035619D01*
X149280476Y-93988000D01*
X149185238Y-93940380D01*
X148994761Y-93940380D01*
X148899523Y-93988000D01*
X148851904Y-94035619D01*
X148804285Y-94130857D01*
X148804285Y-94368952D01*
X148851904Y-94464190D01*
X148899523Y-94511809D01*
X148994761Y-94559428D01*
X149185238Y-94559428D01*
X149280476Y-94511809D01*
X149328095Y-94464190D01*
X149375714Y-94368952D01*
X98833333Y-107132380D02*
X98500000Y-106656190D01*
X98261904Y-107132380D02*
X98261904Y-106132380D01*
X98642857Y-106132380D01*
X98738095Y-106180000D01*
X98785714Y-106227619D01*
X98833333Y-106322857D01*
X98833333Y-106465714D01*
X98785714Y-106560952D01*
X98738095Y-106608571D01*
X98642857Y-106656190D01*
X98261904Y-106656190D01*
X99690476Y-106465714D02*
X99690476Y-107132380D01*
X99452380Y-106084761D02*
X99214285Y-106799047D01*
X99833333Y-106799047D01*
X141089142Y-119070380D02*
X140755809Y-118594190D01*
X140517714Y-119070380D02*
X140517714Y-118070380D01*
X140898666Y-118070380D01*
X140993904Y-118118000D01*
X141041523Y-118165619D01*
X141089142Y-118260857D01*
X141089142Y-118403714D01*
X141041523Y-118498952D01*
X140993904Y-118546571D01*
X140898666Y-118594190D01*
X140517714Y-118594190D01*
X142041523Y-119070380D02*
X141470095Y-119070380D01*
X141755809Y-119070380D02*
X141755809Y-118070380D01*
X141660571Y-118213238D01*
X141565333Y-118308476D01*
X141470095Y-118356095D01*
X142898666Y-118403714D02*
X142898666Y-119070380D01*
X142660571Y-118022761D02*
X142422476Y-118737047D01*
X143041523Y-118737047D01*
X132707142Y-140152380D02*
X132373809Y-139676190D01*
X132135714Y-140152380D02*
X132135714Y-139152380D01*
X132516666Y-139152380D01*
X132611904Y-139200000D01*
X132659523Y-139247619D01*
X132707142Y-139342857D01*
X132707142Y-139485714D01*
X132659523Y-139580952D01*
X132611904Y-139628571D01*
X132516666Y-139676190D01*
X132135714Y-139676190D01*
X133659523Y-140152380D02*
X133088095Y-140152380D01*
X133373809Y-140152380D02*
X133373809Y-139152380D01*
X133278571Y-139295238D01*
X133183333Y-139390476D01*
X133088095Y-139438095D01*
X133992857Y-139152380D02*
X134611904Y-139152380D01*
X134278571Y-139533333D01*
X134421428Y-139533333D01*
X134516666Y-139580952D01*
X134564285Y-139628571D01*
X134611904Y-139723809D01*
X134611904Y-139961904D01*
X134564285Y-140057142D01*
X134516666Y-140104761D01*
X134421428Y-140152380D01*
X134135714Y-140152380D01*
X134040476Y-140104761D01*
X133992857Y-140057142D01*
X147693142Y-151328380D02*
X147359809Y-150852190D01*
X147121714Y-151328380D02*
X147121714Y-150328380D01*
X147502666Y-150328380D01*
X147597904Y-150376000D01*
X147645523Y-150423619D01*
X147693142Y-150518857D01*
X147693142Y-150661714D01*
X147645523Y-150756952D01*
X147597904Y-150804571D01*
X147502666Y-150852190D01*
X147121714Y-150852190D01*
X148645523Y-151328380D02*
X148074095Y-151328380D01*
X148359809Y-151328380D02*
X148359809Y-150328380D01*
X148264571Y-150471238D01*
X148169333Y-150566476D01*
X148074095Y-150614095D01*
X149026476Y-150423619D02*
X149074095Y-150376000D01*
X149169333Y-150328380D01*
X149407428Y-150328380D01*
X149502666Y-150376000D01*
X149550285Y-150423619D01*
X149597904Y-150518857D01*
X149597904Y-150614095D01*
X149550285Y-150756952D01*
X148978857Y-151328380D01*
X149597904Y-151328380D01*
X86733142Y-164790380D02*
X86399809Y-164314190D01*
X86161714Y-164790380D02*
X86161714Y-163790380D01*
X86542666Y-163790380D01*
X86637904Y-163838000D01*
X86685523Y-163885619D01*
X86733142Y-163980857D01*
X86733142Y-164123714D01*
X86685523Y-164218952D01*
X86637904Y-164266571D01*
X86542666Y-164314190D01*
X86161714Y-164314190D01*
X87685523Y-164790380D02*
X87114095Y-164790380D01*
X87399809Y-164790380D02*
X87399809Y-163790380D01*
X87304571Y-163933238D01*
X87209333Y-164028476D01*
X87114095Y-164076095D01*
X88637904Y-164790380D02*
X88066476Y-164790380D01*
X88352190Y-164790380D02*
X88352190Y-163790380D01*
X88256952Y-163933238D01*
X88161714Y-164028476D01*
X88066476Y-164076095D01*
X149217142Y-88972380D02*
X148883809Y-88496190D01*
X148645714Y-88972380D02*
X148645714Y-87972380D01*
X149026666Y-87972380D01*
X149121904Y-88020000D01*
X149169523Y-88067619D01*
X149217142Y-88162857D01*
X149217142Y-88305714D01*
X149169523Y-88400952D01*
X149121904Y-88448571D01*
X149026666Y-88496190D01*
X148645714Y-88496190D01*
X150169523Y-88972380D02*
X149598095Y-88972380D01*
X149883809Y-88972380D02*
X149883809Y-87972380D01*
X149788571Y-88115238D01*
X149693333Y-88210476D01*
X149598095Y-88258095D01*
X150788571Y-87972380D02*
X150883809Y-87972380D01*
X150979047Y-88020000D01*
X151026666Y-88067619D01*
X151074285Y-88162857D01*
X151121904Y-88353333D01*
X151121904Y-88591428D01*
X151074285Y-88781904D01*
X151026666Y-88877142D01*
X150979047Y-88924761D01*
X150883809Y-88972380D01*
X150788571Y-88972380D01*
X150693333Y-88924761D01*
X150645714Y-88877142D01*
X150598095Y-88781904D01*
X150550476Y-88591428D01*
X150550476Y-88353333D01*
X150598095Y-88162857D01*
X150645714Y-88067619D01*
X150693333Y-88020000D01*
X150788571Y-87972380D01*
X134739142Y-136755142D02*
X134691523Y-136802761D01*
X134548666Y-136850380D01*
X134453428Y-136850380D01*
X134310571Y-136802761D01*
X134215333Y-136707523D01*
X134167714Y-136612285D01*
X134120095Y-136421809D01*
X134120095Y-136278952D01*
X134167714Y-136088476D01*
X134215333Y-135993238D01*
X134310571Y-135898000D01*
X134453428Y-135850380D01*
X134548666Y-135850380D01*
X134691523Y-135898000D01*
X134739142Y-135945619D01*
X135691523Y-136850380D02*
X135120095Y-136850380D01*
X135405809Y-136850380D02*
X135405809Y-135850380D01*
X135310571Y-135993238D01*
X135215333Y-136088476D01*
X135120095Y-136136095D01*
X136548666Y-136183714D02*
X136548666Y-136850380D01*
X136310571Y-135802761D02*
X136072476Y-136517047D01*
X136691523Y-136517047D01*
X66667142Y-111609142D02*
X66619523Y-111656761D01*
X66476666Y-111704380D01*
X66381428Y-111704380D01*
X66238571Y-111656761D01*
X66143333Y-111561523D01*
X66095714Y-111466285D01*
X66048095Y-111275809D01*
X66048095Y-111132952D01*
X66095714Y-110942476D01*
X66143333Y-110847238D01*
X66238571Y-110752000D01*
X66381428Y-110704380D01*
X66476666Y-110704380D01*
X66619523Y-110752000D01*
X66667142Y-110799619D01*
X67619523Y-111704380D02*
X67048095Y-111704380D01*
X67333809Y-111704380D02*
X67333809Y-110704380D01*
X67238571Y-110847238D01*
X67143333Y-110942476D01*
X67048095Y-110990095D01*
X68476666Y-110704380D02*
X68286190Y-110704380D01*
X68190952Y-110752000D01*
X68143333Y-110799619D01*
X68048095Y-110942476D01*
X68000476Y-111132952D01*
X68000476Y-111513904D01*
X68048095Y-111609142D01*
X68095714Y-111656761D01*
X68190952Y-111704380D01*
X68381428Y-111704380D01*
X68476666Y-111656761D01*
X68524285Y-111609142D01*
X68571904Y-111513904D01*
X68571904Y-111275809D01*
X68524285Y-111180571D01*
X68476666Y-111132952D01*
X68381428Y-111085333D01*
X68190952Y-111085333D01*
X68095714Y-111132952D01*
X68048095Y-111180571D01*
X68000476Y-111275809D01*
X69461142Y-121769142D02*
X69413523Y-121816761D01*
X69270666Y-121864380D01*
X69175428Y-121864380D01*
X69032571Y-121816761D01*
X68937333Y-121721523D01*
X68889714Y-121626285D01*
X68842095Y-121435809D01*
X68842095Y-121292952D01*
X68889714Y-121102476D01*
X68937333Y-121007238D01*
X69032571Y-120912000D01*
X69175428Y-120864380D01*
X69270666Y-120864380D01*
X69413523Y-120912000D01*
X69461142Y-120959619D01*
X70413523Y-121864380D02*
X69842095Y-121864380D01*
X70127809Y-121864380D02*
X70127809Y-120864380D01*
X70032571Y-121007238D01*
X69937333Y-121102476D01*
X69842095Y-121150095D01*
X70889714Y-121864380D02*
X71080190Y-121864380D01*
X71175428Y-121816761D01*
X71223047Y-121769142D01*
X71318285Y-121626285D01*
X71365904Y-121435809D01*
X71365904Y-121054857D01*
X71318285Y-120959619D01*
X71270666Y-120912000D01*
X71175428Y-120864380D01*
X70984952Y-120864380D01*
X70889714Y-120912000D01*
X70842095Y-120959619D01*
X70794476Y-121054857D01*
X70794476Y-121292952D01*
X70842095Y-121388190D01*
X70889714Y-121435809D01*
X70984952Y-121483428D01*
X71175428Y-121483428D01*
X71270666Y-121435809D01*
X71318285Y-121388190D01*
X71365904Y-121292952D01*
X88892142Y-91797142D02*
X88844523Y-91844761D01*
X88701666Y-91892380D01*
X88606428Y-91892380D01*
X88463571Y-91844761D01*
X88368333Y-91749523D01*
X88320714Y-91654285D01*
X88273095Y-91463809D01*
X88273095Y-91320952D01*
X88320714Y-91130476D01*
X88368333Y-91035238D01*
X88463571Y-90940000D01*
X88606428Y-90892380D01*
X88701666Y-90892380D01*
X88844523Y-90940000D01*
X88892142Y-90987619D01*
X89844523Y-91892380D02*
X89273095Y-91892380D01*
X89558809Y-91892380D02*
X89558809Y-90892380D01*
X89463571Y-91035238D01*
X89368333Y-91130476D01*
X89273095Y-91178095D01*
X90463571Y-90892380D02*
X90558809Y-90892380D01*
X90654047Y-90940000D01*
X90701666Y-90987619D01*
X90749285Y-91082857D01*
X90796904Y-91273333D01*
X90796904Y-91511428D01*
X90749285Y-91701904D01*
X90701666Y-91797142D01*
X90654047Y-91844761D01*
X90558809Y-91892380D01*
X90463571Y-91892380D01*
X90368333Y-91844761D01*
X90320714Y-91797142D01*
X90273095Y-91701904D01*
X90225476Y-91511428D01*
X90225476Y-91273333D01*
X90273095Y-91082857D01*
X90320714Y-90987619D01*
X90368333Y-90940000D01*
X90463571Y-90892380D01*
X90257333Y-164695142D02*
X90209714Y-164742761D01*
X90066857Y-164790380D01*
X89971619Y-164790380D01*
X89828761Y-164742761D01*
X89733523Y-164647523D01*
X89685904Y-164552285D01*
X89638285Y-164361809D01*
X89638285Y-164218952D01*
X89685904Y-164028476D01*
X89733523Y-163933238D01*
X89828761Y-163838000D01*
X89971619Y-163790380D01*
X90066857Y-163790380D01*
X90209714Y-163838000D01*
X90257333Y-163885619D01*
X91209714Y-164790380D02*
X90638285Y-164790380D01*
X90924000Y-164790380D02*
X90924000Y-163790380D01*
X90828761Y-163933238D01*
X90733523Y-164028476D01*
X90638285Y-164076095D01*
X66921142Y-80113142D02*
X66873523Y-80160761D01*
X66730666Y-80208380D01*
X66635428Y-80208380D01*
X66492571Y-80160761D01*
X66397333Y-80065523D01*
X66349714Y-79970285D01*
X66302095Y-79779809D01*
X66302095Y-79636952D01*
X66349714Y-79446476D01*
X66397333Y-79351238D01*
X66492571Y-79256000D01*
X66635428Y-79208380D01*
X66730666Y-79208380D01*
X66873523Y-79256000D01*
X66921142Y-79303619D01*
X67302095Y-79303619D02*
X67349714Y-79256000D01*
X67444952Y-79208380D01*
X67683047Y-79208380D01*
X67778285Y-79256000D01*
X67825904Y-79303619D01*
X67873523Y-79398857D01*
X67873523Y-79494095D01*
X67825904Y-79636952D01*
X67254476Y-80208380D01*
X67873523Y-80208380D01*
X68825904Y-80208380D02*
X68254476Y-80208380D01*
X68540190Y-80208380D02*
X68540190Y-79208380D01*
X68444952Y-79351238D01*
X68349714Y-79446476D01*
X68254476Y-79494095D01*
X111768833Y-84908380D02*
X111435500Y-84432190D01*
X111197404Y-84908380D02*
X111197404Y-83908380D01*
X111578357Y-83908380D01*
X111673595Y-83956000D01*
X111721214Y-84003619D01*
X111768833Y-84098857D01*
X111768833Y-84241714D01*
X111721214Y-84336952D01*
X111673595Y-84384571D01*
X111578357Y-84432190D01*
X111197404Y-84432190D01*
X112721214Y-84908380D02*
X112149785Y-84908380D01*
X112435500Y-84908380D02*
X112435500Y-83908380D01*
X112340261Y-84051238D01*
X112245023Y-84146476D01*
X112149785Y-84194095D01*
X67651333Y-115260380D02*
X67318000Y-114784190D01*
X67079904Y-115260380D02*
X67079904Y-114260380D01*
X67460857Y-114260380D01*
X67556095Y-114308000D01*
X67603714Y-114355619D01*
X67651333Y-114450857D01*
X67651333Y-114593714D01*
X67603714Y-114688952D01*
X67556095Y-114736571D01*
X67460857Y-114784190D01*
X67079904Y-114784190D01*
X68032285Y-114355619D02*
X68079904Y-114308000D01*
X68175142Y-114260380D01*
X68413238Y-114260380D01*
X68508476Y-114308000D01*
X68556095Y-114355619D01*
X68603714Y-114450857D01*
X68603714Y-114546095D01*
X68556095Y-114688952D01*
X67984666Y-115260380D01*
X68603714Y-115260380D01*
X70985142Y-119483142D02*
X70937523Y-119530761D01*
X70794666Y-119578380D01*
X70699428Y-119578380D01*
X70556571Y-119530761D01*
X70461333Y-119435523D01*
X70413714Y-119340285D01*
X70366095Y-119149809D01*
X70366095Y-119006952D01*
X70413714Y-118816476D01*
X70461333Y-118721238D01*
X70556571Y-118626000D01*
X70699428Y-118578380D01*
X70794666Y-118578380D01*
X70937523Y-118626000D01*
X70985142Y-118673619D01*
X71937523Y-119578380D02*
X71366095Y-119578380D01*
X71651809Y-119578380D02*
X71651809Y-118578380D01*
X71556571Y-118721238D01*
X71461333Y-118816476D01*
X71366095Y-118864095D01*
X72270857Y-118578380D02*
X72937523Y-118578380D01*
X72508952Y-119578380D01*
X98726666Y-163536380D02*
X98726666Y-164250666D01*
X98679047Y-164393523D01*
X98583809Y-164488761D01*
X98440952Y-164536380D01*
X98345714Y-164536380D01*
X99631428Y-163536380D02*
X99440952Y-163536380D01*
X99345714Y-163584000D01*
X99298095Y-163631619D01*
X99202857Y-163774476D01*
X99155238Y-163964952D01*
X99155238Y-164345904D01*
X99202857Y-164441142D01*
X99250476Y-164488761D01*
X99345714Y-164536380D01*
X99536190Y-164536380D01*
X99631428Y-164488761D01*
X99679047Y-164441142D01*
X99726666Y-164345904D01*
X99726666Y-164107809D01*
X99679047Y-164012571D01*
X99631428Y-163964952D01*
X99536190Y-163917333D01*
X99345714Y-163917333D01*
X99250476Y-163964952D01*
X99202857Y-164012571D01*
X99155238Y-164107809D01*
X80129142Y-78430380D02*
X79795809Y-77954190D01*
X79557714Y-78430380D02*
X79557714Y-77430380D01*
X79938666Y-77430380D01*
X80033904Y-77478000D01*
X80081523Y-77525619D01*
X80129142Y-77620857D01*
X80129142Y-77763714D01*
X80081523Y-77858952D01*
X80033904Y-77906571D01*
X79938666Y-77954190D01*
X79557714Y-77954190D01*
X80510095Y-77525619D02*
X80557714Y-77478000D01*
X80652952Y-77430380D01*
X80891047Y-77430380D01*
X80986285Y-77478000D01*
X81033904Y-77525619D01*
X81081523Y-77620857D01*
X81081523Y-77716095D01*
X81033904Y-77858952D01*
X80462476Y-78430380D01*
X81081523Y-78430380D01*
X81700571Y-77430380D02*
X81795809Y-77430380D01*
X81891047Y-77478000D01*
X81938666Y-77525619D01*
X81986285Y-77620857D01*
X82033904Y-77811333D01*
X82033904Y-78049428D01*
X81986285Y-78239904D01*
X81938666Y-78335142D01*
X81891047Y-78382761D01*
X81795809Y-78430380D01*
X81700571Y-78430380D01*
X81605333Y-78382761D01*
X81557714Y-78335142D01*
X81510095Y-78239904D01*
X81462476Y-78049428D01*
X81462476Y-77811333D01*
X81510095Y-77620857D01*
X81557714Y-77525619D01*
X81605333Y-77478000D01*
X81700571Y-77430380D01*
X76065142Y-78430380D02*
X75731809Y-77954190D01*
X75493714Y-78430380D02*
X75493714Y-77430380D01*
X75874666Y-77430380D01*
X75969904Y-77478000D01*
X76017523Y-77525619D01*
X76065142Y-77620857D01*
X76065142Y-77763714D01*
X76017523Y-77858952D01*
X75969904Y-77906571D01*
X75874666Y-77954190D01*
X75493714Y-77954190D01*
X77017523Y-78430380D02*
X76446095Y-78430380D01*
X76731809Y-78430380D02*
X76731809Y-77430380D01*
X76636571Y-77573238D01*
X76541333Y-77668476D01*
X76446095Y-77716095D01*
X77493714Y-78430380D02*
X77684190Y-78430380D01*
X77779428Y-78382761D01*
X77827047Y-78335142D01*
X77922285Y-78192285D01*
X77969904Y-78001809D01*
X77969904Y-77620857D01*
X77922285Y-77525619D01*
X77874666Y-77478000D01*
X77779428Y-77430380D01*
X77588952Y-77430380D01*
X77493714Y-77478000D01*
X77446095Y-77525619D01*
X77398476Y-77620857D01*
X77398476Y-77858952D01*
X77446095Y-77954190D01*
X77493714Y-78001809D01*
X77588952Y-78049428D01*
X77779428Y-78049428D01*
X77874666Y-78001809D01*
X77922285Y-77954190D01*
X77969904Y-77858952D01*
X74492380Y-75572857D02*
X74016190Y-75906190D01*
X74492380Y-76144285D02*
X73492380Y-76144285D01*
X73492380Y-75763333D01*
X73540000Y-75668095D01*
X73587619Y-75620476D01*
X73682857Y-75572857D01*
X73825714Y-75572857D01*
X73920952Y-75620476D01*
X73968571Y-75668095D01*
X74016190Y-75763333D01*
X74016190Y-76144285D01*
X74492380Y-74620476D02*
X74492380Y-75191904D01*
X74492380Y-74906190D02*
X73492380Y-74906190D01*
X73635238Y-75001428D01*
X73730476Y-75096666D01*
X73778095Y-75191904D01*
X73920952Y-74049047D02*
X73873333Y-74144285D01*
X73825714Y-74191904D01*
X73730476Y-74239523D01*
X73682857Y-74239523D01*
X73587619Y-74191904D01*
X73540000Y-74144285D01*
X73492380Y-74049047D01*
X73492380Y-73858571D01*
X73540000Y-73763333D01*
X73587619Y-73715714D01*
X73682857Y-73668095D01*
X73730476Y-73668095D01*
X73825714Y-73715714D01*
X73873333Y-73763333D01*
X73920952Y-73858571D01*
X73920952Y-74049047D01*
X73968571Y-74144285D01*
X74016190Y-74191904D01*
X74111428Y-74239523D01*
X74301904Y-74239523D01*
X74397142Y-74191904D01*
X74444761Y-74144285D01*
X74492380Y-74049047D01*
X74492380Y-73858571D01*
X74444761Y-73763333D01*
X74397142Y-73715714D01*
X74301904Y-73668095D01*
X74111428Y-73668095D01*
X74016190Y-73715714D01*
X73968571Y-73763333D01*
X73920952Y-73858571D01*
X141597142Y-125674380D02*
X141263809Y-125198190D01*
X141025714Y-125674380D02*
X141025714Y-124674380D01*
X141406666Y-124674380D01*
X141501904Y-124722000D01*
X141549523Y-124769619D01*
X141597142Y-124864857D01*
X141597142Y-125007714D01*
X141549523Y-125102952D01*
X141501904Y-125150571D01*
X141406666Y-125198190D01*
X141025714Y-125198190D01*
X142549523Y-125674380D02*
X141978095Y-125674380D01*
X142263809Y-125674380D02*
X142263809Y-124674380D01*
X142168571Y-124817238D01*
X142073333Y-124912476D01*
X141978095Y-124960095D01*
X142882857Y-124674380D02*
X143549523Y-124674380D01*
X143120952Y-125674380D01*
X83939142Y-78430380D02*
X83605809Y-77954190D01*
X83367714Y-78430380D02*
X83367714Y-77430380D01*
X83748666Y-77430380D01*
X83843904Y-77478000D01*
X83891523Y-77525619D01*
X83939142Y-77620857D01*
X83939142Y-77763714D01*
X83891523Y-77858952D01*
X83843904Y-77906571D01*
X83748666Y-77954190D01*
X83367714Y-77954190D01*
X84891523Y-78430380D02*
X84320095Y-78430380D01*
X84605809Y-78430380D02*
X84605809Y-77430380D01*
X84510571Y-77573238D01*
X84415333Y-77668476D01*
X84320095Y-77716095D01*
X85796285Y-77430380D02*
X85320095Y-77430380D01*
X85272476Y-77906571D01*
X85320095Y-77858952D01*
X85415333Y-77811333D01*
X85653428Y-77811333D01*
X85748666Y-77858952D01*
X85796285Y-77906571D01*
X85843904Y-78001809D01*
X85843904Y-78239904D01*
X85796285Y-78335142D01*
X85748666Y-78382761D01*
X85653428Y-78430380D01*
X85415333Y-78430380D01*
X85320095Y-78382761D01*
X85272476Y-78335142D01*
X70682380Y-75572857D02*
X70206190Y-75906190D01*
X70682380Y-76144285D02*
X69682380Y-76144285D01*
X69682380Y-75763333D01*
X69730000Y-75668095D01*
X69777619Y-75620476D01*
X69872857Y-75572857D01*
X70015714Y-75572857D01*
X70110952Y-75620476D01*
X70158571Y-75668095D01*
X70206190Y-75763333D01*
X70206190Y-76144285D01*
X70682380Y-74620476D02*
X70682380Y-75191904D01*
X70682380Y-74906190D02*
X69682380Y-74906190D01*
X69825238Y-75001428D01*
X69920476Y-75096666D01*
X69968095Y-75191904D01*
X69682380Y-73763333D02*
X69682380Y-73953809D01*
X69730000Y-74049047D01*
X69777619Y-74096666D01*
X69920476Y-74191904D01*
X70110952Y-74239523D01*
X70491904Y-74239523D01*
X70587142Y-74191904D01*
X70634761Y-74144285D01*
X70682380Y-74049047D01*
X70682380Y-73858571D01*
X70634761Y-73763333D01*
X70587142Y-73715714D01*
X70491904Y-73668095D01*
X70253809Y-73668095D01*
X70158571Y-73715714D01*
X70110952Y-73763333D01*
X70063333Y-73858571D01*
X70063333Y-74049047D01*
X70110952Y-74144285D01*
X70158571Y-74191904D01*
X70253809Y-74239523D01*
X68072095Y-147534380D02*
X68072095Y-148343904D01*
X68119714Y-148439142D01*
X68167333Y-148486761D01*
X68262571Y-148534380D01*
X68453047Y-148534380D01*
X68548285Y-148486761D01*
X68595904Y-148439142D01*
X68643523Y-148343904D01*
X68643523Y-147534380D01*
X69548285Y-147534380D02*
X69357809Y-147534380D01*
X69262571Y-147582000D01*
X69214952Y-147629619D01*
X69119714Y-147772476D01*
X69072095Y-147962952D01*
X69072095Y-148343904D01*
X69119714Y-148439142D01*
X69167333Y-148486761D01*
X69262571Y-148534380D01*
X69453047Y-148534380D01*
X69548285Y-148486761D01*
X69595904Y-148439142D01*
X69643523Y-148343904D01*
X69643523Y-148105809D01*
X69595904Y-148010571D01*
X69548285Y-147962952D01*
X69453047Y-147915333D01*
X69262571Y-147915333D01*
X69167333Y-147962952D01*
X69119714Y-148010571D01*
X69072095Y-148105809D01*
X85688980Y-150552390D02*
X85688980Y-149885723D01*
X86688980Y-150552390D01*
X86688980Y-149885723D01*
X86688980Y-149504771D02*
X85688980Y-149504771D01*
X85736600Y-148504771D02*
X85688980Y-148600009D01*
X85688980Y-148742866D01*
X85736600Y-148885723D01*
X85831838Y-148980961D01*
X85927076Y-149028580D01*
X86117552Y-149076200D01*
X86260409Y-149076200D01*
X86450885Y-149028580D01*
X86546123Y-148980961D01*
X86641361Y-148885723D01*
X86688980Y-148742866D01*
X86688980Y-148647628D01*
X86641361Y-148504771D01*
X86593742Y-148457152D01*
X86260409Y-148457152D01*
X86260409Y-148647628D01*
X86165171Y-147695247D02*
X86212790Y-147552390D01*
X86260409Y-147504771D01*
X86355647Y-147457152D01*
X86498504Y-147457152D01*
X86593742Y-147504771D01*
X86641361Y-147552390D01*
X86688980Y-147647628D01*
X86688980Y-148028580D01*
X85688980Y-148028580D01*
X85688980Y-147695247D01*
X85736600Y-147600009D01*
X85784219Y-147552390D01*
X85879457Y-147504771D01*
X85974695Y-147504771D01*
X86069933Y-147552390D01*
X86117552Y-147600009D01*
X86165171Y-147695247D01*
X86165171Y-148028580D01*
X86165171Y-147028580D02*
X86165171Y-146695247D01*
X86688980Y-146552390D02*
X86688980Y-147028580D01*
X85688980Y-147028580D01*
X85688980Y-146552390D01*
X86165171Y-146123819D02*
X86165171Y-145790485D01*
X86688980Y-145647628D02*
X86688980Y-146123819D01*
X85688980Y-146123819D01*
X85688980Y-145647628D01*
X80637142Y-123293142D02*
X80589523Y-123340761D01*
X80446666Y-123388380D01*
X80351428Y-123388380D01*
X80208571Y-123340761D01*
X80113333Y-123245523D01*
X80065714Y-123150285D01*
X80018095Y-122959809D01*
X80018095Y-122816952D01*
X80065714Y-122626476D01*
X80113333Y-122531238D01*
X80208571Y-122436000D01*
X80351428Y-122388380D01*
X80446666Y-122388380D01*
X80589523Y-122436000D01*
X80637142Y-122483619D01*
X81589523Y-123388380D02*
X81018095Y-123388380D01*
X81303809Y-123388380D02*
X81303809Y-122388380D01*
X81208571Y-122531238D01*
X81113333Y-122626476D01*
X81018095Y-122674095D01*
X82160952Y-122816952D02*
X82065714Y-122769333D01*
X82018095Y-122721714D01*
X81970476Y-122626476D01*
X81970476Y-122578857D01*
X82018095Y-122483619D01*
X82065714Y-122436000D01*
X82160952Y-122388380D01*
X82351428Y-122388380D01*
X82446666Y-122436000D01*
X82494285Y-122483619D01*
X82541904Y-122578857D01*
X82541904Y-122626476D01*
X82494285Y-122721714D01*
X82446666Y-122769333D01*
X82351428Y-122816952D01*
X82160952Y-122816952D01*
X82065714Y-122864571D01*
X82018095Y-122912190D01*
X81970476Y-123007428D01*
X81970476Y-123197904D01*
X82018095Y-123293142D01*
X82065714Y-123340761D01*
X82160952Y-123388380D01*
X82351428Y-123388380D01*
X82446666Y-123340761D01*
X82494285Y-123293142D01*
X82541904Y-123197904D01*
X82541904Y-123007428D01*
X82494285Y-122912190D01*
X82446666Y-122864571D01*
X82351428Y-122816952D01*
X122293142Y-67667142D02*
X122245523Y-67714761D01*
X122102666Y-67762380D01*
X122007428Y-67762380D01*
X121864571Y-67714761D01*
X121769333Y-67619523D01*
X121721714Y-67524285D01*
X121674095Y-67333809D01*
X121674095Y-67190952D01*
X121721714Y-67000476D01*
X121769333Y-66905238D01*
X121864571Y-66810000D01*
X122007428Y-66762380D01*
X122102666Y-66762380D01*
X122245523Y-66810000D01*
X122293142Y-66857619D01*
X122674095Y-66857619D02*
X122721714Y-66810000D01*
X122816952Y-66762380D01*
X123055047Y-66762380D01*
X123150285Y-66810000D01*
X123197904Y-66857619D01*
X123245523Y-66952857D01*
X123245523Y-67048095D01*
X123197904Y-67190952D01*
X122626476Y-67762380D01*
X123245523Y-67762380D01*
X123626476Y-66857619D02*
X123674095Y-66810000D01*
X123769333Y-66762380D01*
X124007428Y-66762380D01*
X124102666Y-66810000D01*
X124150285Y-66857619D01*
X124197904Y-66952857D01*
X124197904Y-67048095D01*
X124150285Y-67190952D01*
X123578857Y-67762380D01*
X124197904Y-67762380D01*
X122547142Y-98147142D02*
X122499523Y-98194761D01*
X122356666Y-98242380D01*
X122261428Y-98242380D01*
X122118571Y-98194761D01*
X122023333Y-98099523D01*
X121975714Y-98004285D01*
X121928095Y-97813809D01*
X121928095Y-97670952D01*
X121975714Y-97480476D01*
X122023333Y-97385238D01*
X122118571Y-97290000D01*
X122261428Y-97242380D01*
X122356666Y-97242380D01*
X122499523Y-97290000D01*
X122547142Y-97337619D01*
X122928095Y-97337619D02*
X122975714Y-97290000D01*
X123070952Y-97242380D01*
X123309047Y-97242380D01*
X123404285Y-97290000D01*
X123451904Y-97337619D01*
X123499523Y-97432857D01*
X123499523Y-97528095D01*
X123451904Y-97670952D01*
X122880476Y-98242380D01*
X123499523Y-98242380D01*
X124356666Y-97242380D02*
X124166190Y-97242380D01*
X124070952Y-97290000D01*
X124023333Y-97337619D01*
X123928095Y-97480476D01*
X123880476Y-97670952D01*
X123880476Y-98051904D01*
X123928095Y-98147142D01*
X123975714Y-98194761D01*
X124070952Y-98242380D01*
X124261428Y-98242380D01*
X124356666Y-98194761D01*
X124404285Y-98147142D01*
X124451904Y-98051904D01*
X124451904Y-97813809D01*
X124404285Y-97718571D01*
X124356666Y-97670952D01*
X124261428Y-97623333D01*
X124070952Y-97623333D01*
X123975714Y-97670952D01*
X123928095Y-97718571D01*
X123880476Y-97813809D01*
X84074095Y-119594380D02*
X84074095Y-120403904D01*
X84121714Y-120499142D01*
X84169333Y-120546761D01*
X84264571Y-120594380D01*
X84455047Y-120594380D01*
X84550285Y-120546761D01*
X84597904Y-120499142D01*
X84645523Y-120403904D01*
X84645523Y-119594380D01*
X85074095Y-119689619D02*
X85121714Y-119642000D01*
X85216952Y-119594380D01*
X85455047Y-119594380D01*
X85550285Y-119642000D01*
X85597904Y-119689619D01*
X85645523Y-119784857D01*
X85645523Y-119880095D01*
X85597904Y-120022952D01*
X85026476Y-120594380D01*
X85645523Y-120594380D01*
X91095580Y-126376914D02*
X92095580Y-126138819D01*
X91381295Y-125948342D01*
X92095580Y-125757866D01*
X91095580Y-125519771D01*
X92095580Y-125138819D02*
X91428914Y-125138819D01*
X91095580Y-125138819D02*
X91143200Y-125186438D01*
X91190819Y-125138819D01*
X91143200Y-125091200D01*
X91095580Y-125138819D01*
X91190819Y-125138819D01*
X91571771Y-124329295D02*
X91571771Y-124662628D01*
X92095580Y-124662628D02*
X91095580Y-124662628D01*
X91095580Y-124186438D01*
X92095580Y-123805485D02*
X91428914Y-123805485D01*
X91095580Y-123805485D02*
X91143200Y-123853104D01*
X91190819Y-123805485D01*
X91143200Y-123757866D01*
X91095580Y-123805485D01*
X91190819Y-123805485D01*
X91714628Y-122567390D02*
X91714628Y-121805485D01*
X91571771Y-120234057D02*
X91619390Y-120091200D01*
X91667009Y-120043580D01*
X91762247Y-119995961D01*
X91905104Y-119995961D01*
X92000342Y-120043580D01*
X92047961Y-120091200D01*
X92095580Y-120186438D01*
X92095580Y-120567390D01*
X91095580Y-120567390D01*
X91095580Y-120234057D01*
X91143200Y-120138819D01*
X91190819Y-120091200D01*
X91286057Y-120043580D01*
X91381295Y-120043580D01*
X91476533Y-120091200D01*
X91524152Y-120138819D01*
X91571771Y-120234057D01*
X91571771Y-120567390D01*
X92095580Y-119424533D02*
X92047961Y-119519771D01*
X91952723Y-119567390D01*
X91095580Y-119567390D01*
X91428914Y-118615009D02*
X92095580Y-118615009D01*
X91428914Y-119043580D02*
X91952723Y-119043580D01*
X92047961Y-118995961D01*
X92095580Y-118900723D01*
X92095580Y-118757866D01*
X92047961Y-118662628D01*
X92000342Y-118615009D01*
X92047961Y-117757866D02*
X92095580Y-117853104D01*
X92095580Y-118043580D01*
X92047961Y-118138819D01*
X91952723Y-118186438D01*
X91571771Y-118186438D01*
X91476533Y-118138819D01*
X91428914Y-118043580D01*
X91428914Y-117853104D01*
X91476533Y-117757866D01*
X91571771Y-117710247D01*
X91667009Y-117710247D01*
X91762247Y-118186438D01*
X91428914Y-117424533D02*
X91428914Y-117043580D01*
X91095580Y-117281676D02*
X91952723Y-117281676D01*
X92047961Y-117234057D01*
X92095580Y-117138819D01*
X92095580Y-117043580D01*
X92095580Y-116567390D02*
X92047961Y-116662628D01*
X92000342Y-116710247D01*
X91905104Y-116757866D01*
X91619390Y-116757866D01*
X91524152Y-116710247D01*
X91476533Y-116662628D01*
X91428914Y-116567390D01*
X91428914Y-116424533D01*
X91476533Y-116329295D01*
X91524152Y-116281676D01*
X91619390Y-116234057D01*
X91905104Y-116234057D01*
X92000342Y-116281676D01*
X92047961Y-116329295D01*
X92095580Y-116424533D01*
X92095580Y-116567390D01*
X92095580Y-115662628D02*
X92047961Y-115757866D01*
X92000342Y-115805485D01*
X91905104Y-115853104D01*
X91619390Y-115853104D01*
X91524152Y-115805485D01*
X91476533Y-115757866D01*
X91428914Y-115662628D01*
X91428914Y-115519771D01*
X91476533Y-115424533D01*
X91524152Y-115376914D01*
X91619390Y-115329295D01*
X91905104Y-115329295D01*
X92000342Y-115376914D01*
X92047961Y-115424533D01*
X92095580Y-115519771D01*
X92095580Y-115662628D01*
X91428914Y-115043580D02*
X91428914Y-114662628D01*
X91095580Y-114900723D02*
X91952723Y-114900723D01*
X92047961Y-114853104D01*
X92095580Y-114757866D01*
X92095580Y-114662628D01*
X92095580Y-114329295D02*
X91095580Y-114329295D01*
X92095580Y-113900723D02*
X91571771Y-113900723D01*
X91476533Y-113948342D01*
X91428914Y-114043580D01*
X91428914Y-114186438D01*
X91476533Y-114281676D01*
X91524152Y-114329295D01*
X110521904Y-101814380D02*
X110521904Y-102623904D01*
X110569523Y-102719142D01*
X110617142Y-102766761D01*
X110712380Y-102814380D01*
X110902857Y-102814380D01*
X110998095Y-102766761D01*
X111045714Y-102719142D01*
X111093333Y-102623904D01*
X111093333Y-101814380D01*
X112093333Y-102814380D02*
X111521904Y-102814380D01*
X111807619Y-102814380D02*
X111807619Y-101814380D01*
X111712380Y-101957238D01*
X111617142Y-102052476D01*
X111521904Y-102100095D01*
X113045714Y-102814380D02*
X112474285Y-102814380D01*
X112760000Y-102814380D02*
X112760000Y-101814380D01*
X112664761Y-101957238D01*
X112569523Y-102052476D01*
X112474285Y-102100095D01*
X100950780Y-104432857D02*
X100950780Y-103813809D01*
X101331733Y-104147142D01*
X101331733Y-104004285D01*
X101379352Y-103909047D01*
X101426971Y-103861428D01*
X101522209Y-103813809D01*
X101760304Y-103813809D01*
X101855542Y-103861428D01*
X101903161Y-103909047D01*
X101950780Y-104004285D01*
X101950780Y-104290000D01*
X101903161Y-104385238D01*
X101855542Y-104432857D01*
X101950780Y-102861428D02*
X101950780Y-103432857D01*
X101950780Y-103147142D02*
X100950780Y-103147142D01*
X101093638Y-103242380D01*
X101188876Y-103337619D01*
X101236495Y-103432857D01*
X101950780Y-101909047D02*
X101950780Y-102480476D01*
X101950780Y-102194761D02*
X100950780Y-102194761D01*
X101093638Y-102290000D01*
X101188876Y-102385238D01*
X101236495Y-102480476D01*
X100950780Y-101004285D02*
X100950780Y-101480476D01*
X101426971Y-101528095D01*
X101379352Y-101480476D01*
X101331733Y-101385238D01*
X101331733Y-101147142D01*
X101379352Y-101051904D01*
X101426971Y-101004285D01*
X101522209Y-100956666D01*
X101760304Y-100956666D01*
X101855542Y-101004285D01*
X101903161Y-101051904D01*
X101950780Y-101147142D01*
X101950780Y-101385238D01*
X101903161Y-101480476D01*
X101855542Y-101528095D01*
X101950780Y-99766190D02*
X100950780Y-99766190D01*
X100950780Y-99385238D01*
X100998400Y-99290000D01*
X101046019Y-99242380D01*
X101141257Y-99194761D01*
X101284114Y-99194761D01*
X101379352Y-99242380D01*
X101426971Y-99290000D01*
X101474590Y-99385238D01*
X101474590Y-99766190D01*
X101950780Y-98766190D02*
X101284114Y-98766190D01*
X101474590Y-98766190D02*
X101379352Y-98718571D01*
X101331733Y-98670952D01*
X101284114Y-98575714D01*
X101284114Y-98480476D01*
X101903161Y-97766190D02*
X101950780Y-97861428D01*
X101950780Y-98051904D01*
X101903161Y-98147142D01*
X101807923Y-98194761D01*
X101426971Y-98194761D01*
X101331733Y-98147142D01*
X101284114Y-98051904D01*
X101284114Y-97861428D01*
X101331733Y-97766190D01*
X101426971Y-97718571D01*
X101522209Y-97718571D01*
X101617447Y-98194761D01*
X101903161Y-97337619D02*
X101950780Y-97242380D01*
X101950780Y-97051904D01*
X101903161Y-96956666D01*
X101807923Y-96909047D01*
X101760304Y-96909047D01*
X101665066Y-96956666D01*
X101617447Y-97051904D01*
X101617447Y-97194761D01*
X101569828Y-97290000D01*
X101474590Y-97337619D01*
X101426971Y-97337619D01*
X101331733Y-97290000D01*
X101284114Y-97194761D01*
X101284114Y-97051904D01*
X101331733Y-96956666D01*
X101903161Y-96528095D02*
X101950780Y-96432857D01*
X101950780Y-96242380D01*
X101903161Y-96147142D01*
X101807923Y-96099523D01*
X101760304Y-96099523D01*
X101665066Y-96147142D01*
X101617447Y-96242380D01*
X101617447Y-96385238D01*
X101569828Y-96480476D01*
X101474590Y-96528095D01*
X101426971Y-96528095D01*
X101331733Y-96480476D01*
X101284114Y-96385238D01*
X101284114Y-96242380D01*
X101331733Y-96147142D01*
X100903161Y-94956666D02*
X102188876Y-95813809D01*
X100950780Y-94766190D02*
X100950780Y-94194761D01*
X101950780Y-94480476D02*
X100950780Y-94480476D01*
X101903161Y-93480476D02*
X101950780Y-93575714D01*
X101950780Y-93766190D01*
X101903161Y-93861428D01*
X101807923Y-93909047D01*
X101426971Y-93909047D01*
X101331733Y-93861428D01*
X101284114Y-93766190D01*
X101284114Y-93575714D01*
X101331733Y-93480476D01*
X101426971Y-93432857D01*
X101522209Y-93432857D01*
X101617447Y-93909047D01*
X101950780Y-93004285D02*
X101284114Y-93004285D01*
X101379352Y-93004285D02*
X101331733Y-92956666D01*
X101284114Y-92861428D01*
X101284114Y-92718571D01*
X101331733Y-92623333D01*
X101426971Y-92575714D01*
X101950780Y-92575714D01*
X101426971Y-92575714D02*
X101331733Y-92528095D01*
X101284114Y-92432857D01*
X101284114Y-92290000D01*
X101331733Y-92194761D01*
X101426971Y-92147142D01*
X101950780Y-92147142D01*
X101284114Y-91670952D02*
X102284114Y-91670952D01*
X101331733Y-91670952D02*
X101284114Y-91575714D01*
X101284114Y-91385238D01*
X101331733Y-91290000D01*
X101379352Y-91242380D01*
X101474590Y-91194761D01*
X101760304Y-91194761D01*
X101855542Y-91242380D01*
X101903161Y-91290000D01*
X101950780Y-91385238D01*
X101950780Y-91575714D01*
X101903161Y-91670952D01*
X107561142Y-111450380D02*
X107227809Y-110974190D01*
X106989714Y-111450380D02*
X106989714Y-110450380D01*
X107370666Y-110450380D01*
X107465904Y-110498000D01*
X107513523Y-110545619D01*
X107561142Y-110640857D01*
X107561142Y-110783714D01*
X107513523Y-110878952D01*
X107465904Y-110926571D01*
X107370666Y-110974190D01*
X106989714Y-110974190D01*
X107942095Y-110545619D02*
X107989714Y-110498000D01*
X108084952Y-110450380D01*
X108323047Y-110450380D01*
X108418285Y-110498000D01*
X108465904Y-110545619D01*
X108513523Y-110640857D01*
X108513523Y-110736095D01*
X108465904Y-110878952D01*
X107894476Y-111450380D01*
X108513523Y-111450380D01*
X109465904Y-111450380D02*
X108894476Y-111450380D01*
X109180190Y-111450380D02*
X109180190Y-110450380D01*
X109084952Y-110593238D01*
X108989714Y-110688476D01*
X108894476Y-110736095D01*
X102481142Y-147931142D02*
X102433523Y-147978761D01*
X102290666Y-148026380D01*
X102195428Y-148026380D01*
X102052571Y-147978761D01*
X101957333Y-147883523D01*
X101909714Y-147788285D01*
X101862095Y-147597809D01*
X101862095Y-147454952D01*
X101909714Y-147264476D01*
X101957333Y-147169238D01*
X102052571Y-147074000D01*
X102195428Y-147026380D01*
X102290666Y-147026380D01*
X102433523Y-147074000D01*
X102481142Y-147121619D01*
X102862095Y-147121619D02*
X102909714Y-147074000D01*
X103004952Y-147026380D01*
X103243047Y-147026380D01*
X103338285Y-147074000D01*
X103385904Y-147121619D01*
X103433523Y-147216857D01*
X103433523Y-147312095D01*
X103385904Y-147454952D01*
X102814476Y-148026380D01*
X103433523Y-148026380D01*
X103766857Y-147026380D02*
X104433523Y-147026380D01*
X104004952Y-148026380D01*
X141193142Y-114752380D02*
X140859809Y-114276190D01*
X140621714Y-114752380D02*
X140621714Y-113752380D01*
X141002666Y-113752380D01*
X141097904Y-113800000D01*
X141145523Y-113847619D01*
X141193142Y-113942857D01*
X141193142Y-114085714D01*
X141145523Y-114180952D01*
X141097904Y-114228571D01*
X141002666Y-114276190D01*
X140621714Y-114276190D01*
X141574095Y-113847619D02*
X141621714Y-113800000D01*
X141716952Y-113752380D01*
X141955047Y-113752380D01*
X142050285Y-113800000D01*
X142097904Y-113847619D01*
X142145523Y-113942857D01*
X142145523Y-114038095D01*
X142097904Y-114180952D01*
X141526476Y-114752380D01*
X142145523Y-114752380D01*
X142526476Y-113847619D02*
X142574095Y-113800000D01*
X142669333Y-113752380D01*
X142907428Y-113752380D01*
X143002666Y-113800000D01*
X143050285Y-113847619D01*
X143097904Y-113942857D01*
X143097904Y-114038095D01*
X143050285Y-114180952D01*
X142478857Y-114752380D01*
X143097904Y-114752380D01*
X141478095Y-92797380D02*
X141478095Y-93606904D01*
X141525714Y-93702142D01*
X141573333Y-93749761D01*
X141668571Y-93797380D01*
X141859047Y-93797380D01*
X141954285Y-93749761D01*
X142001904Y-93702142D01*
X142049523Y-93606904D01*
X142049523Y-92797380D01*
X143001904Y-92797380D02*
X142525714Y-92797380D01*
X142478095Y-93273571D01*
X142525714Y-93225952D01*
X142620952Y-93178333D01*
X142859047Y-93178333D01*
X142954285Y-93225952D01*
X143001904Y-93273571D01*
X143049523Y-93368809D01*
X143049523Y-93606904D01*
X143001904Y-93702142D01*
X142954285Y-93749761D01*
X142859047Y-93797380D01*
X142620952Y-93797380D01*
X142525714Y-93749761D01*
X142478095Y-93702142D01*
M02*
